ISO-10303-21;
HEADER;
FILE_DESCRIPTION(('STEP AP214'),'1');
FILE_NAME('26AWG.step','2025-03-27T02:41:52',(' '),('ANSOFT Corporation'),'Spatial InterOp 3D',' ',' ');
FILE_SCHEMA(('AUTOMOTIVE_DESIGN { 1 0 10303 214 1 1 1 1 }'));
ENDSEC;
DATA;
#1=MECHANICAL_DESIGN_GEOMETRIC_PRESENTATION_REPRESENTATION(' ',(#16,#17,#18,#19,#20,#21,#22),#12);
#2=PRODUCT_DEFINITION_CONTEXT('',#23,'design');
#3=APPLICATION_PROTOCOL_DEFINITION('INTERNATIONAL STANDARD','automotive_design',1994,#23);
#4=PRODUCT_CATEGORY_RELATIONSHIP('NONE','NONE',#24,#25);
#5=SHAPE_DEFINITION_REPRESENTATION(#26,#27);
#6=SHAPE_DEFINITION_REPRESENTATION(#26,#28);
#7=SHAPE_DEFINITION_REPRESENTATION(#26,#29);
#8=SHAPE_DEFINITION_REPRESENTATION(#26,#30);
#9=SHAPE_DEFINITION_REPRESENTATION(#26,#31);
#10=SHAPE_DEFINITION_REPRESENTATION(#26,#32);
#11=SHAPE_DEFINITION_REPRESENTATION(#26,#33);
#12= (GEOMETRIC_REPRESENTATION_CONTEXT(3)GLOBAL_UNCERTAINTY_ASSIGNED_CONTEXT((#36))GLOBAL_UNIT_ASSIGNED_CONTEXT((#38,#39,#40))REPRESENTATION_CONTEXT('NONE','WORKSPACE'));
#16=STYLED_ITEM('',(#42),#43);
#17=STYLED_ITEM('',(#44),#45);
#18=STYLED_ITEM('',(#46),#47);
#19=STYLED_ITEM('',(#48),#49);
#20=STYLED_ITEM('',(#50),#51);
#21=STYLED_ITEM('',(#52),#53);
#22=STYLED_ITEM('',(#54),#55);
#23=APPLICATION_CONTEXT(' ');
#24=PRODUCT_CATEGORY('part','NONE');
#25=PRODUCT_RELATED_PRODUCT_CATEGORY('detail',' ',(#56));
#26=PRODUCT_DEFINITION_SHAPE('NONE','NONE',#57);
#27=ADVANCED_BREP_SHAPE_REPRESENTATION('insulation1',(#43,#58),#12);
#28=ADVANCED_BREP_SHAPE_REPRESENTATION('Conductor1',(#45,#59),#12);
#29=ADVANCED_BREP_SHAPE_REPRESENTATION('insulation2',(#47,#60),#12);
#30=ADVANCED_BREP_SHAPE_REPRESENTATION('Conductor2',(#49,#61),#12);
#31=ADVANCED_BREP_SHAPE_REPRESENTATION('GND',(#51,#62),#12);
#32=ADVANCED_BREP_SHAPE_REPRESENTATION('l1',(#53,#63),#12);
#33=ADVANCED_BREP_SHAPE_REPRESENTATION('Box1',(#55,#64),#12);
#36=UNCERTAINTY_MEASURE_WITH_UNIT(LENGTH_MEASURE(1.0E-06),#38,'','');
#38= (CONVERSION_BASED_UNIT('MILLIMETRE',#67)LENGTH_UNIT()NAMED_UNIT(#70));
#39= (NAMED_UNIT(#72)PLANE_ANGLE_UNIT()SI_UNIT($,.RADIAN.));
#40= (NAMED_UNIT(#72)SOLID_ANGLE_UNIT()SI_UNIT($,.STERADIAN.));
#42=PRESENTATION_STYLE_ASSIGNMENT((#78));
#43=MANIFOLD_SOLID_BREP('insulation1',#79);
#44=PRESENTATION_STYLE_ASSIGNMENT((#80));
#45=MANIFOLD_SOLID_BREP('Conductor1',#81);
#46=PRESENTATION_STYLE_ASSIGNMENT((#82));
#47=MANIFOLD_SOLID_BREP('insulation2',#83);
#48=PRESENTATION_STYLE_ASSIGNMENT((#84));
#49=MANIFOLD_SOLID_BREP('Conductor2',#85);
#50=PRESENTATION_STYLE_ASSIGNMENT((#86));
#51=MANIFOLD_SOLID_BREP('GND',#87);
#52=PRESENTATION_STYLE_ASSIGNMENT((#88));
#53=MANIFOLD_SOLID_BREP('l1',#89);
#54=PRESENTATION_STYLE_ASSIGNMENT((#90));
#55=MANIFOLD_SOLID_BREP('Box1',#91);
#56=PRODUCT('insulation1','','PART--DESC',(#92));
#57=PRODUCT_DEFINITION('','NONE',#93,#2);
#58=AXIS2_PLACEMENT_3D('',#94,#95,#96);
#59=AXIS2_PLACEMENT_3D('',#97,#98,#99);
#60=AXIS2_PLACEMENT_3D('',#100,#101,#102);
#61=AXIS2_PLACEMENT_3D('',#103,#104,#105);
#62=AXIS2_PLACEMENT_3D('',#106,#107,#108);
#63=AXIS2_PLACEMENT_3D('',#109,#110,#111);
#64=AXIS2_PLACEMENT_3D('',#112,#113,#114);
#67=LENGTH_MEASURE_WITH_UNIT(LENGTH_MEASURE(1.0),#115);
#70=DIMENSIONAL_EXPONENTS(1.0,0.0,0.0,0.0,0.0,0.0,0.0);
#72=DIMENSIONAL_EXPONENTS(0.0,0.0,0.0,0.0,0.0,0.0,0.0);
#78=SURFACE_STYLE_USAGE(.BOTH.,#116);
#79=CLOSED_SHELL('',(#117,#118,#119,#120));
#80=SURFACE_STYLE_USAGE(.BOTH.,#121);
#81=CLOSED_SHELL('',(#122,#123,#124));
#82=SURFACE_STYLE_USAGE(.BOTH.,#125);
#83=CLOSED_SHELL('',(#126,#127,#128,#129));
#84=SURFACE_STYLE_USAGE(.BOTH.,#130);
#85=CLOSED_SHELL('',(#131,#132,#133));
#86=SURFACE_STYLE_USAGE(.BOTH.,#134);
#87=CLOSED_SHELL('',(#135,#136,#137));
#88=SURFACE_STYLE_USAGE(.BOTH.,#138);
#89=CLOSED_SHELL('',(#139,#140,#141,#142,#143,#144,#145,#146,#147,#148,#149,#150,#151,#152));
#90=SURFACE_STYLE_USAGE(.BOTH.,#153);
#91=CLOSED_SHELL('',(#154,#155,#156,#157,#158,#159));
#92=PRODUCT_CONTEXT('',#23,'mechanical');
#93=PRODUCT_DEFINITION_FORMATION_WITH_SPECIFIED_SOURCE(' ','NONE',#56,.NOT_KNOWN.);
#94=CARTESIAN_POINT('',(0.0,0.0,0.0));
#95=DIRECTION('',(0.0,0.0,1.0));
#96=DIRECTION('',(1.0,0.0,0.0));
#97=CARTESIAN_POINT('',(0.0,0.0,0.0));
#98=DIRECTION('',(0.0,0.0,1.0));
#99=DIRECTION('',(1.0,0.0,0.0));
#100=CARTESIAN_POINT('',(0.0,0.0,0.0));
#101=DIRECTION('',(0.0,0.0,1.0));
#102=DIRECTION('',(1.0,0.0,0.0));
#103=CARTESIAN_POINT('',(0.0,0.0,0.0));
#104=DIRECTION('',(0.0,0.0,1.0));
#105=DIRECTION('',(1.0,0.0,0.0));
#106=CARTESIAN_POINT('',(0.0,0.0,0.0));
#107=DIRECTION('',(0.0,0.0,1.0));
#108=DIRECTION('',(1.0,0.0,0.0));
#109=CARTESIAN_POINT('',(0.0,0.0,0.0));
#110=DIRECTION('',(0.0,0.0,1.0));
#111=DIRECTION('',(1.0,0.0,0.0));
#112=CARTESIAN_POINT('',(0.0,0.0,0.0));
#113=DIRECTION('',(0.0,0.0,1.0));
#114=DIRECTION('',(1.0,0.0,0.0));
#115= (NAMED_UNIT(#70)LENGTH_UNIT()SI_UNIT(.MILLI.,.METRE.));
#116=SURFACE_SIDE_STYLE('',(#161));
#117=ADVANCED_FACE('',(#162,#163),#164,.T.);
#118=ADVANCED_FACE('',(#165,#166),#167,.T.);
#119=ADVANCED_FACE('',(#168,#169),#170,.F.);
#120=ADVANCED_FACE('',(#171,#172),#173,.F.);
#121=SURFACE_SIDE_STYLE('',(#174));
#122=ADVANCED_FACE('',(#175,#176),#177,.T.);
#123=ADVANCED_FACE('',(#178),#179,.F.);
#124=ADVANCED_FACE('',(#180),#181,.T.);
#125=SURFACE_SIDE_STYLE('',(#182));
#126=ADVANCED_FACE('',(#183,#184),#185,.T.);
#127=ADVANCED_FACE('',(#186,#187),#188,.T.);
#128=ADVANCED_FACE('',(#189,#190),#191,.F.);
#129=ADVANCED_FACE('',(#192,#193),#194,.F.);
#130=SURFACE_SIDE_STYLE('',(#195));
#131=ADVANCED_FACE('',(#196,#197),#198,.T.);
#132=ADVANCED_FACE('',(#199),#200,.F.);
#133=ADVANCED_FACE('',(#201),#202,.T.);
#134=SURFACE_SIDE_STYLE('',(#203));
#135=ADVANCED_FACE('',(#204,#205),#206,.T.);
#136=ADVANCED_FACE('',(#207),#208,.F.);
#137=ADVANCED_FACE('',(#209),#210,.T.);
#138=SURFACE_SIDE_STYLE('',(#211));
#139=ADVANCED_FACE('',(#212),#213,.F.);
#140=ADVANCED_FACE('',(#214),#215,.T.);
#141=ADVANCED_FACE('',(#216),#217,.F.);
#142=ADVANCED_FACE('',(#218),#219,.F.);
#143=ADVANCED_FACE('',(#220),#221,.F.);
#144=ADVANCED_FACE('',(#222,#223),#224,.F.);
#145=ADVANCED_FACE('',(#225,#226),#227,.T.);
#146=ADVANCED_FACE('',(#228),#229,.F.);
#147=ADVANCED_FACE('',(#230),#231,.T.);
#148=ADVANCED_FACE('',(#232),#233,.F.);
#149=ADVANCED_FACE('',(#234),#235,.F.);
#150=ADVANCED_FACE('',(#236),#237,.F.);
#151=ADVANCED_FACE('',(#238),#239,.F.);
#152=ADVANCED_FACE('',(#240),#241,.F.);
#153=SURFACE_SIDE_STYLE('',(#242));
#154=ADVANCED_FACE('',(#243),#244,.T.);
#155=ADVANCED_FACE('',(#245),#246,.T.);
#156=ADVANCED_FACE('',(#247),#248,.T.);
#157=ADVANCED_FACE('',(#249),#250,.T.);
#158=ADVANCED_FACE('',(#251),#252,.T.);
#159=ADVANCED_FACE('',(#253),#254,.T.);
#161=SURFACE_STYLE_FILL_AREA(#255);
#162=FACE_OUTER_BOUND('',#256,.T.);
#163=FACE_OUTER_BOUND('',#257,.T.);
#164=CYLINDRICAL_SURFACE('',#258,0.71);
#165=FACE_BOUND('',#259,.T.);
#166=FACE_OUTER_BOUND('',#260,.T.);
#167=PLANE('',#261);
#168=FACE_OUTER_BOUND('',#262,.T.);
#169=FACE_OUTER_BOUND('',#263,.T.);
#170=CYLINDRICAL_SURFACE('',#264,0.2075);
#171=FACE_BOUND('',#265,.T.);
#172=FACE_OUTER_BOUND('',#266,.T.);
#173=PLANE('',#267);
#174=SURFACE_STYLE_FILL_AREA(#268);
#175=FACE_OUTER_BOUND('',#269,.T.);
#176=FACE_OUTER_BOUND('',#270,.T.);
#177=CYLINDRICAL_SURFACE('',#271,0.2075);
#178=FACE_OUTER_BOUND('',#272,.T.);
#179=PLANE('',#273);
#180=FACE_OUTER_BOUND('',#274,.T.);
#181=PLANE('',#275);
#182=SURFACE_STYLE_FILL_AREA(#276);
#183=FACE_OUTER_BOUND('',#277,.T.);
#184=FACE_OUTER_BOUND('',#278,.T.);
#185=CYLINDRICAL_SURFACE('',#279,0.71);
#186=FACE_BOUND('',#280,.T.);
#187=FACE_OUTER_BOUND('',#281,.T.);
#188=PLANE('',#282);
#189=FACE_OUTER_BOUND('',#283,.T.);
#190=FACE_OUTER_BOUND('',#284,.T.);
#191=CYLINDRICAL_SURFACE('',#285,0.2075);
#192=FACE_BOUND('',#286,.T.);
#193=FACE_OUTER_BOUND('',#287,.T.);
#194=PLANE('',#288);
#195=SURFACE_STYLE_FILL_AREA(#289);
#196=FACE_OUTER_BOUND('',#290,.T.);
#197=FACE_OUTER_BOUND('',#291,.T.);
#198=CYLINDRICAL_SURFACE('',#292,0.2075);
#199=FACE_OUTER_BOUND('',#293,.T.);
#200=PLANE('',#294);
#201=FACE_OUTER_BOUND('',#295,.T.);
#202=PLANE('',#296);
#203=SURFACE_STYLE_FILL_AREA(#297);
#204=FACE_OUTER_BOUND('',#298,.T.);
#205=FACE_OUTER_BOUND('',#299,.T.);
#206=CYLINDRICAL_SURFACE('',#300,0.2);
#207=FACE_OUTER_BOUND('',#301,.T.);
#208=PLANE('',#302);
#209=FACE_OUTER_BOUND('',#303,.T.);
#210=PLANE('',#304);
#211=SURFACE_STYLE_FILL_AREA(#305);
#212=FACE_OUTER_BOUND('',#306,.T.);
#213=PLANE('',#307);
#214=FACE_OUTER_BOUND('',#308,.T.);
#215=CYLINDRICAL_SURFACE('',#309,0.719);
#216=FACE_OUTER_BOUND('',#310,.T.);
#217=PLANE('',#311);
#218=FACE_OUTER_BOUND('',#312,.T.);
#219=PLANE('',#313);
#220=FACE_OUTER_BOUND('',#314,.T.);
#221=CYLINDRICAL_SURFACE('',#315,0.2);
#222=FACE_BOUND('',#316,.T.);
#223=FACE_OUTER_BOUND('',#317,.T.);
#224=PLANE('',#318);
#225=FACE_BOUND('',#319,.T.);
#226=FACE_OUTER_BOUND('',#320,.T.);
#227=PLANE('',#321);
#228=FACE_OUTER_BOUND('',#322,.T.);
#229=PLANE('',#323);
#230=FACE_OUTER_BOUND('',#324,.T.);
#231=CYLINDRICAL_SURFACE('',#325,0.719);
#232=FACE_OUTER_BOUND('',#326,.T.);
#233=CYLINDRICAL_SURFACE('',#327,0.71);
#234=FACE_OUTER_BOUND('',#328,.T.);
#235=PLANE('',#329);
#236=FACE_OUTER_BOUND('',#330,.T.);
#237=CYLINDRICAL_SURFACE('',#331,0.71);
#238=FACE_OUTER_BOUND('',#332,.T.);
#239=PLANE('',#333);
#240=FACE_OUTER_BOUND('',#334,.T.);
#241=PLANE('',#335);
#242=SURFACE_STYLE_FILL_AREA(#336);
#243=FACE_OUTER_BOUND('',#337,.T.);
#244=PLANE('',#338);
#245=FACE_OUTER_BOUND('',#339,.T.);
#246=PLANE('',#340);
#247=FACE_OUTER_BOUND('',#341,.T.);
#248=PLANE('',#342);
#249=FACE_OUTER_BOUND('',#343,.T.);
#250=PLANE('',#344);
#251=FACE_OUTER_BOUND('',#345,.T.);
#252=PLANE('',#346);
#253=FACE_OUTER_BOUND('',#347,.T.);
#254=PLANE('',#348);
#255=FILL_AREA_STYLE('',(#349));
#256=EDGE_LOOP('',(#350));
#257=EDGE_LOOP('',(#351));
#258=AXIS2_PLACEMENT_3D('',#352,#353,#354);
#259=EDGE_LOOP('',(#355));
#260=EDGE_LOOP('',(#356));
#261=AXIS2_PLACEMENT_3D('',#357,#358,#359);
#262=EDGE_LOOP('',(#360));
#263=EDGE_LOOP('',(#361));
#264=AXIS2_PLACEMENT_3D('',#362,#363,#364);
#265=EDGE_LOOP('',(#365));
#266=EDGE_LOOP('',(#366));
#267=AXIS2_PLACEMENT_3D('',#367,#368,#369);
#268=FILL_AREA_STYLE('',(#370));
#269=EDGE_LOOP('',(#371));
#270=EDGE_LOOP('',(#372));
#271=AXIS2_PLACEMENT_3D('',#373,#374,#375);
#272=EDGE_LOOP('',(#376));
#273=AXIS2_PLACEMENT_3D('',#377,#378,#379);
#274=EDGE_LOOP('',(#380));
#275=AXIS2_PLACEMENT_3D('',#381,#382,#383);
#276=FILL_AREA_STYLE('',(#384));
#277=EDGE_LOOP('',(#385));
#278=EDGE_LOOP('',(#386));
#279=AXIS2_PLACEMENT_3D('',#387,#388,#389);
#280=EDGE_LOOP('',(#390));
#281=EDGE_LOOP('',(#391));
#282=AXIS2_PLACEMENT_3D('',#392,#393,#394);
#283=EDGE_LOOP('',(#395));
#284=EDGE_LOOP('',(#396));
#285=AXIS2_PLACEMENT_3D('',#397,#398,#399);
#286=EDGE_LOOP('',(#400));
#287=EDGE_LOOP('',(#401));
#288=AXIS2_PLACEMENT_3D('',#402,#403,#404);
#289=FILL_AREA_STYLE('',(#405));
#290=EDGE_LOOP('',(#406));
#291=EDGE_LOOP('',(#407));
#292=AXIS2_PLACEMENT_3D('',#408,#409,#410);
#293=EDGE_LOOP('',(#411));
#294=AXIS2_PLACEMENT_3D('',#412,#413,#414);
#295=EDGE_LOOP('',(#415));
#296=AXIS2_PLACEMENT_3D('',#416,#417,#418);
#297=FILL_AREA_STYLE('',(#419));
#298=EDGE_LOOP('',(#420));
#299=EDGE_LOOP('',(#421));
#300=AXIS2_PLACEMENT_3D('',#422,#423,#424);
#301=EDGE_LOOP('',(#425));
#302=AXIS2_PLACEMENT_3D('',#426,#427,#428);
#303=EDGE_LOOP('',(#429));
#304=AXIS2_PLACEMENT_3D('',#430,#431,#432);
#305=FILL_AREA_STYLE('',(#433));
#306=EDGE_LOOP('',(#434,#435,#436,#437));
#307=AXIS2_PLACEMENT_3D('',#438,#439,#440);
#308=EDGE_LOOP('',(#441,#442,#443,#444));
#309=AXIS2_PLACEMENT_3D('',#445,#446,#447);
#310=EDGE_LOOP('',(#448,#449,#450,#451));
#311=AXIS2_PLACEMENT_3D('',#452,#453,#454);
#312=EDGE_LOOP('',(#455,#456,#457,#458));
#313=AXIS2_PLACEMENT_3D('',#459,#460,#461);
#314=EDGE_LOOP('',(#462,#463,#464,#465));
#315=AXIS2_PLACEMENT_3D('',#466,#467,#468);
#316=EDGE_LOOP('',(#469,#470,#471,#472,#473,#474));
#317=EDGE_LOOP('',(#475,#476,#477,#478,#479,#480));
#318=AXIS2_PLACEMENT_3D('',#481,#482,#483);
#319=EDGE_LOOP('',(#484,#485,#486,#487,#488,#489));
#320=EDGE_LOOP('',(#490,#491,#492,#493,#494,#495));
#321=AXIS2_PLACEMENT_3D('',#496,#497,#498);
#322=EDGE_LOOP('',(#499,#500,#501,#502));
#323=AXIS2_PLACEMENT_3D('',#503,#504,#505);
#324=EDGE_LOOP('',(#506,#507,#508,#509));
#325=AXIS2_PLACEMENT_3D('',#510,#511,#512);
#326=EDGE_LOOP('',(#513,#514,#515,#516));
#327=AXIS2_PLACEMENT_3D('',#517,#518,#519);
#328=EDGE_LOOP('',(#520,#521,#522,#523));
#329=AXIS2_PLACEMENT_3D('',#524,#525,#526);
#330=EDGE_LOOP('',(#527,#528,#529,#530));
#331=AXIS2_PLACEMENT_3D('',#531,#532,#533);
#332=EDGE_LOOP('',(#534,#535,#536,#537));
#333=AXIS2_PLACEMENT_3D('',#538,#539,#540);
#334=EDGE_LOOP('',(#541,#542,#543,#544));
#335=AXIS2_PLACEMENT_3D('',#545,#546,#547);
#336=FILL_AREA_STYLE('',(#548));
#337=EDGE_LOOP('',(#549,#550,#551,#552));
#338=AXIS2_PLACEMENT_3D('',#553,#554,#555);
#339=EDGE_LOOP('',(#556,#557,#558,#559));
#340=AXIS2_PLACEMENT_3D('',#560,#561,#562);
#341=EDGE_LOOP('',(#563,#564,#565,#566));
#342=AXIS2_PLACEMENT_3D('',#567,#568,#569);
#343=EDGE_LOOP('',(#570,#571,#572,#573));
#344=AXIS2_PLACEMENT_3D('',#574,#575,#576);
#345=EDGE_LOOP('',(#577,#578,#579,#580));
#346=AXIS2_PLACEMENT_3D('',#581,#582,#583);
#347=EDGE_LOOP('',(#584,#585,#586,#587));
#348=AXIS2_PLACEMENT_3D('',#588,#589,#590);
#349=FILL_AREA_STYLE_COLOUR('',#591);
#350=ORIENTED_EDGE('',*,*,#592,.T.);
#351=ORIENTED_EDGE('',*,*,#593,.F.);
#352=CARTESIAN_POINT('',(0.0,-0.71,0.0));
#353=DIRECTION('',(-1.0,0.0,0.0));
#354=DIRECTION('',(0.0,0.0,1.0));
#355=ORIENTED_EDGE('',*,*,#594,.T.);
#356=ORIENTED_EDGE('',*,*,#593,.T.);
#357=CARTESIAN_POINT('',(0.0,-0.71,0.0));
#358=DIRECTION('',(1.0,-6.12323399573677E-17,-1.60812264967664E-16));
#359=DIRECTION('',(-1.60812264967664E-16,0.0,-1.0));
#360=ORIENTED_EDGE('',*,*,#595,.T.);
#361=ORIENTED_EDGE('',*,*,#594,.F.);
#362=CARTESIAN_POINT('',(0.0,-0.71,0.0));
#363=DIRECTION('',(-1.0,0.0,0.0));
#364=DIRECTION('',(0.0,0.0,1.0));
#365=ORIENTED_EDGE('',*,*,#595,.F.);
#366=ORIENTED_EDGE('',*,*,#592,.F.);
#367=CARTESIAN_POINT('',(-50.0,-0.71,0.0));
#368=DIRECTION('',(1.0,-6.12323399573677E-17,-1.60812264967664E-16));
#369=DIRECTION('',(-1.60812264967664E-16,0.0,-1.0));
#370=FILL_AREA_STYLE_COLOUR('',#596);
#371=ORIENTED_EDGE('',*,*,#597,.T.);
#372=ORIENTED_EDGE('',*,*,#598,.F.);
#373=CARTESIAN_POINT('',(0.0,-0.71,0.0));
#374=DIRECTION('',(-1.0,0.0,0.0));
#375=DIRECTION('',(0.0,0.0,1.0));
#376=ORIENTED_EDGE('',*,*,#597,.F.);
#377=CARTESIAN_POINT('',(-50.0,-0.71,0.0));
#378=DIRECTION('',(1.0,-6.12323399573677E-17,-1.60812264967664E-16));
#379=DIRECTION('',(-1.60812264967664E-16,0.0,-1.0));
#380=ORIENTED_EDGE('',*,*,#598,.T.);
#381=CARTESIAN_POINT('',(0.0,-0.71,0.0));
#382=DIRECTION('',(1.0,-6.12323399573677E-17,-1.60812264967664E-16));
#383=DIRECTION('',(-1.60812264967664E-16,0.0,-1.0));
#384=FILL_AREA_STYLE_COLOUR('',#599);
#385=ORIENTED_EDGE('',*,*,#600,.T.);
#386=ORIENTED_EDGE('',*,*,#601,.F.);
#387=CARTESIAN_POINT('',(0.0,0.71,0.0));
#388=DIRECTION('',(-1.0,0.0,0.0));
#389=DIRECTION('',(0.0,0.0,1.0));
#390=ORIENTED_EDGE('',*,*,#602,.T.);
#391=ORIENTED_EDGE('',*,*,#601,.T.);
#392=CARTESIAN_POINT('',(0.0,0.71,0.0));
#393=DIRECTION('',(1.0,-6.12323399573677E-17,-1.60812264967664E-16));
#394=DIRECTION('',(-1.60812264967664E-16,0.0,-1.0));
#395=ORIENTED_EDGE('',*,*,#603,.T.);
#396=ORIENTED_EDGE('',*,*,#602,.F.);
#397=CARTESIAN_POINT('',(0.0,0.71,0.0));
#398=DIRECTION('',(-1.0,0.0,0.0));
#399=DIRECTION('',(0.0,0.0,1.0));
#400=ORIENTED_EDGE('',*,*,#603,.F.);
#401=ORIENTED_EDGE('',*,*,#600,.F.);
#402=CARTESIAN_POINT('',(-50.0,0.71,0.0));
#403=DIRECTION('',(1.0,-6.12323399573677E-17,-1.60812264967664E-16));
#404=DIRECTION('',(-1.60812264967664E-16,0.0,-1.0));
#405=FILL_AREA_STYLE_COLOUR('',#604);
#406=ORIENTED_EDGE('',*,*,#605,.T.);
#407=ORIENTED_EDGE('',*,*,#606,.F.);
#408=CARTESIAN_POINT('',(0.0,0.71,0.0));
#409=DIRECTION('',(-1.0,0.0,0.0));
#410=DIRECTION('',(0.0,0.0,1.0));
#411=ORIENTED_EDGE('',*,*,#605,.F.);
#412=CARTESIAN_POINT('',(-50.0,0.71,0.0));
#413=DIRECTION('',(1.0,-6.12323399573677E-17,-1.60812264967664E-16));
#414=DIRECTION('',(-1.60812264967664E-16,0.0,-1.0));
#415=ORIENTED_EDGE('',*,*,#606,.T.);
#416=CARTESIAN_POINT('',(0.0,0.71,0.0));
#417=DIRECTION('',(1.0,-6.12323399573677E-17,-1.60812264967664E-16));
#418=DIRECTION('',(-1.60812264967664E-16,0.0,-1.0));
#419=FILL_AREA_STYLE_COLOUR('',#607);
#420=ORIENTED_EDGE('',*,*,#608,.T.);
#421=ORIENTED_EDGE('',*,*,#609,.F.);
#422=CARTESIAN_POINT('',(0.0,0.0,0.569209978830308));
#423=DIRECTION('',(-1.0,0.0,0.0));
#424=DIRECTION('',(0.0,0.0,1.0));
#425=ORIENTED_EDGE('',*,*,#608,.F.);
#426=CARTESIAN_POINT('',(-50.0,0.0,0.569209978830308));
#427=DIRECTION('',(1.0,-6.12323399573677E-17,-1.60812264967664E-16));
#428=DIRECTION('',(-1.60812264967664E-16,0.0,-1.0));
#429=ORIENTED_EDGE('',*,*,#609,.T.);
#430=CARTESIAN_POINT('',(0.0,0.0,0.569209978830308));
#431=DIRECTION('',(1.0,-6.12323399573677E-17,-1.60812264967664E-16));
#432=DIRECTION('',(-1.60812264967664E-16,0.0,-1.0));
#433=FILL_AREA_STYLE_COLOUR('',#610);
#434=ORIENTED_EDGE('',*,*,#611,.F.);
#435=ORIENTED_EDGE('',*,*,#612,.F.);
#436=ORIENTED_EDGE('',*,*,#613,.T.);
#437=ORIENTED_EDGE('',*,*,#614,.T.);
#438=CARTESIAN_POINT('',(0.0,-0.02402,0.77676));
#439=DIRECTION('',(0.0,0.0839038020140729,-0.996473859169212));
#440=DIRECTION('',(0.0,0.996473859169212,0.0839038020140729));
#441=ORIENTED_EDGE('',*,*,#615,.F.);
#442=ORIENTED_EDGE('',*,*,#616,.F.);
#443=ORIENTED_EDGE('',*,*,#611,.T.);
#444=ORIENTED_EDGE('',*,*,#617,.T.);
#445=CARTESIAN_POINT('',(0.0,-0.71,0.0));
#446=DIRECTION('',(-1.0,0.0,0.0));
#447=DIRECTION('',(0.0,0.0,1.0));
#448=ORIENTED_EDGE('',*,*,#613,.F.);
#449=ORIENTED_EDGE('',*,*,#618,.F.);
#450=ORIENTED_EDGE('',*,*,#619,.T.);
#451=ORIENTED_EDGE('',*,*,#620,.T.);
#452=CARTESIAN_POINT('',(0.0,0.02402,0.77676));
#453=DIRECTION('',(-0.0,0.0,-1.0));
#454=DIRECTION('',(-1.0,0.0,0.0));
#455=ORIENTED_EDGE('',*,*,#621,.T.);
#456=ORIENTED_EDGE('',*,*,#622,.F.);
#457=ORIENTED_EDGE('',*,*,#623,.F.);
#458=ORIENTED_EDGE('',*,*,#624,.T.);
#459=CARTESIAN_POINT('',(0.0,0.71,0.71));
#460=DIRECTION('',(0.0,0.083903802014073,0.996473859169212));
#461=DIRECTION('',(0.0,-0.996473859169212,0.083903802014073));
#462=ORIENTED_EDGE('',*,*,#624,.F.);
#463=ORIENTED_EDGE('',*,*,#625,.F.);
#464=ORIENTED_EDGE('',*,*,#626,.T.);
#465=ORIENTED_EDGE('',*,*,#627,.T.);
#466=CARTESIAN_POINT('',(0.0,0.0,0.569209978830308));
#467=DIRECTION('',(-1.0,0.0,0.0));
#468=DIRECTION('',(0.0,0.0,1.0));
#469=ORIENTED_EDGE('',*,*,#621,.F.);
#470=ORIENTED_EDGE('',*,*,#627,.F.);
#471=ORIENTED_EDGE('',*,*,#628,.F.);
#472=ORIENTED_EDGE('',*,*,#629,.F.);
#473=ORIENTED_EDGE('',*,*,#630,.F.);
#474=ORIENTED_EDGE('',*,*,#631,.F.);
#475=ORIENTED_EDGE('',*,*,#632,.T.);
#476=ORIENTED_EDGE('',*,*,#617,.F.);
#477=ORIENTED_EDGE('',*,*,#614,.F.);
#478=ORIENTED_EDGE('',*,*,#620,.F.);
#479=ORIENTED_EDGE('',*,*,#633,.F.);
#480=ORIENTED_EDGE('',*,*,#634,.F.);
#481=CARTESIAN_POINT('',(-50.0,-0.71,0.0));
#482=DIRECTION('',(1.0,-6.12323399573677E-17,-1.60812264967664E-16));
#483=DIRECTION('',(-1.60812264967664E-16,0.0,-1.0));
#484=ORIENTED_EDGE('',*,*,#623,.T.);
#485=ORIENTED_EDGE('',*,*,#635,.T.);
#486=ORIENTED_EDGE('',*,*,#636,.T.);
#487=ORIENTED_EDGE('',*,*,#637,.T.);
#488=ORIENTED_EDGE('',*,*,#638,.T.);
#489=ORIENTED_EDGE('',*,*,#625,.T.);
#490=ORIENTED_EDGE('',*,*,#639,.F.);
#491=ORIENTED_EDGE('',*,*,#640,.T.);
#492=ORIENTED_EDGE('',*,*,#641,.T.);
#493=ORIENTED_EDGE('',*,*,#618,.T.);
#494=ORIENTED_EDGE('',*,*,#612,.T.);
#495=ORIENTED_EDGE('',*,*,#616,.T.);
#496=CARTESIAN_POINT('',(0.0,-0.71,0.0));
#497=DIRECTION('',(1.0,-6.12323399573677E-17,-1.60812264967664E-16));
#498=DIRECTION('',(-1.60812264967664E-16,0.0,-1.0));
#499=ORIENTED_EDGE('',*,*,#619,.F.);
#500=ORIENTED_EDGE('',*,*,#641,.F.);
#501=ORIENTED_EDGE('',*,*,#642,.T.);
#502=ORIENTED_EDGE('',*,*,#633,.T.);
#503=CARTESIAN_POINT('',(0.0,0.71,0.719));
#504=DIRECTION('',(0.0,-0.0839038020140729,-0.996473859169212));
#505=DIRECTION('',(0.0,0.996473859169212,-0.0839038020140729));
#506=ORIENTED_EDGE('',*,*,#634,.T.);
#507=ORIENTED_EDGE('',*,*,#642,.F.);
#508=ORIENTED_EDGE('',*,*,#640,.F.);
#509=ORIENTED_EDGE('',*,*,#643,.T.);
#510=CARTESIAN_POINT('',(0.0,0.71,0.0));
#511=DIRECTION('',(-1.0,0.0,0.0));
#512=DIRECTION('',(0.0,0.0,1.0));
#513=ORIENTED_EDGE('',*,*,#644,.F.);
#514=ORIENTED_EDGE('',*,*,#635,.F.);
#515=ORIENTED_EDGE('',*,*,#622,.T.);
#516=ORIENTED_EDGE('',*,*,#631,.T.);
#517=CARTESIAN_POINT('',(0.0,0.71,0.0));
#518=DIRECTION('',(-1.0,0.0,0.0));
#519=DIRECTION('',(0.0,0.0,1.0));
#520=ORIENTED_EDGE('',*,*,#645,.F.);
#521=ORIENTED_EDGE('',*,*,#636,.F.);
#522=ORIENTED_EDGE('',*,*,#644,.T.);
#523=ORIENTED_EDGE('',*,*,#630,.T.);
#524=CARTESIAN_POINT('',(-1.4140349351462E-16,0.71,-0.71));
#525=DIRECTION('',(0.0,2.22044604925031E-16,-1.0));
#526=DIRECTION('',(0.0,1.0,2.22044604925031E-16));
#527=ORIENTED_EDGE('',*,*,#646,.F.);
#528=ORIENTED_EDGE('',*,*,#637,.F.);
#529=ORIENTED_EDGE('',*,*,#645,.T.);
#530=ORIENTED_EDGE('',*,*,#629,.T.);
#531=CARTESIAN_POINT('',(0.0,-0.71,0.0));
#532=DIRECTION('',(-1.0,0.0,0.0));
#533=DIRECTION('',(0.0,0.0,1.0));
#534=ORIENTED_EDGE('',*,*,#626,.F.);
#535=ORIENTED_EDGE('',*,*,#638,.F.);
#536=ORIENTED_EDGE('',*,*,#646,.T.);
#537=ORIENTED_EDGE('',*,*,#628,.T.);
#538=CARTESIAN_POINT('',(0.0,-0.02402,0.76776));
#539=DIRECTION('',(0.0,-0.083903802014073,0.996473859169212));
#540=DIRECTION('',(0.0,-0.996473859169212,-0.083903802014073));
#541=ORIENTED_EDGE('',*,*,#643,.F.);
#542=ORIENTED_EDGE('',*,*,#639,.T.);
#543=ORIENTED_EDGE('',*,*,#615,.T.);
#544=ORIENTED_EDGE('',*,*,#632,.F.);
#545=CARTESIAN_POINT('',(-1.44298114284038E-16,0.71,-0.719));
#546=DIRECTION('',(0.0,-2.22044604925031E-16,1.0));
#547=DIRECTION('',(0.0,-1.0,-2.22044604925031E-16));
#548=FILL_AREA_STYLE_COLOUR('',#647);
#549=ORIENTED_EDGE('',*,*,#648,.T.);
#550=ORIENTED_EDGE('',*,*,#649,.T.);
#551=ORIENTED_EDGE('',*,*,#650,.T.);
#552=ORIENTED_EDGE('',*,*,#651,.F.);
#553=CARTESIAN_POINT('',(-50.0,0.0,1.2));
#554=DIRECTION('',(-1.0,0.0,0.0));
#555=DIRECTION('',(0.0,0.0,1.0));
#556=ORIENTED_EDGE('',*,*,#648,.F.);
#557=ORIENTED_EDGE('',*,*,#652,.F.);
#558=ORIENTED_EDGE('',*,*,#653,.F.);
#559=ORIENTED_EDGE('',*,*,#654,.F.);
#560=CARTESIAN_POINT('',(-25.0,0.0,1.2));
#561=DIRECTION('',(0.0,-0.0,1.0));
#562=DIRECTION('',(1.0,0.0,0.0));
#563=ORIENTED_EDGE('',*,*,#655,.T.);
#564=ORIENTED_EDGE('',*,*,#656,.T.);
#565=ORIENTED_EDGE('',*,*,#649,.F.);
#566=ORIENTED_EDGE('',*,*,#654,.T.);
#567=CARTESIAN_POINT('',(-25.0,2.2,1.2));
#568=DIRECTION('',(0.0,1.0,0.0));
#569=DIRECTION('',(0.0,-0.0,1.0));
#570=ORIENTED_EDGE('',*,*,#657,.T.);
#571=ORIENTED_EDGE('',*,*,#658,.T.);
#572=ORIENTED_EDGE('',*,*,#655,.F.);
#573=ORIENTED_EDGE('',*,*,#653,.T.);
#574=CARTESIAN_POINT('',(0.0,0.0,1.2));
#575=DIRECTION('',(1.0,0.0,-0.0));
#576=DIRECTION('',(-0.0,0.0,-1.0));
#577=ORIENTED_EDGE('',*,*,#651,.T.);
#578=ORIENTED_EDGE('',*,*,#659,.T.);
#579=ORIENTED_EDGE('',*,*,#657,.F.);
#580=ORIENTED_EDGE('',*,*,#652,.T.);
#581=CARTESIAN_POINT('',(-25.0,-2.2,1.2));
#582=DIRECTION('',(0.0,-1.0,-0.0));
#583=DIRECTION('',(0.0,0.0,-1.0));
#584=ORIENTED_EDGE('',*,*,#659,.F.);
#585=ORIENTED_EDGE('',*,*,#650,.F.);
#586=ORIENTED_EDGE('',*,*,#656,.F.);
#587=ORIENTED_EDGE('',*,*,#658,.F.);
#588=CARTESIAN_POINT('',(-25.0,0.0,-1.2));
#589=DIRECTION('',(0.0,0.0,-1.0));
#590=DIRECTION('',(-1.0,0.0,0.0));
#591=COLOUR_RGB('',0.0,1.0,1.0);
#592=EDGE_CURVE('',#660,#660,#661,.T.);
#593=EDGE_CURVE('',#662,#662,#663,.T.);
#594=EDGE_CURVE('',#664,#664,#665,.F.);
#595=EDGE_CURVE('',#666,#666,#667,.F.);
#596=COLOUR_RGB('',1.0,0.501960813999176,0.250980406999588);
#597=EDGE_CURVE('',#668,#668,#669,.T.);
#598=EDGE_CURVE('',#670,#670,#671,.T.);
#599=COLOUR_RGB('',0.0,1.0,1.0);
#600=EDGE_CURVE('',#672,#672,#673,.T.);
#601=EDGE_CURVE('',#674,#674,#675,.T.);
#602=EDGE_CURVE('',#676,#676,#677,.F.);
#603=EDGE_CURVE('',#678,#678,#679,.F.);
#604=COLOUR_RGB('',1.0,0.501960813999176,0.250980406999588);
#605=EDGE_CURVE('',#680,#680,#681,.T.);
#606=EDGE_CURVE('',#682,#682,#683,.T.);
#607=COLOUR_RGB('',1.0,0.501960813999176,0.250980406999588);
#608=EDGE_CURVE('',#684,#684,#685,.T.);
#609=EDGE_CURVE('',#686,#686,#687,.T.);
#610=COLOUR_RGB('',0.501960813999176,0.501960813999176,1.0);
#611=EDGE_CURVE('',#688,#689,#690,.T.);
#612=EDGE_CURVE('',#691,#688,#692,.T.);
#613=EDGE_CURVE('',#691,#693,#694,.T.);
#614=EDGE_CURVE('',#693,#689,#695,.T.);
#615=EDGE_CURVE('',#696,#697,#698,.T.);
#616=EDGE_CURVE('',#688,#696,#699,.T.);
#617=EDGE_CURVE('',#689,#697,#700,.T.);
#618=EDGE_CURVE('',#701,#691,#702,.T.);
#619=EDGE_CURVE('',#701,#703,#704,.T.);
#620=EDGE_CURVE('',#703,#693,#705,.T.);
#621=EDGE_CURVE('',#706,#707,#708,.F.);
#622=EDGE_CURVE('',#709,#707,#710,.T.);
#623=EDGE_CURVE('',#711,#709,#712,.F.);
#624=EDGE_CURVE('',#711,#706,#713,.T.);
#625=EDGE_CURVE('',#714,#711,#715,.F.);
#626=EDGE_CURVE('',#714,#716,#717,.T.);
#627=EDGE_CURVE('',#716,#706,#718,.F.);
#628=EDGE_CURVE('',#719,#716,#720,.F.);
#629=EDGE_CURVE('',#721,#719,#722,.F.);
#630=EDGE_CURVE('',#723,#721,#724,.T.);
#631=EDGE_CURVE('',#707,#723,#725,.F.);
#632=EDGE_CURVE('',#726,#697,#727,.T.);
#633=EDGE_CURVE('',#728,#703,#729,.T.);
#634=EDGE_CURVE('',#726,#728,#730,.T.);
#635=EDGE_CURVE('',#709,#731,#732,.F.);
#636=EDGE_CURVE('',#731,#733,#734,.T.);
#637=EDGE_CURVE('',#733,#735,#736,.F.);
#638=EDGE_CURVE('',#735,#714,#737,.F.);
#639=EDGE_CURVE('',#738,#696,#739,.T.);
#640=EDGE_CURVE('',#738,#740,#741,.T.);
#641=EDGE_CURVE('',#740,#701,#742,.T.);
#642=EDGE_CURVE('',#740,#728,#743,.T.);
#643=EDGE_CURVE('',#738,#726,#744,.T.);
#644=EDGE_CURVE('',#731,#723,#745,.T.);
#645=EDGE_CURVE('',#733,#721,#746,.T.);
#646=EDGE_CURVE('',#735,#719,#747,.T.);
#647=COLOUR_RGB('',0.501960813999176,1.0,1.0);
#648=EDGE_CURVE('',#748,#749,#750,.T.);
#649=EDGE_CURVE('',#749,#751,#752,.T.);
#650=EDGE_CURVE('',#751,#753,#754,.T.);
#651=EDGE_CURVE('',#748,#753,#755,.T.);
#652=EDGE_CURVE('',#756,#748,#757,.T.);
#653=EDGE_CURVE('',#758,#756,#759,.T.);
#654=EDGE_CURVE('',#749,#758,#760,.T.);
#655=EDGE_CURVE('',#758,#761,#762,.T.);
#656=EDGE_CURVE('',#761,#751,#763,.T.);
#657=EDGE_CURVE('',#756,#764,#765,.T.);
#658=EDGE_CURVE('',#764,#761,#766,.T.);
#659=EDGE_CURVE('',#753,#764,#767,.T.);
#660=VERTEX_POINT('',#768);
#661=CIRCLE('',#769,0.71);
#662=VERTEX_POINT('',#770);
#663=CIRCLE('',#771,0.71);
#664=VERTEX_POINT('',#772);
#665=CIRCLE('',#773,0.2075);
#666=VERTEX_POINT('',#774);
#667=CIRCLE('',#775,0.2075);
#668=VERTEX_POINT('',#776);
#669=CIRCLE('',#777,0.2075);
#670=VERTEX_POINT('',#778);
#671=CIRCLE('',#779,0.2075);
#672=VERTEX_POINT('',#780);
#673=CIRCLE('',#781,0.71);
#674=VERTEX_POINT('',#782);
#675=CIRCLE('',#783,0.71);
#676=VERTEX_POINT('',#784);
#677=CIRCLE('',#785,0.2075);
#678=VERTEX_POINT('',#786);
#679=CIRCLE('',#787,0.2075);
#680=VERTEX_POINT('',#788);
#681=CIRCLE('',#789,0.2075);
#682=VERTEX_POINT('',#790);
#683=CIRCLE('',#791,0.2075);
#684=VERTEX_POINT('',#792);
#685=CIRCLE('',#793,0.2);
#686=VERTEX_POINT('',#794);
#687=CIRCLE('',#795,0.2);
#688=VERTEX_POINT('',#796);
#689=VERTEX_POINT('',#797);
#690=LINE('',#798,#799);
#691=VERTEX_POINT('',#800);
#692=LINE('',#801,#802);
#693=VERTEX_POINT('',#803);
#694=LINE('',#804,#805);
#695=LINE('',#806,#807);
#696=VERTEX_POINT('',#808);
#697=VERTEX_POINT('',#809);
#698=LINE('',#810,#811);
#699=CIRCLE('',#812,0.719);
#700=CIRCLE('',#813,0.719);
#701=VERTEX_POINT('',#814);
#702=LINE('',#815,#816);
#703=VERTEX_POINT('',#817);
#704=LINE('',#818,#819);
#705=LINE('',#820,#821);
#706=VERTEX_POINT('',#822);
#707=VERTEX_POINT('',#823);
#708=LINE('',#824,#825);
#709=VERTEX_POINT('',#826);
#710=LINE('',#827,#828);
#711=VERTEX_POINT('',#829);
#712=LINE('',#830,#831);
#713=LINE('',#832,#833);
#714=VERTEX_POINT('',#834);
#715=CIRCLE('',#835,0.2);
#716=VERTEX_POINT('',#836);
#717=LINE('',#837,#838);
#718=CIRCLE('',#839,0.2);
#719=VERTEX_POINT('',#840);
#720=LINE('',#841,#842);
#721=VERTEX_POINT('',#843);
#722=CIRCLE('',#844,0.71);
#723=VERTEX_POINT('',#845);
#724=LINE('',#846,#847);
#725=CIRCLE('',#848,0.71);
#726=VERTEX_POINT('',#849);
#727=LINE('',#850,#851);
#728=VERTEX_POINT('',#852);
#729=LINE('',#853,#854);
#730=CIRCLE('',#855,0.719);
#731=VERTEX_POINT('',#856);
#732=CIRCLE('',#857,0.71);
#733=VERTEX_POINT('',#858);
#734=LINE('',#859,#860);
#735=VERTEX_POINT('',#861);
#736=CIRCLE('',#862,0.71);
#737=LINE('',#863,#864);
#738=VERTEX_POINT('',#865);
#739=LINE('',#866,#867);
#740=VERTEX_POINT('',#868);
#741=CIRCLE('',#869,0.719);
#742=LINE('',#870,#871);
#743=LINE('',#872,#873);
#744=LINE('',#874,#875);
#745=LINE('',#876,#877);
#746=LINE('',#878,#879);
#747=LINE('',#880,#881);
#748=VERTEX_POINT('',#882);
#749=VERTEX_POINT('',#883);
#750=LINE('',#884,#885);
#751=VERTEX_POINT('',#886);
#752=LINE('',#887,#888);
#753=VERTEX_POINT('',#889);
#754=LINE('',#890,#891);
#755=LINE('',#892,#893);
#756=VERTEX_POINT('',#894);
#757=LINE('',#895,#896);
#758=VERTEX_POINT('',#897);
#759=LINE('',#898,#899);
#760=LINE('',#900,#901);
#761=VERTEX_POINT('',#902);
#762=LINE('',#903,#904);
#763=LINE('',#905,#906);
#764=VERTEX_POINT('',#907);
#765=LINE('',#908,#909);
#766=LINE('',#910,#911);
#767=LINE('',#912,#913);
#768=CARTESIAN_POINT('',(-50.0,0.0,1.57651669496772E-16));
#769=AXIS2_PLACEMENT_3D('',#914,#915,#916);
#770=CARTESIAN_POINT('',(4.34749613697311E-17,0.0,1.57651669496772E-16));
#771=AXIS2_PLACEMENT_3D('',#917,#918,#919);
#772=CARTESIAN_POINT('',(1.27057105411538E-17,-0.5025,-4.74858664267116E-18));
#773=AXIS2_PLACEMENT_3D('',#920,#921,#922);
#774=CARTESIAN_POINT('',(-50.0,-0.5025,-4.74858664267116E-18));
#775=AXIS2_PLACEMENT_3D('',#923,#924,#925);
#776=CARTESIAN_POINT('',(-50.0,-0.5025,4.6074255521944E-17));
#777=AXIS2_PLACEMENT_3D('',#926,#927,#928);
#778=CARTESIAN_POINT('',(1.27057105411538E-17,-0.5025,4.6074255521944E-17));
#779=AXIS2_PLACEMENT_3D('',#929,#930,#931);
#780=CARTESIAN_POINT('',(-50.0,1.42,1.57651669496772E-16));
#781=AXIS2_PLACEMENT_3D('',#932,#933,#934);
#782=CARTESIAN_POINT('',(4.34749613697311E-17,1.42,1.57651669496772E-16));
#783=AXIS2_PLACEMENT_3D('',#935,#936,#937);
#784=CARTESIAN_POINT('',(1.27057105411538E-17,0.9175,-4.74858664267116E-18));
#785=AXIS2_PLACEMENT_3D('',#938,#939,#940);
#786=CARTESIAN_POINT('',(-50.0,0.9175,-4.74858664267116E-18));
#787=AXIS2_PLACEMENT_3D('',#941,#942,#943);
#788=CARTESIAN_POINT('',(-50.0,0.9175,4.6074255521944E-17));
#789=AXIS2_PLACEMENT_3D('',#944,#945,#946);
#790=CARTESIAN_POINT('',(1.27057105411538E-17,0.9175,4.6074255521944E-17));
#791=AXIS2_PLACEMENT_3D('',#947,#948,#949);
#792=CARTESIAN_POINT('',(-50.0,0.2,0.569209978830308));
#793=AXIS2_PLACEMENT_3D('',#950,#951,#952);
#794=CARTESIAN_POINT('',(1.22464679914735E-17,0.2,0.569209978830308));
#795=AXIS2_PLACEMENT_3D('',#953,#954,#955);
#796=CARTESIAN_POINT('',(1.1112911520982E-16,-0.71,0.719));
#797=CARTESIAN_POINT('',(-50.0,-0.71,0.719));
#798=CARTESIAN_POINT('',(1.1112911520982E-16,-0.71,0.719));
#799=VECTOR('',#956,1.0);
#800=CARTESIAN_POINT('',(0.0,-0.02402,0.77676));
#801=CARTESIAN_POINT('',(0.0,-0.02402,0.77676));
#802=VECTOR('',#957,1.0);
#803=CARTESIAN_POINT('',(-50.0,-0.02402,0.77676));
#804=CARTESIAN_POINT('',(0.0,-0.02402,0.77676));
#805=VECTOR('',#958,1.0);
#806=CARTESIAN_POINT('',(-50.0,-0.02402,0.77676));
#807=VECTOR('',#959,1.0);
#808=CARTESIAN_POINT('',(-1.1562401851175E-16,-0.71,-0.719));
#809=CARTESIAN_POINT('',(-50.0,-0.71,-0.719));
#810=CARTESIAN_POINT('',(-1.1562401851175E-16,-0.71,-0.719));
#811=VECTOR('',#960,1.0);
#812=AXIS2_PLACEMENT_3D('',#961,#962,#963);
#813=AXIS2_PLACEMENT_3D('',#964,#965,#966);
#814=CARTESIAN_POINT('',(0.0,0.02402,0.77676));
#815=CARTESIAN_POINT('',(0.0,0.02402,0.77676));
#816=VECTOR('',#967,1.0);
#817=CARTESIAN_POINT('',(-50.0,0.02402,0.77676));
#818=CARTESIAN_POINT('',(0.0,0.02402,0.77676));
#819=VECTOR('',#968,1.0);
#820=CARTESIAN_POINT('',(-50.0,0.02402,0.77676));
#821=VECTOR('',#969,1.0);
#822=CARTESIAN_POINT('',(-50.0,0.0240833157204174,0.767754668771668));
#823=CARTESIAN_POINT('',(-50.0,0.709999999999999,0.71));
#824=CARTESIAN_POINT('',(-50.0,0.71,0.71));
#825=VECTOR('',#970,1.0);
#826=CARTESIAN_POINT('',(1.17007773653669E-16,0.709999999999999,0.71));
#827=CARTESIAN_POINT('',(1.17007773653669E-16,0.709999999999999,0.71));
#828=VECTOR('',#971,1.0);
#829=CARTESIAN_POINT('',(3.30542877028729E-17,0.0240833157204174,0.767754668771668));
#830=CARTESIAN_POINT('',(0.0,0.71,0.71));
#831=VECTOR('',#972,1.0);
#832=CARTESIAN_POINT('',(3.30542877028729E-17,0.0240833157204174,0.767754668771668));
#833=VECTOR('',#973,1.0);
#834=CARTESIAN_POINT('',(3.10006215831586E-17,-0.0240833157204174,0.767754668771668));
#835=AXIS2_PLACEMENT_3D('',#974,#975,#976);
#836=CARTESIAN_POINT('',(-50.0,-0.0240833157204174,0.767754668771668));
#837=CARTESIAN_POINT('',(3.10006215831586E-17,-0.0240833157204174,0.767754668771668));
#838=VECTOR('',#977,1.0);
#839=AXIS2_PLACEMENT_3D('',#978,#979,#980);
#840=CARTESIAN_POINT('',(-50.0,-0.71,0.71));
#841=CARTESIAN_POINT('',(-50.0,-0.02402,0.76776));
#842=VECTOR('',#981,1.0);
#843=CARTESIAN_POINT('',(-50.0,-0.71,-0.71));
#844=AXIS2_PLACEMENT_3D('',#982,#983,#984);
#845=CARTESIAN_POINT('',(-50.0,0.71,-0.71));
#846=CARTESIAN_POINT('',(-50.0,0.71,-0.71));
#847=VECTOR('',#985,1.0);
#848=AXIS2_PLACEMENT_3D('',#986,#987,#988);
#849=CARTESIAN_POINT('',(-50.0,0.71,-0.719));
#850=CARTESIAN_POINT('',(-50.0,0.71,-0.719));
#851=VECTOR('',#989,1.0);
#852=CARTESIAN_POINT('',(-50.0,0.709999999999999,0.719));
#853=CARTESIAN_POINT('',(-50.0,0.71,0.719));
#854=VECTOR('',#990,1.0);
#855=AXIS2_PLACEMENT_3D('',#991,#992,#993);
#856=CARTESIAN_POINT('',(-1.14176708127041E-16,0.71,-0.71));
#857=AXIS2_PLACEMENT_3D('',#994,#995,#996);
#858=CARTESIAN_POINT('',(-1.14176708127041E-16,-0.71,-0.71));
#859=CARTESIAN_POINT('',(-1.4140349351462E-16,0.71,-0.71));
#860=VECTOR('',#997,1.0);
#861=CARTESIAN_POINT('',(1.09738069261435E-16,-0.71,0.71));
#862=AXIS2_PLACEMENT_3D('',#998,#999,#1000);
#863=CARTESIAN_POINT('',(0.0,-0.02402,0.76776));
#864=VECTOR('',#1001,1.0);
#865=CARTESIAN_POINT('',(-1.1562401851175E-16,0.71,-0.719));
#866=CARTESIAN_POINT('',(-1.44298114284038E-16,0.71,-0.719));
#867=VECTOR('',#1002,1.0);
#868=CARTESIAN_POINT('',(1.1849097078449E-16,0.709999999999999,0.719));
#869=AXIS2_PLACEMENT_3D('',#1003,#1004,#1005);
#870=CARTESIAN_POINT('',(0.0,0.71,0.719));
#871=VECTOR('',#1006,1.0);
#872=CARTESIAN_POINT('',(1.1849097078449E-16,0.709999999999999,0.719));
#873=VECTOR('',#1007,1.0);
#874=CARTESIAN_POINT('',(-1.1562401851175E-16,0.71,-0.719));
#875=VECTOR('',#1008,1.0);
#876=CARTESIAN_POINT('',(-1.14176708127041E-16,0.71,-0.71));
#877=VECTOR('',#1009,1.0);
#878=CARTESIAN_POINT('',(-1.14176708127041E-16,-0.71,-0.71));
#879=VECTOR('',#1010,1.0);
#880=CARTESIAN_POINT('',(1.09738069261435E-16,-0.71,0.71));
#881=VECTOR('',#1011,1.0);
#882=CARTESIAN_POINT('',(-50.0,-2.2,1.2));
#883=CARTESIAN_POINT('',(-50.0,2.2,1.2));
#884=CARTESIAN_POINT('',(-50.0,0.0,1.2));
#885=VECTOR('',#1012,1.0);
#886=CARTESIAN_POINT('',(-50.0,2.2,-1.2));
#887=CARTESIAN_POINT('',(-50.0,2.2,1.2));
#888=VECTOR('',#1013,1.0);
#889=CARTESIAN_POINT('',(-50.0,-2.2,-1.2));
#890=CARTESIAN_POINT('',(-50.0,0.0,-1.2));
#891=VECTOR('',#1014,1.0);
#892=CARTESIAN_POINT('',(-50.0,-2.2,1.2));
#893=VECTOR('',#1015,1.0);
#894=CARTESIAN_POINT('',(0.0,-2.2,1.2));
#895=CARTESIAN_POINT('',(-25.0,-2.2,1.2));
#896=VECTOR('',#1016,1.0);
#897=CARTESIAN_POINT('',(0.0,2.2,1.2));
#898=CARTESIAN_POINT('',(0.0,0.0,1.2));
#899=VECTOR('',#1017,1.0);
#900=CARTESIAN_POINT('',(-25.0,2.2,1.2));
#901=VECTOR('',#1018,1.0);
#902=CARTESIAN_POINT('',(0.0,2.2,-1.2));
#903=CARTESIAN_POINT('',(0.0,2.2,1.2));
#904=VECTOR('',#1019,1.0);
#905=CARTESIAN_POINT('',(-25.0,2.2,-1.2));
#906=VECTOR('',#1020,1.0);
#907=CARTESIAN_POINT('',(0.0,-2.2,-1.2));
#908=CARTESIAN_POINT('',(0.0,-2.2,1.2));
#909=VECTOR('',#1021,1.0);
#910=CARTESIAN_POINT('',(0.0,0.0,-1.2));
#911=VECTOR('',#1022,1.0);
#912=CARTESIAN_POINT('',(-25.0,-2.2,-1.2));
#913=VECTOR('',#1023,1.0);
#914=CARTESIAN_POINT('',(-50.0,-0.71,0.0));
#915=DIRECTION('',(1.0,-6.12323399573677E-17,-1.60812264967664E-16));
#916=DIRECTION('',(6.12323399573677E-17,1.0,2.22044604925031E-16));
#917=CARTESIAN_POINT('',(0.0,-0.71,0.0));
#918=DIRECTION('',(1.0,-6.12323399573677E-17,-1.60812264967664E-16));
#919=DIRECTION('',(6.12323399573677E-17,1.0,2.22044604925031E-16));
#920=CARTESIAN_POINT('',(0.0,-0.71,0.0));
#921=DIRECTION('',(1.0,-6.12323399573677E-17,-1.60812264967664E-16));
#922=DIRECTION('',(6.12323399573677E-17,1.0,2.22044604925031E-16));
#923=CARTESIAN_POINT('',(-50.0,-0.71,0.0));
#924=DIRECTION('',(1.0,-6.12323399573677E-17,-1.60812264967664E-16));
#925=DIRECTION('',(6.12323399573677E-17,1.0,2.22044604925031E-16));
#926=CARTESIAN_POINT('',(-50.0,-0.71,0.0));
#927=DIRECTION('',(1.0,-6.12323399573677E-17,-1.60812264967664E-16));
#928=DIRECTION('',(6.12323399573677E-17,1.0,2.22044604925031E-16));
#929=CARTESIAN_POINT('',(0.0,-0.71,0.0));
#930=DIRECTION('',(1.0,-6.12323399573677E-17,-1.60812264967664E-16));
#931=DIRECTION('',(6.12323399573677E-17,1.0,2.22044604925031E-16));
#932=CARTESIAN_POINT('',(-50.0,0.71,0.0));
#933=DIRECTION('',(1.0,-6.12323399573677E-17,-1.60812264967664E-16));
#934=DIRECTION('',(6.12323399573677E-17,1.0,2.22044604925031E-16));
#935=CARTESIAN_POINT('',(0.0,0.71,0.0));
#936=DIRECTION('',(1.0,-6.12323399573677E-17,-1.60812264967664E-16));
#937=DIRECTION('',(6.12323399573677E-17,1.0,2.22044604925031E-16));
#938=CARTESIAN_POINT('',(0.0,0.71,0.0));
#939=DIRECTION('',(1.0,-6.12323399573677E-17,-1.60812264967664E-16));
#940=DIRECTION('',(6.12323399573677E-17,1.0,2.22044604925031E-16));
#941=CARTESIAN_POINT('',(-50.0,0.71,0.0));
#942=DIRECTION('',(1.0,-6.12323399573677E-17,-1.60812264967664E-16));
#943=DIRECTION('',(6.12323399573677E-17,1.0,2.22044604925031E-16));
#944=CARTESIAN_POINT('',(-50.0,0.71,0.0));
#945=DIRECTION('',(1.0,-6.12323399573677E-17,-1.60812264967664E-16));
#946=DIRECTION('',(6.12323399573677E-17,1.0,2.22044604925031E-16));
#947=CARTESIAN_POINT('',(0.0,0.71,0.0));
#948=DIRECTION('',(1.0,-6.12323399573677E-17,-1.60812264967664E-16));
#949=DIRECTION('',(6.12323399573677E-17,1.0,2.22044604925031E-16));
#950=CARTESIAN_POINT('',(-50.0,0.0,0.569209978830308));
#951=DIRECTION('',(1.0,-6.12323399573677E-17,-1.60812264967664E-16));
#952=DIRECTION('',(6.12323399573677E-17,1.0,2.22044604925031E-16));
#953=CARTESIAN_POINT('',(0.0,0.0,0.569209978830308));
#954=DIRECTION('',(1.0,-6.12323399573677E-17,-1.60812264967664E-16));
#955=DIRECTION('',(6.12323399573677E-17,1.0,2.22044604925031E-16));
#956=DIRECTION('',(-1000.0,0.0,0.0));
#957=DIRECTION('',(0.0,-996.473859169212,-83.9038020140729));
#958=DIRECTION('',(-1000.0,0.0,0.0));
#959=DIRECTION('',(0.0,-996.473859169212,-83.9038020140729));
#960=DIRECTION('',(-1000.0,0.0,0.0));
#961=CARTESIAN_POINT('',(0.0,-0.71,0.0));
#962=DIRECTION('',(1.0,-6.12323399573677E-17,-1.60812264967664E-16));
#963=DIRECTION('',(6.12323399573677E-17,1.0,2.22044604925031E-16));
#964=CARTESIAN_POINT('',(-50.0,-0.71,0.0));
#965=DIRECTION('',(1.0,-6.12323399573677E-17,-1.60812264967664E-16));
#966=DIRECTION('',(6.12323399573677E-17,1.0,2.22044604925031E-16));
#967=DIRECTION('',(0.0,-1000.0,0.0));
#968=DIRECTION('',(-1000.0,0.0,0.0));
#969=DIRECTION('',(0.0,-1000.0,0.0));
#970=DIRECTION('',(0.0,-996.473859169212,83.903802014073));
#971=DIRECTION('',(-1000.0,0.0,0.0));
#972=DIRECTION('',(0.0,-996.473859169212,83.903802014073));
#973=DIRECTION('',(-1000.0,0.0,0.0));
#974=CARTESIAN_POINT('',(0.0,0.0,0.569209978830308));
#975=DIRECTION('',(1.0,-6.12323399573677E-17,-1.60812264967664E-16));
#976=DIRECTION('',(6.12323399573677E-17,1.0,2.22044604925031E-16));
#977=DIRECTION('',(-1000.0,0.0,0.0));
#978=CARTESIAN_POINT('',(-50.0,0.0,0.569209978830308));
#979=DIRECTION('',(1.0,-6.12323399573677E-17,-1.60812264967664E-16));
#980=DIRECTION('',(6.12323399573677E-17,1.0,2.22044604925031E-16));
#981=DIRECTION('',(0.0,-996.473859169212,-83.903802014073));
#982=CARTESIAN_POINT('',(-50.0,-0.71,0.0));
#983=DIRECTION('',(1.0,-6.12323399573677E-17,-1.60812264967664E-16));
#984=DIRECTION('',(6.12323399573677E-17,1.0,2.22044604925031E-16));
#985=DIRECTION('',(-6.12323399573677E-14,-1000.0,-2.22044604925031E-13));
#986=CARTESIAN_POINT('',(-50.0,0.71,0.0));
#987=DIRECTION('',(1.0,-6.12323399573677E-17,-1.60812264967664E-16));
#988=DIRECTION('',(6.12323399573677E-17,1.0,2.22044604925031E-16));
#989=DIRECTION('',(-6.12323399573677E-14,-1000.0,-2.22044604925031E-13));
#990=DIRECTION('',(0.0,-996.473859169212,83.9038020140729));
#991=CARTESIAN_POINT('',(-50.0,0.71,0.0));
#992=DIRECTION('',(1.0,-6.12323399573677E-17,-1.60812264967664E-16));
#993=DIRECTION('',(6.12323399573677E-17,1.0,2.22044604925031E-16));
#994=CARTESIAN_POINT('',(0.0,0.71,0.0));
#995=DIRECTION('',(1.0,-6.12323399573677E-17,-1.60812264967664E-16));
#996=DIRECTION('',(6.12323399573677E-17,1.0,2.22044604925031E-16));
#997=DIRECTION('',(-6.12323399573677E-14,-1000.0,-2.22044604925031E-13));
#998=CARTESIAN_POINT('',(0.0,-0.71,0.0));
#999=DIRECTION('',(1.0,-6.12323399573677E-17,-1.60812264967664E-16));
#1000=DIRECTION('',(6.12323399573677E-17,1.0,2.22044604925031E-16));
#1001=DIRECTION('',(0.0,-996.473859169212,-83.903802014073));
#1002=DIRECTION('',(-6.12323399573677E-14,-1000.0,-2.22044604925031E-13));
#1003=CARTESIAN_POINT('',(0.0,0.71,0.0));
#1004=DIRECTION('',(1.0,-6.12323399573677E-17,-1.60812264967664E-16));
#1005=DIRECTION('',(6.12323399573677E-17,1.0,2.22044604925031E-16));
#1006=DIRECTION('',(0.0,-996.473859169212,83.9038020140729));
#1007=DIRECTION('',(-1000.0,0.0,0.0));
#1008=DIRECTION('',(-1000.0,0.0,0.0));
#1009=DIRECTION('',(-1000.0,0.0,0.0));
#1010=DIRECTION('',(-1000.0,0.0,0.0));
#1011=DIRECTION('',(-1000.0,0.0,0.0));
#1012=DIRECTION('',(0.0,1000.0,0.0));
#1013=DIRECTION('',(0.0,0.0,-1000.0));
#1014=DIRECTION('',(-0.0,-1000.0,-0.0));
#1015=DIRECTION('',(0.0,0.0,-1000.0));
#1016=DIRECTION('',(-1000.0,0.0,0.0));
#1017=DIRECTION('',(-0.0,-1000.0,-0.0));
#1018=DIRECTION('',(1000.0,-0.0,-0.0));
#1019=DIRECTION('',(0.0,0.0,-1000.0));
#1020=DIRECTION('',(-1000.0,0.0,0.0));
#1021=DIRECTION('',(0.0,0.0,-1000.0));
#1022=DIRECTION('',(0.0,1000.0,0.0));
#1023=DIRECTION('',(1000.0,-0.0,-0.0));
ENDSEC;
END-ISO-10303-21;
