ISO-10303-21;
HEADER;
FILE_DESCRIPTION(('STEP AP214'),'1');
FILE_NAME('JEPJ85.step','2025-03-26T05:37:38',(' '),('ANSOFT Corporation'),'Spatial InterOp 3D',' ',' ');
FILE_SCHEMA(('AUTOMOTIVE_DESIGN { 1 0 10303 214 1 1 1 1 }'));
ENDSEC;
DATA;
#1=MECHANICAL_DESIGN_GEOMETRIC_PRESENTATION_REPRESENTATION(' ',(#23,#24,#25,#26,#27,#28,#29,#30,#31,#32,#33,#34,#35,#36),#19);
#2=PRODUCT_DEFINITION_CONTEXT('',#37,'design');
#3=APPLICATION_PROTOCOL_DEFINITION('INTERNATIONAL STANDARD','automotive_design',1994,#37);
#4=PRODUCT_CATEGORY_RELATIONSHIP('NONE','NONE',#38,#39);
#5=SHAPE_DEFINITION_REPRESENTATION(#40,#41);
#6=SHAPE_DEFINITION_REPRESENTATION(#40,#42);
#7=SHAPE_DEFINITION_REPRESENTATION(#40,#43);
#8=SHAPE_DEFINITION_REPRESENTATION(#40,#44);
#9=SHAPE_DEFINITION_REPRESENTATION(#40,#45);
#10=SHAPE_DEFINITION_REPRESENTATION(#40,#46);
#11=SHAPE_DEFINITION_REPRESENTATION(#40,#47);
#12=SHAPE_DEFINITION_REPRESENTATION(#40,#48);
#13=SHAPE_DEFINITION_REPRESENTATION(#40,#49);
#14=SHAPE_DEFINITION_REPRESENTATION(#40,#50);
#15=SHAPE_DEFINITION_REPRESENTATION(#40,#51);
#16=SHAPE_DEFINITION_REPRESENTATION(#40,#52);
#17=SHAPE_DEFINITION_REPRESENTATION(#40,#53);
#18=SHAPE_DEFINITION_REPRESENTATION(#40,#54);
#19= (GEOMETRIC_REPRESENTATION_CONTEXT(3)GLOBAL_UNCERTAINTY_ASSIGNED_CONTEXT((#57))GLOBAL_UNIT_ASSIGNED_CONTEXT((#59,#60,#61))REPRESENTATION_CONTEXT('NONE','WORKSPACE'));
#23=STYLED_ITEM('',(#63),#64);
#24=STYLED_ITEM('',(#65),#66);
#25=STYLED_ITEM('',(#67),#68);
#26=STYLED_ITEM('',(#69),#70);
#27=STYLED_ITEM('',(#71),#72);
#28=STYLED_ITEM('',(#73),#74);
#29=STYLED_ITEM('',(#75),#76);
#30=STYLED_ITEM('',(#77),#78);
#31=STYLED_ITEM('',(#79),#80);
#32=STYLED_ITEM('',(#81),#82);
#33=STYLED_ITEM('',(#83),#84);
#34=STYLED_ITEM('',(#85),#86);
#35=STYLED_ITEM('',(#87),#88);
#36=STYLED_ITEM('',(#89),#90);
#37=APPLICATION_CONTEXT(' ');
#38=PRODUCT_CATEGORY('part','NONE');
#39=PRODUCT_RELATED_PRODUCT_CATEGORY('detail',' ',(#91));
#40=PRODUCT_DEFINITION_SHAPE('NONE','NONE',#92);
#41=ADVANCED_BREP_SHAPE_REPRESENTATION('Conductor2',(#64,#93),#19);
#42=ADVANCED_BREP_SHAPE_REPRESENTATION('Conductor1',(#66,#94),#19);
#43=ADVANCED_BREP_SHAPE_REPRESENTATION('Conductor3',(#68,#95),#19);
#44=ADVANCED_BREP_SHAPE_REPRESENTATION('Mica1',(#70,#96),#19);
#45=ADVANCED_BREP_SHAPE_REPRESENTATION('EPR1',(#72,#97),#19);
#46=ADVANCED_BREP_SHAPE_REPRESENTATION('Mica2',(#74,#98),#19);
#47=ADVANCED_BREP_SHAPE_REPRESENTATION('EPR2',(#76,#99),#19);
#48=ADVANCED_BREP_SHAPE_REPRESENTATION('Mica3',(#78,#100),#19);
#49=ADVANCED_BREP_SHAPE_REPRESENTATION('EPR3',(#80,#101),#19);
#50=ADVANCED_BREP_SHAPE_REPRESENTATION('WrappingTape',(#82,#102),#19);
#51=ADVANCED_BREP_SHAPE_REPRESENTATION('PE',(#84,#103),#19);
#52=ADVANCED_BREP_SHAPE_REPRESENTATION('Braid',(#86,#104),#19);
#53=ADVANCED_BREP_SHAPE_REPRESENTATION('XLPE',(#88,#105),#19);
#54=ADVANCED_BREP_SHAPE_REPRESENTATION('Rectangle1',(#90,#106),#19);
#57=UNCERTAINTY_MEASURE_WITH_UNIT(LENGTH_MEASURE(1.0E-06),#59,'','');
#59= (CONVERSION_BASED_UNIT('MILLIMETRE',#109)LENGTH_UNIT()NAMED_UNIT(#112));
#60= (NAMED_UNIT(#114)PLANE_ANGLE_UNIT()SI_UNIT($,.RADIAN.));
#61= (NAMED_UNIT(#114)SOLID_ANGLE_UNIT()SI_UNIT($,.STERADIAN.));
#63=PRESENTATION_STYLE_ASSIGNMENT((#120));
#64=MANIFOLD_SOLID_BREP('Conductor2',#121);
#65=PRESENTATION_STYLE_ASSIGNMENT((#122));
#66=MANIFOLD_SOLID_BREP('Conductor1',#123);
#67=PRESENTATION_STYLE_ASSIGNMENT((#124));
#68=MANIFOLD_SOLID_BREP('Conductor3',#125);
#69=PRESENTATION_STYLE_ASSIGNMENT((#126));
#70=MANIFOLD_SOLID_BREP('Mica1',#127);
#71=PRESENTATION_STYLE_ASSIGNMENT((#128));
#72=MANIFOLD_SOLID_BREP('EPR1',#129);
#73=PRESENTATION_STYLE_ASSIGNMENT((#130));
#74=MANIFOLD_SOLID_BREP('Mica2',#131);
#75=PRESENTATION_STYLE_ASSIGNMENT((#132));
#76=MANIFOLD_SOLID_BREP('EPR2',#133);
#77=PRESENTATION_STYLE_ASSIGNMENT((#134));
#78=MANIFOLD_SOLID_BREP('Mica3',#135);
#79=PRESENTATION_STYLE_ASSIGNMENT((#136));
#80=MANIFOLD_SOLID_BREP('EPR3',#137);
#81=PRESENTATION_STYLE_ASSIGNMENT((#138));
#82=MANIFOLD_SOLID_BREP('WrappingTape',#139);
#83=PRESENTATION_STYLE_ASSIGNMENT((#140));
#84=MANIFOLD_SOLID_BREP('PE',#141);
#85=PRESENTATION_STYLE_ASSIGNMENT((#142));
#86=MANIFOLD_SOLID_BREP('Braid',#143);
#87=PRESENTATION_STYLE_ASSIGNMENT((#144));
#88=MANIFOLD_SOLID_BREP('XLPE',#145);
#89=PRESENTATION_STYLE_ASSIGNMENT((#146));
#90=MANIFOLD_SOLID_BREP('Rectangle1',#147);
#91=PRODUCT('Conductor2','','PART--DESC',(#148));
#92=PRODUCT_DEFINITION('','NONE',#149,#2);
#93=AXIS2_PLACEMENT_3D('',#150,#151,#152);
#94=AXIS2_PLACEMENT_3D('',#153,#154,#155);
#95=AXIS2_PLACEMENT_3D('',#156,#157,#158);
#96=AXIS2_PLACEMENT_3D('',#159,#160,#161);
#97=AXIS2_PLACEMENT_3D('',#162,#163,#164);
#98=AXIS2_PLACEMENT_3D('',#165,#166,#167);
#99=AXIS2_PLACEMENT_3D('',#168,#169,#170);
#100=AXIS2_PLACEMENT_3D('',#171,#172,#173);
#101=AXIS2_PLACEMENT_3D('',#174,#175,#176);
#102=AXIS2_PLACEMENT_3D('',#177,#178,#179);
#103=AXIS2_PLACEMENT_3D('',#180,#181,#182);
#104=AXIS2_PLACEMENT_3D('',#183,#184,#185);
#105=AXIS2_PLACEMENT_3D('',#186,#187,#188);
#106=AXIS2_PLACEMENT_3D('',#189,#190,#191);
#109=LENGTH_MEASURE_WITH_UNIT(LENGTH_MEASURE(1.0),#192);
#112=DIMENSIONAL_EXPONENTS(1.0,0.0,0.0,0.0,0.0,0.0,0.0);
#114=DIMENSIONAL_EXPONENTS(0.0,0.0,0.0,0.0,0.0,0.0,0.0);
#120=SURFACE_STYLE_USAGE(.BOTH.,#193);
#121=CLOSED_SHELL('',(#194,#195,#196,#197));
#122=SURFACE_STYLE_USAGE(.BOTH.,#198);
#123=CLOSED_SHELL('',(#199,#200,#201,#202));
#124=SURFACE_STYLE_USAGE(.BOTH.,#203);
#125=CLOSED_SHELL('',(#204,#205,#206,#207));
#126=SURFACE_STYLE_USAGE(.BOTH.,#208);
#127=CLOSED_SHELL('',(#209,#210,#211,#212,#213,#214));
#128=SURFACE_STYLE_USAGE(.BOTH.,#215);
#129=CLOSED_SHELL('',(#216,#217,#218,#219,#220,#221));
#130=SURFACE_STYLE_USAGE(.BOTH.,#222);
#131=CLOSED_SHELL('',(#223,#224,#225,#226,#227,#228));
#132=SURFACE_STYLE_USAGE(.BOTH.,#229);
#133=CLOSED_SHELL('',(#230,#231,#232,#233,#234,#235));
#134=SURFACE_STYLE_USAGE(.BOTH.,#236);
#135=CLOSED_SHELL('',(#237,#238,#239,#240,#241,#242));
#136=SURFACE_STYLE_USAGE(.BOTH.,#243);
#137=CLOSED_SHELL('',(#244,#245,#246,#247,#248,#249));
#138=SURFACE_STYLE_USAGE(.BOTH.,#250);
#139=CLOSED_SHELL('',(#251,#252,#253,#254,#255,#256));
#140=SURFACE_STYLE_USAGE(.BOTH.,#257);
#141=CLOSED_SHELL('',(#258,#259,#260,#261,#262,#263));
#142=SURFACE_STYLE_USAGE(.BOTH.,#264);
#143=CLOSED_SHELL('',(#265,#266,#267,#268,#269,#270));
#144=SURFACE_STYLE_USAGE(.BOTH.,#271);
#145=CLOSED_SHELL('',(#272,#273,#274,#275,#276,#277));
#146=SURFACE_STYLE_USAGE(.BOTH.,#278);
#147=CLOSED_SHELL('',(#279,#280,#281,#282,#283,#284));
#148=PRODUCT_CONTEXT('',#37,'mechanical');
#149=PRODUCT_DEFINITION_FORMATION_WITH_SPECIFIED_SOURCE(' ','NONE',#91,.NOT_KNOWN.);
#150=CARTESIAN_POINT('',(0.0,0.0,0.0));
#151=DIRECTION('',(0.0,0.0,1.0));
#152=DIRECTION('',(1.0,0.0,0.0));
#153=CARTESIAN_POINT('',(0.0,0.0,0.0));
#154=DIRECTION('',(0.0,0.0,1.0));
#155=DIRECTION('',(1.0,0.0,0.0));
#156=CARTESIAN_POINT('',(0.0,0.0,0.0));
#157=DIRECTION('',(0.0,0.0,1.0));
#158=DIRECTION('',(1.0,0.0,0.0));
#159=CARTESIAN_POINT('',(0.0,0.0,0.0));
#160=DIRECTION('',(0.0,0.0,1.0));
#161=DIRECTION('',(1.0,0.0,0.0));
#162=CARTESIAN_POINT('',(0.0,0.0,0.0));
#163=DIRECTION('',(0.0,0.0,1.0));
#164=DIRECTION('',(1.0,0.0,0.0));
#165=CARTESIAN_POINT('',(0.0,0.0,0.0));
#166=DIRECTION('',(0.0,0.0,1.0));
#167=DIRECTION('',(1.0,0.0,0.0));
#168=CARTESIAN_POINT('',(0.0,0.0,0.0));
#169=DIRECTION('',(0.0,0.0,1.0));
#170=DIRECTION('',(1.0,0.0,0.0));
#171=CARTESIAN_POINT('',(0.0,0.0,0.0));
#172=DIRECTION('',(0.0,0.0,1.0));
#173=DIRECTION('',(1.0,0.0,0.0));
#174=CARTESIAN_POINT('',(0.0,0.0,0.0));
#175=DIRECTION('',(0.0,0.0,1.0));
#176=DIRECTION('',(1.0,0.0,0.0));
#177=CARTESIAN_POINT('',(0.0,0.0,0.0));
#178=DIRECTION('',(0.0,0.0,1.0));
#179=DIRECTION('',(1.0,0.0,0.0));
#180=CARTESIAN_POINT('',(0.0,0.0,0.0));
#181=DIRECTION('',(0.0,0.0,1.0));
#182=DIRECTION('',(1.0,0.0,0.0));
#183=CARTESIAN_POINT('',(0.0,0.0,0.0));
#184=DIRECTION('',(0.0,0.0,1.0));
#185=DIRECTION('',(1.0,0.0,0.0));
#186=CARTESIAN_POINT('',(0.0,0.0,0.0));
#187=DIRECTION('',(0.0,0.0,1.0));
#188=DIRECTION('',(1.0,0.0,0.0));
#189=CARTESIAN_POINT('',(0.0,0.0,0.0));
#190=DIRECTION('',(0.0,0.0,1.0));
#191=DIRECTION('',(1.0,0.0,0.0));
#192= (NAMED_UNIT(#112)LENGTH_UNIT()SI_UNIT(.MILLI.,.METRE.));
#193=SURFACE_SIDE_STYLE('',(#286));
#194=ADVANCED_FACE('',(#287),#288,.T.);
#195=ADVANCED_FACE('',(#289),#290,.T.);
#196=ADVANCED_FACE('',(#291),#292,.T.);
#197=ADVANCED_FACE('',(#293),#294,.F.);
#198=SURFACE_SIDE_STYLE('',(#295));
#199=ADVANCED_FACE('',(#296),#297,.T.);
#200=ADVANCED_FACE('',(#298),#299,.T.);
#201=ADVANCED_FACE('',(#300),#301,.T.);
#202=ADVANCED_FACE('',(#302),#303,.F.);
#203=SURFACE_SIDE_STYLE('',(#304));
#204=ADVANCED_FACE('',(#305),#306,.T.);
#205=ADVANCED_FACE('',(#307),#308,.T.);
#206=ADVANCED_FACE('',(#309),#310,.T.);
#207=ADVANCED_FACE('',(#311),#312,.F.);
#208=SURFACE_SIDE_STYLE('',(#313));
#209=ADVANCED_FACE('',(#314),#315,.F.);
#210=ADVANCED_FACE('',(#316),#317,.T.);
#211=ADVANCED_FACE('',(#318),#319,.T.);
#212=ADVANCED_FACE('',(#320),#321,.F.);
#213=ADVANCED_FACE('',(#322,#323),#324,.T.);
#214=ADVANCED_FACE('',(#325,#326),#327,.F.);
#215=SURFACE_SIDE_STYLE('',(#328));
#216=ADVANCED_FACE('',(#329),#330,.F.);
#217=ADVANCED_FACE('',(#331),#332,.T.);
#218=ADVANCED_FACE('',(#333),#334,.T.);
#219=ADVANCED_FACE('',(#335),#336,.F.);
#220=ADVANCED_FACE('',(#337,#338),#339,.T.);
#221=ADVANCED_FACE('',(#340,#341),#342,.F.);
#222=SURFACE_SIDE_STYLE('',(#343));
#223=ADVANCED_FACE('',(#344),#345,.F.);
#224=ADVANCED_FACE('',(#346),#347,.T.);
#225=ADVANCED_FACE('',(#348),#349,.T.);
#226=ADVANCED_FACE('',(#350),#351,.F.);
#227=ADVANCED_FACE('',(#352,#353),#354,.T.);
#228=ADVANCED_FACE('',(#355,#356),#357,.F.);
#229=SURFACE_SIDE_STYLE('',(#358));
#230=ADVANCED_FACE('',(#359),#360,.F.);
#231=ADVANCED_FACE('',(#361),#362,.T.);
#232=ADVANCED_FACE('',(#363),#364,.T.);
#233=ADVANCED_FACE('',(#365),#366,.F.);
#234=ADVANCED_FACE('',(#367,#368),#369,.T.);
#235=ADVANCED_FACE('',(#370,#371),#372,.F.);
#236=SURFACE_SIDE_STYLE('',(#373));
#237=ADVANCED_FACE('',(#374),#375,.F.);
#238=ADVANCED_FACE('',(#376),#377,.T.);
#239=ADVANCED_FACE('',(#378),#379,.T.);
#240=ADVANCED_FACE('',(#380),#381,.F.);
#241=ADVANCED_FACE('',(#382,#383),#384,.T.);
#242=ADVANCED_FACE('',(#385,#386),#387,.F.);
#243=SURFACE_SIDE_STYLE('',(#388));
#244=ADVANCED_FACE('',(#389),#390,.F.);
#245=ADVANCED_FACE('',(#391),#392,.T.);
#246=ADVANCED_FACE('',(#393),#394,.T.);
#247=ADVANCED_FACE('',(#395),#396,.F.);
#248=ADVANCED_FACE('',(#397,#398),#399,.T.);
#249=ADVANCED_FACE('',(#400,#401),#402,.F.);
#250=SURFACE_SIDE_STYLE('',(#403));
#251=ADVANCED_FACE('',(#404),#405,.F.);
#252=ADVANCED_FACE('',(#406),#407,.T.);
#253=ADVANCED_FACE('',(#408),#409,.T.);
#254=ADVANCED_FACE('',(#410),#411,.F.);
#255=ADVANCED_FACE('',(#412,#413),#414,.T.);
#256=ADVANCED_FACE('',(#415,#416),#417,.F.);
#257=SURFACE_SIDE_STYLE('',(#418));
#258=ADVANCED_FACE('',(#419),#420,.F.);
#259=ADVANCED_FACE('',(#421),#422,.T.);
#260=ADVANCED_FACE('',(#423),#424,.T.);
#261=ADVANCED_FACE('',(#425),#426,.F.);
#262=ADVANCED_FACE('',(#427,#428),#429,.T.);
#263=ADVANCED_FACE('',(#430,#431),#432,.F.);
#264=SURFACE_SIDE_STYLE('',(#433));
#265=ADVANCED_FACE('',(#434),#435,.F.);
#266=ADVANCED_FACE('',(#436),#437,.T.);
#267=ADVANCED_FACE('',(#438),#439,.T.);
#268=ADVANCED_FACE('',(#440),#441,.F.);
#269=ADVANCED_FACE('',(#442,#443),#444,.T.);
#270=ADVANCED_FACE('',(#445,#446),#447,.F.);
#271=SURFACE_SIDE_STYLE('',(#448));
#272=ADVANCED_FACE('',(#449),#450,.F.);
#273=ADVANCED_FACE('',(#451),#452,.T.);
#274=ADVANCED_FACE('',(#453),#454,.T.);
#275=ADVANCED_FACE('',(#455),#456,.F.);
#276=ADVANCED_FACE('',(#457,#458),#459,.T.);
#277=ADVANCED_FACE('',(#460,#461),#462,.F.);
#278=SURFACE_SIDE_STYLE('',(#463));
#279=ADVANCED_FACE('',(#464),#465,.T.);
#280=ADVANCED_FACE('',(#466),#467,.T.);
#281=ADVANCED_FACE('',(#468),#469,.T.);
#282=ADVANCED_FACE('',(#470),#471,.T.);
#283=ADVANCED_FACE('',(#472),#473,.T.);
#284=ADVANCED_FACE('',(#474),#475,.F.);
#286=SURFACE_STYLE_FILL_AREA(#476);
#287=FACE_OUTER_BOUND('',#477,.T.);
#288=CYLINDRICAL_SURFACE('',#478,13.1);
#289=FACE_OUTER_BOUND('',#479,.T.);
#290=CYLINDRICAL_SURFACE('',#480,13.1);
#291=FACE_OUTER_BOUND('',#481,.T.);
#292=PLANE('',#482);
#293=FACE_OUTER_BOUND('',#483,.T.);
#294=PLANE('',#484);
#295=SURFACE_STYLE_FILL_AREA(#485);
#296=FACE_OUTER_BOUND('',#486,.T.);
#297=CYLINDRICAL_SURFACE('',#487,13.1);
#298=FACE_OUTER_BOUND('',#488,.T.);
#299=CYLINDRICAL_SURFACE('',#489,13.1);
#300=FACE_OUTER_BOUND('',#490,.T.);
#301=PLANE('',#491);
#302=FACE_OUTER_BOUND('',#492,.T.);
#303=PLANE('',#493);
#304=SURFACE_STYLE_FILL_AREA(#494);
#305=FACE_OUTER_BOUND('',#495,.T.);
#306=CYLINDRICAL_SURFACE('',#496,13.1);
#307=FACE_OUTER_BOUND('',#497,.T.);
#308=CYLINDRICAL_SURFACE('',#498,13.1);
#309=FACE_OUTER_BOUND('',#499,.T.);
#310=PLANE('',#500);
#311=FACE_OUTER_BOUND('',#501,.T.);
#312=PLANE('',#502);
#313=SURFACE_STYLE_FILL_AREA(#503);
#314=FACE_OUTER_BOUND('',#504,.T.);
#315=CYLINDRICAL_SURFACE('',#505,13.1);
#316=FACE_OUTER_BOUND('',#506,.T.);
#317=CYLINDRICAL_SURFACE('',#507,16.1);
#318=FACE_OUTER_BOUND('',#508,.T.);
#319=CYLINDRICAL_SURFACE('',#509,16.1);
#320=FACE_OUTER_BOUND('',#510,.T.);
#321=CYLINDRICAL_SURFACE('',#511,13.1);
#322=FACE_BOUND('',#512,.T.);
#323=FACE_OUTER_BOUND('',#513,.T.);
#324=PLANE('',#514);
#325=FACE_BOUND('',#515,.T.);
#326=FACE_OUTER_BOUND('',#516,.T.);
#327=PLANE('',#517);
#328=SURFACE_STYLE_FILL_AREA(#518);
#329=FACE_OUTER_BOUND('',#519,.T.);
#330=CYLINDRICAL_SURFACE('',#520,16.1);
#331=FACE_OUTER_BOUND('',#521,.T.);
#332=CYLINDRICAL_SURFACE('',#522,40.0);
#333=FACE_OUTER_BOUND('',#523,.T.);
#334=CYLINDRICAL_SURFACE('',#524,40.0);
#335=FACE_OUTER_BOUND('',#525,.T.);
#336=CYLINDRICAL_SURFACE('',#526,16.1);
#337=FACE_BOUND('',#527,.T.);
#338=FACE_OUTER_BOUND('',#528,.T.);
#339=PLANE('',#529);
#340=FACE_BOUND('',#530,.T.);
#341=FACE_OUTER_BOUND('',#531,.T.);
#342=PLANE('',#532);
#343=SURFACE_STYLE_FILL_AREA(#533);
#344=FACE_OUTER_BOUND('',#534,.T.);
#345=CYLINDRICAL_SURFACE('',#535,13.1);
#346=FACE_OUTER_BOUND('',#536,.T.);
#347=CYLINDRICAL_SURFACE('',#537,16.1);
#348=FACE_OUTER_BOUND('',#538,.T.);
#349=CYLINDRICAL_SURFACE('',#539,16.1);
#350=FACE_OUTER_BOUND('',#540,.T.);
#351=CYLINDRICAL_SURFACE('',#541,13.1);
#352=FACE_BOUND('',#542,.T.);
#353=FACE_OUTER_BOUND('',#543,.T.);
#354=PLANE('',#544);
#355=FACE_BOUND('',#545,.T.);
#356=FACE_OUTER_BOUND('',#546,.T.);
#357=PLANE('',#547);
#358=SURFACE_STYLE_FILL_AREA(#548);
#359=FACE_OUTER_BOUND('',#549,.T.);
#360=CYLINDRICAL_SURFACE('',#550,16.1);
#361=FACE_OUTER_BOUND('',#551,.T.);
#362=CYLINDRICAL_SURFACE('',#552,40.0);
#363=FACE_OUTER_BOUND('',#553,.T.);
#364=CYLINDRICAL_SURFACE('',#554,40.0);
#365=FACE_OUTER_BOUND('',#555,.T.);
#366=CYLINDRICAL_SURFACE('',#556,16.1);
#367=FACE_BOUND('',#557,.T.);
#368=FACE_OUTER_BOUND('',#558,.T.);
#369=PLANE('',#559);
#370=FACE_BOUND('',#560,.T.);
#371=FACE_OUTER_BOUND('',#561,.T.);
#372=PLANE('',#562);
#373=SURFACE_STYLE_FILL_AREA(#563);
#374=FACE_OUTER_BOUND('',#564,.T.);
#375=CYLINDRICAL_SURFACE('',#565,13.1);
#376=FACE_OUTER_BOUND('',#566,.T.);
#377=CYLINDRICAL_SURFACE('',#567,16.1);
#378=FACE_OUTER_BOUND('',#568,.T.);
#379=CYLINDRICAL_SURFACE('',#569,16.1);
#380=FACE_OUTER_BOUND('',#570,.T.);
#381=CYLINDRICAL_SURFACE('',#571,13.1);
#382=FACE_BOUND('',#572,.T.);
#383=FACE_OUTER_BOUND('',#573,.T.);
#384=PLANE('',#574);
#385=FACE_BOUND('',#575,.T.);
#386=FACE_OUTER_BOUND('',#576,.T.);
#387=PLANE('',#577);
#388=SURFACE_STYLE_FILL_AREA(#578);
#389=FACE_OUTER_BOUND('',#579,.T.);
#390=CYLINDRICAL_SURFACE('',#580,16.1);
#391=FACE_OUTER_BOUND('',#581,.T.);
#392=CYLINDRICAL_SURFACE('',#582,40.0);
#393=FACE_OUTER_BOUND('',#583,.T.);
#394=CYLINDRICAL_SURFACE('',#584,40.0);
#395=FACE_OUTER_BOUND('',#585,.T.);
#396=CYLINDRICAL_SURFACE('',#586,16.1);
#397=FACE_BOUND('',#587,.T.);
#398=FACE_OUTER_BOUND('',#588,.T.);
#399=PLANE('',#589);
#400=FACE_BOUND('',#590,.T.);
#401=FACE_OUTER_BOUND('',#591,.T.);
#402=PLANE('',#592);
#403=SURFACE_STYLE_FILL_AREA(#593);
#404=FACE_OUTER_BOUND('',#594,.T.);
#405=CYLINDRICAL_SURFACE('',#595,86.1880215351701);
#406=FACE_OUTER_BOUND('',#596,.T.);
#407=CYLINDRICAL_SURFACE('',#597,88.1880215351701);
#408=FACE_OUTER_BOUND('',#598,.T.);
#409=CYLINDRICAL_SURFACE('',#599,88.1880215351701);
#410=FACE_OUTER_BOUND('',#600,.T.);
#411=CYLINDRICAL_SURFACE('',#601,86.1880215351701);
#412=FACE_BOUND('',#602,.T.);
#413=FACE_OUTER_BOUND('',#603,.T.);
#414=PLANE('',#604);
#415=FACE_BOUND('',#605,.T.);
#416=FACE_OUTER_BOUND('',#606,.T.);
#417=PLANE('',#607);
#418=SURFACE_STYLE_FILL_AREA(#608);
#419=FACE_OUTER_BOUND('',#609,.T.);
#420=CYLINDRICAL_SURFACE('',#610,88.1880215351701);
#421=FACE_OUTER_BOUND('',#611,.T.);
#422=CYLINDRICAL_SURFACE('',#612,98.1880215351701);
#423=FACE_OUTER_BOUND('',#613,.T.);
#424=CYLINDRICAL_SURFACE('',#614,98.1880215351701);
#425=FACE_OUTER_BOUND('',#615,.T.);
#426=CYLINDRICAL_SURFACE('',#616,88.1880215351701);
#427=FACE_BOUND('',#617,.T.);
#428=FACE_OUTER_BOUND('',#618,.T.);
#429=PLANE('',#619);
#430=FACE_BOUND('',#620,.T.);
#431=FACE_OUTER_BOUND('',#621,.T.);
#432=PLANE('',#622);
#433=SURFACE_STYLE_FILL_AREA(#623);
#434=FACE_OUTER_BOUND('',#624,.T.);
#435=CYLINDRICAL_SURFACE('',#625,98.1880215351701);
#436=FACE_OUTER_BOUND('',#626,.T.);
#437=CYLINDRICAL_SURFACE('',#627,103.18802153517);
#438=FACE_OUTER_BOUND('',#628,.T.);
#439=CYLINDRICAL_SURFACE('',#629,103.18802153517);
#440=FACE_OUTER_BOUND('',#630,.T.);
#441=CYLINDRICAL_SURFACE('',#631,98.1880215351701);
#442=FACE_BOUND('',#632,.T.);
#443=FACE_OUTER_BOUND('',#633,.T.);
#444=PLANE('',#634);
#445=FACE_BOUND('',#635,.T.);
#446=FACE_OUTER_BOUND('',#636,.T.);
#447=PLANE('',#637);
#448=SURFACE_STYLE_FILL_AREA(#638);
#449=FACE_OUTER_BOUND('',#639,.T.);
#450=CYLINDRICAL_SURFACE('',#640,103.18802153517);
#451=FACE_OUTER_BOUND('',#641,.T.);
#452=CYLINDRICAL_SURFACE('',#642,111.18802153517);
#453=FACE_OUTER_BOUND('',#643,.T.);
#454=CYLINDRICAL_SURFACE('',#644,111.18802153517);
#455=FACE_OUTER_BOUND('',#645,.T.);
#456=CYLINDRICAL_SURFACE('',#646,103.18802153517);
#457=FACE_BOUND('',#647,.T.);
#458=FACE_OUTER_BOUND('',#648,.T.);
#459=PLANE('',#649);
#460=FACE_BOUND('',#650,.T.);
#461=FACE_OUTER_BOUND('',#651,.T.);
#462=PLANE('',#652);
#463=SURFACE_STYLE_FILL_AREA(#653);
#464=FACE_OUTER_BOUND('',#654,.T.);
#465=PLANE('',#655);
#466=FACE_OUTER_BOUND('',#656,.T.);
#467=PLANE('',#657);
#468=FACE_OUTER_BOUND('',#658,.T.);
#469=PLANE('',#659);
#470=FACE_OUTER_BOUND('',#660,.T.);
#471=PLANE('',#661);
#472=FACE_OUTER_BOUND('',#662,.T.);
#473=PLANE('',#663);
#474=FACE_OUTER_BOUND('',#664,.T.);
#475=PLANE('',#665);
#476=FILL_AREA_STYLE('',(#666));
#477=EDGE_LOOP('',(#667,#668,#669,#670));
#478=AXIS2_PLACEMENT_3D('',#671,#672,#673);
#479=EDGE_LOOP('',(#674,#675,#676,#677));
#480=AXIS2_PLACEMENT_3D('',#678,#679,#680);
#481=EDGE_LOOP('',(#681,#682));
#482=AXIS2_PLACEMENT_3D('',#683,#684,#685);
#483=EDGE_LOOP('',(#686,#687));
#484=AXIS2_PLACEMENT_3D('',#688,#689,#690);
#485=FILL_AREA_STYLE('',(#691));
#486=EDGE_LOOP('',(#692,#693,#694,#695));
#487=AXIS2_PLACEMENT_3D('',#696,#697,#698);
#488=EDGE_LOOP('',(#699,#700,#701,#702));
#489=AXIS2_PLACEMENT_3D('',#703,#704,#705);
#490=EDGE_LOOP('',(#706,#707));
#491=AXIS2_PLACEMENT_3D('',#708,#709,#710);
#492=EDGE_LOOP('',(#711,#712));
#493=AXIS2_PLACEMENT_3D('',#713,#714,#715);
#494=FILL_AREA_STYLE('',(#716));
#495=EDGE_LOOP('',(#717,#718,#719,#720));
#496=AXIS2_PLACEMENT_3D('',#721,#722,#723);
#497=EDGE_LOOP('',(#724,#725,#726,#727));
#498=AXIS2_PLACEMENT_3D('',#728,#729,#730);
#499=EDGE_LOOP('',(#731,#732));
#500=AXIS2_PLACEMENT_3D('',#733,#734,#735);
#501=EDGE_LOOP('',(#736,#737));
#502=AXIS2_PLACEMENT_3D('',#738,#739,#740);
#503=FILL_AREA_STYLE('',(#741));
#504=EDGE_LOOP('',(#742,#743,#744,#745));
#505=AXIS2_PLACEMENT_3D('',#746,#747,#748);
#506=EDGE_LOOP('',(#749,#750,#751,#752));
#507=AXIS2_PLACEMENT_3D('',#753,#754,#755);
#508=EDGE_LOOP('',(#756,#757,#758,#759));
#509=AXIS2_PLACEMENT_3D('',#760,#761,#762);
#510=EDGE_LOOP('',(#763,#764,#765,#766));
#511=AXIS2_PLACEMENT_3D('',#767,#768,#769);
#512=EDGE_LOOP('',(#770,#771));
#513=EDGE_LOOP('',(#772,#773));
#514=AXIS2_PLACEMENT_3D('',#774,#775,#776);
#515=EDGE_LOOP('',(#777,#778));
#516=EDGE_LOOP('',(#779,#780));
#517=AXIS2_PLACEMENT_3D('',#781,#782,#783);
#518=FILL_AREA_STYLE('',(#784));
#519=EDGE_LOOP('',(#785,#786,#787,#788));
#520=AXIS2_PLACEMENT_3D('',#789,#790,#791);
#521=EDGE_LOOP('',(#792,#793,#794,#795));
#522=AXIS2_PLACEMENT_3D('',#796,#797,#798);
#523=EDGE_LOOP('',(#799,#800,#801,#802));
#524=AXIS2_PLACEMENT_3D('',#803,#804,#805);
#525=EDGE_LOOP('',(#806,#807,#808,#809));
#526=AXIS2_PLACEMENT_3D('',#810,#811,#812);
#527=EDGE_LOOP('',(#813,#814));
#528=EDGE_LOOP('',(#815,#816));
#529=AXIS2_PLACEMENT_3D('',#817,#818,#819);
#530=EDGE_LOOP('',(#820,#821));
#531=EDGE_LOOP('',(#822,#823));
#532=AXIS2_PLACEMENT_3D('',#824,#825,#826);
#533=FILL_AREA_STYLE('',(#827));
#534=EDGE_LOOP('',(#828,#829,#830,#831));
#535=AXIS2_PLACEMENT_3D('',#832,#833,#834);
#536=EDGE_LOOP('',(#835,#836,#837,#838));
#537=AXIS2_PLACEMENT_3D('',#839,#840,#841);
#538=EDGE_LOOP('',(#842,#843,#844,#845));
#539=AXIS2_PLACEMENT_3D('',#846,#847,#848);
#540=EDGE_LOOP('',(#849,#850,#851,#852));
#541=AXIS2_PLACEMENT_3D('',#853,#854,#855);
#542=EDGE_LOOP('',(#856,#857));
#543=EDGE_LOOP('',(#858,#859));
#544=AXIS2_PLACEMENT_3D('',#860,#861,#862);
#545=EDGE_LOOP('',(#863,#864));
#546=EDGE_LOOP('',(#865,#866));
#547=AXIS2_PLACEMENT_3D('',#867,#868,#869);
#548=FILL_AREA_STYLE('',(#870));
#549=EDGE_LOOP('',(#871,#872,#873,#874));
#550=AXIS2_PLACEMENT_3D('',#875,#876,#877);
#551=EDGE_LOOP('',(#878,#879,#880,#881));
#552=AXIS2_PLACEMENT_3D('',#882,#883,#884);
#553=EDGE_LOOP('',(#885,#886,#887,#888));
#554=AXIS2_PLACEMENT_3D('',#889,#890,#891);
#555=EDGE_LOOP('',(#892,#893,#894,#895));
#556=AXIS2_PLACEMENT_3D('',#896,#897,#898);
#557=EDGE_LOOP('',(#899,#900));
#558=EDGE_LOOP('',(#901,#902));
#559=AXIS2_PLACEMENT_3D('',#903,#904,#905);
#560=EDGE_LOOP('',(#906,#907));
#561=EDGE_LOOP('',(#908,#909));
#562=AXIS2_PLACEMENT_3D('',#910,#911,#912);
#563=FILL_AREA_STYLE('',(#913));
#564=EDGE_LOOP('',(#914,#915,#916,#917));
#565=AXIS2_PLACEMENT_3D('',#918,#919,#920);
#566=EDGE_LOOP('',(#921,#922,#923,#924));
#567=AXIS2_PLACEMENT_3D('',#925,#926,#927);
#568=EDGE_LOOP('',(#928,#929,#930,#931));
#569=AXIS2_PLACEMENT_3D('',#932,#933,#934);
#570=EDGE_LOOP('',(#935,#936,#937,#938));
#571=AXIS2_PLACEMENT_3D('',#939,#940,#941);
#572=EDGE_LOOP('',(#942,#943));
#573=EDGE_LOOP('',(#944,#945));
#574=AXIS2_PLACEMENT_3D('',#946,#947,#948);
#575=EDGE_LOOP('',(#949,#950));
#576=EDGE_LOOP('',(#951,#952));
#577=AXIS2_PLACEMENT_3D('',#953,#954,#955);
#578=FILL_AREA_STYLE('',(#956));
#579=EDGE_LOOP('',(#957,#958,#959,#960));
#580=AXIS2_PLACEMENT_3D('',#961,#962,#963);
#581=EDGE_LOOP('',(#964,#965,#966,#967));
#582=AXIS2_PLACEMENT_3D('',#968,#969,#970);
#583=EDGE_LOOP('',(#971,#972,#973,#974));
#584=AXIS2_PLACEMENT_3D('',#975,#976,#977);
#585=EDGE_LOOP('',(#978,#979,#980,#981));
#586=AXIS2_PLACEMENT_3D('',#982,#983,#984);
#587=EDGE_LOOP('',(#985,#986));
#588=EDGE_LOOP('',(#987,#988));
#589=AXIS2_PLACEMENT_3D('',#989,#990,#991);
#590=EDGE_LOOP('',(#992,#993));
#591=EDGE_LOOP('',(#994,#995));
#592=AXIS2_PLACEMENT_3D('',#996,#997,#998);
#593=FILL_AREA_STYLE('',(#999));
#594=EDGE_LOOP('',(#1000,#1001,#1002,#1003));
#595=AXIS2_PLACEMENT_3D('',#1004,#1005,#1006);
#596=EDGE_LOOP('',(#1007,#1008,#1009,#1010));
#597=AXIS2_PLACEMENT_3D('',#1011,#1012,#1013);
#598=EDGE_LOOP('',(#1014,#1015,#1016,#1017));
#599=AXIS2_PLACEMENT_3D('',#1018,#1019,#1020);
#600=EDGE_LOOP('',(#1021,#1022,#1023,#1024));
#601=AXIS2_PLACEMENT_3D('',#1025,#1026,#1027);
#602=EDGE_LOOP('',(#1028,#1029));
#603=EDGE_LOOP('',(#1030,#1031));
#604=AXIS2_PLACEMENT_3D('',#1032,#1033,#1034);
#605=EDGE_LOOP('',(#1035,#1036));
#606=EDGE_LOOP('',(#1037,#1038));
#607=AXIS2_PLACEMENT_3D('',#1039,#1040,#1041);
#608=FILL_AREA_STYLE('',(#1042));
#609=EDGE_LOOP('',(#1043,#1044,#1045,#1046));
#610=AXIS2_PLACEMENT_3D('',#1047,#1048,#1049);
#611=EDGE_LOOP('',(#1050,#1051,#1052,#1053));
#612=AXIS2_PLACEMENT_3D('',#1054,#1055,#1056);
#613=EDGE_LOOP('',(#1057,#1058,#1059,#1060));
#614=AXIS2_PLACEMENT_3D('',#1061,#1062,#1063);
#615=EDGE_LOOP('',(#1064,#1065,#1066,#1067));
#616=AXIS2_PLACEMENT_3D('',#1068,#1069,#1070);
#617=EDGE_LOOP('',(#1071,#1072));
#618=EDGE_LOOP('',(#1073,#1074));
#619=AXIS2_PLACEMENT_3D('',#1075,#1076,#1077);
#620=EDGE_LOOP('',(#1078,#1079));
#621=EDGE_LOOP('',(#1080,#1081));
#622=AXIS2_PLACEMENT_3D('',#1082,#1083,#1084);
#623=FILL_AREA_STYLE('',(#1085));
#624=EDGE_LOOP('',(#1086,#1087,#1088,#1089));
#625=AXIS2_PLACEMENT_3D('',#1090,#1091,#1092);
#626=EDGE_LOOP('',(#1093,#1094,#1095,#1096));
#627=AXIS2_PLACEMENT_3D('',#1097,#1098,#1099);
#628=EDGE_LOOP('',(#1100,#1101,#1102,#1103));
#629=AXIS2_PLACEMENT_3D('',#1104,#1105,#1106);
#630=EDGE_LOOP('',(#1107,#1108,#1109,#1110));
#631=AXIS2_PLACEMENT_3D('',#1111,#1112,#1113);
#632=EDGE_LOOP('',(#1114,#1115));
#633=EDGE_LOOP('',(#1116,#1117));
#634=AXIS2_PLACEMENT_3D('',#1118,#1119,#1120);
#635=EDGE_LOOP('',(#1121,#1122));
#636=EDGE_LOOP('',(#1123,#1124));
#637=AXIS2_PLACEMENT_3D('',#1125,#1126,#1127);
#638=FILL_AREA_STYLE('',(#1128));
#639=EDGE_LOOP('',(#1129,#1130,#1131,#1132));
#640=AXIS2_PLACEMENT_3D('',#1133,#1134,#1135);
#641=EDGE_LOOP('',(#1136,#1137,#1138,#1139));
#642=AXIS2_PLACEMENT_3D('',#1140,#1141,#1142);
#643=EDGE_LOOP('',(#1143,#1144,#1145,#1146));
#644=AXIS2_PLACEMENT_3D('',#1147,#1148,#1149);
#645=EDGE_LOOP('',(#1150,#1151,#1152,#1153));
#646=AXIS2_PLACEMENT_3D('',#1154,#1155,#1156);
#647=EDGE_LOOP('',(#1157,#1158));
#648=EDGE_LOOP('',(#1159,#1160));
#649=AXIS2_PLACEMENT_3D('',#1161,#1162,#1163);
#650=EDGE_LOOP('',(#1164,#1165));
#651=EDGE_LOOP('',(#1166,#1167));
#652=AXIS2_PLACEMENT_3D('',#1168,#1169,#1170);
#653=FILL_AREA_STYLE('',(#1171));
#654=EDGE_LOOP('',(#1172,#1173,#1174,#1175));
#655=AXIS2_PLACEMENT_3D('',#1176,#1177,#1178);
#656=EDGE_LOOP('',(#1179,#1180,#1181,#1182));
#657=AXIS2_PLACEMENT_3D('',#1183,#1184,#1185);
#658=EDGE_LOOP('',(#1186,#1187,#1188,#1189));
#659=AXIS2_PLACEMENT_3D('',#1190,#1191,#1192);
#660=EDGE_LOOP('',(#1193,#1194,#1195,#1196));
#661=AXIS2_PLACEMENT_3D('',#1197,#1198,#1199);
#662=EDGE_LOOP('',(#1200,#1201,#1202,#1203));
#663=AXIS2_PLACEMENT_3D('',#1204,#1205,#1206);
#664=EDGE_LOOP('',(#1207,#1208,#1209,#1210));
#665=AXIS2_PLACEMENT_3D('',#1211,#1212,#1213);
#666=FILL_AREA_STYLE_COLOUR('',#1214);
#667=ORIENTED_EDGE('',*,*,#1215,.F.);
#668=ORIENTED_EDGE('',*,*,#1216,.T.);
#669=ORIENTED_EDGE('',*,*,#1217,.F.);
#670=ORIENTED_EDGE('',*,*,#1218,.T.);
#671=CARTESIAN_POINT('',(-23.094010767585,-40.0,0.0));
#672=DIRECTION('',(0.0,0.0,1.0));
#673=DIRECTION('',(-0.5,0.866025403784439,0.0));
#674=ORIENTED_EDGE('',*,*,#1215,.T.);
#675=ORIENTED_EDGE('',*,*,#1219,.T.);
#676=ORIENTED_EDGE('',*,*,#1217,.T.);
#677=ORIENTED_EDGE('',*,*,#1220,.T.);
#678=CARTESIAN_POINT('',(-23.094010767585,-40.0,0.0));
#679=DIRECTION('',(0.0,0.0,1.0));
#680=DIRECTION('',(-0.5,0.866025403784439,0.0));
#681=ORIENTED_EDGE('',*,*,#1219,.F.);
#682=ORIENTED_EDGE('',*,*,#1218,.F.);
#683=CARTESIAN_POINT('',(-23.094010767585,-40.0,2000.0));
#684=DIRECTION('',(0.0,0.0,1.0));
#685=DIRECTION('',(-0.5,0.866025403784439,0.0));
#686=ORIENTED_EDGE('',*,*,#1216,.F.);
#687=ORIENTED_EDGE('',*,*,#1220,.F.);
#688=CARTESIAN_POINT('',(-23.094010767585,-40.0,0.0));
#689=DIRECTION('',(0.0,0.0,1.0));
#690=DIRECTION('',(-0.5,0.866025403784439,0.0));
#691=FILL_AREA_STYLE_COLOUR('',#1221);
#692=ORIENTED_EDGE('',*,*,#1222,.F.);
#693=ORIENTED_EDGE('',*,*,#1223,.T.);
#694=ORIENTED_EDGE('',*,*,#1224,.F.);
#695=ORIENTED_EDGE('',*,*,#1225,.T.);
#696=CARTESIAN_POINT('',(46.1880215351701,0.0,0.0));
#697=DIRECTION('',(0.0,0.0,1.0));
#698=DIRECTION('',(1.0,0.0,0.0));
#699=ORIENTED_EDGE('',*,*,#1222,.T.);
#700=ORIENTED_EDGE('',*,*,#1226,.T.);
#701=ORIENTED_EDGE('',*,*,#1224,.T.);
#702=ORIENTED_EDGE('',*,*,#1227,.T.);
#703=CARTESIAN_POINT('',(46.1880215351701,0.0,0.0));
#704=DIRECTION('',(0.0,0.0,1.0));
#705=DIRECTION('',(1.0,0.0,0.0));
#706=ORIENTED_EDGE('',*,*,#1226,.F.);
#707=ORIENTED_EDGE('',*,*,#1225,.F.);
#708=CARTESIAN_POINT('',(46.1880215351701,0.0,2000.0));
#709=DIRECTION('',(0.0,0.0,1.0));
#710=DIRECTION('',(1.0,0.0,0.0));
#711=ORIENTED_EDGE('',*,*,#1223,.F.);
#712=ORIENTED_EDGE('',*,*,#1227,.F.);
#713=CARTESIAN_POINT('',(46.1880215351701,0.0,0.0));
#714=DIRECTION('',(0.0,0.0,1.0));
#715=DIRECTION('',(1.0,0.0,0.0));
#716=FILL_AREA_STYLE_COLOUR('',#1228);
#717=ORIENTED_EDGE('',*,*,#1229,.F.);
#718=ORIENTED_EDGE('',*,*,#1230,.T.);
#719=ORIENTED_EDGE('',*,*,#1231,.F.);
#720=ORIENTED_EDGE('',*,*,#1232,.T.);
#721=CARTESIAN_POINT('',(-23.094010767585,40.0,0.0));
#722=DIRECTION('',(0.0,0.0,1.0));
#723=DIRECTION('',(-0.5,-0.866025403784439,0.0));
#724=ORIENTED_EDGE('',*,*,#1229,.T.);
#725=ORIENTED_EDGE('',*,*,#1233,.T.);
#726=ORIENTED_EDGE('',*,*,#1231,.T.);
#727=ORIENTED_EDGE('',*,*,#1234,.T.);
#728=CARTESIAN_POINT('',(-23.094010767585,40.0,0.0));
#729=DIRECTION('',(0.0,0.0,1.0));
#730=DIRECTION('',(-0.5,-0.866025403784439,0.0));
#731=ORIENTED_EDGE('',*,*,#1233,.F.);
#732=ORIENTED_EDGE('',*,*,#1232,.F.);
#733=CARTESIAN_POINT('',(-23.094010767585,40.0,2000.0));
#734=DIRECTION('',(0.0,0.0,1.0));
#735=DIRECTION('',(-0.5,-0.866025403784439,0.0));
#736=ORIENTED_EDGE('',*,*,#1230,.F.);
#737=ORIENTED_EDGE('',*,*,#1234,.F.);
#738=CARTESIAN_POINT('',(-23.094010767585,40.0,0.0));
#739=DIRECTION('',(0.0,0.0,1.0));
#740=DIRECTION('',(-0.5,-0.866025403784439,0.0));
#741=FILL_AREA_STYLE_COLOUR('',#1235);
#742=ORIENTED_EDGE('',*,*,#1236,.F.);
#743=ORIENTED_EDGE('',*,*,#1237,.T.);
#744=ORIENTED_EDGE('',*,*,#1238,.F.);
#745=ORIENTED_EDGE('',*,*,#1239,.T.);
#746=CARTESIAN_POINT('',(46.1880215351701,0.0,0.0));
#747=DIRECTION('',(0.0,0.0,1.0));
#748=DIRECTION('',(1.0,0.0,0.0));
#749=ORIENTED_EDGE('',*,*,#1240,.F.);
#750=ORIENTED_EDGE('',*,*,#1241,.T.);
#751=ORIENTED_EDGE('',*,*,#1242,.F.);
#752=ORIENTED_EDGE('',*,*,#1243,.T.);
#753=CARTESIAN_POINT('',(46.1880215351701,0.0,0.0));
#754=DIRECTION('',(0.0,0.0,1.0));
#755=DIRECTION('',(1.0,0.0,0.0));
#756=ORIENTED_EDGE('',*,*,#1240,.T.);
#757=ORIENTED_EDGE('',*,*,#1244,.T.);
#758=ORIENTED_EDGE('',*,*,#1242,.T.);
#759=ORIENTED_EDGE('',*,*,#1245,.T.);
#760=CARTESIAN_POINT('',(46.1880215351701,0.0,0.0));
#761=DIRECTION('',(0.0,0.0,1.0));
#762=DIRECTION('',(1.0,0.0,0.0));
#763=ORIENTED_EDGE('',*,*,#1236,.T.);
#764=ORIENTED_EDGE('',*,*,#1246,.T.);
#765=ORIENTED_EDGE('',*,*,#1238,.T.);
#766=ORIENTED_EDGE('',*,*,#1247,.T.);
#767=CARTESIAN_POINT('',(46.1880215351701,0.0,0.0));
#768=DIRECTION('',(0.0,0.0,1.0));
#769=DIRECTION('',(1.0,0.0,0.0));
#770=ORIENTED_EDGE('',*,*,#1246,.F.);
#771=ORIENTED_EDGE('',*,*,#1239,.F.);
#772=ORIENTED_EDGE('',*,*,#1244,.F.);
#773=ORIENTED_EDGE('',*,*,#1243,.F.);
#774=CARTESIAN_POINT('',(46.1880215351701,0.0,2000.0));
#775=DIRECTION('',(0.0,0.0,1.0));
#776=DIRECTION('',(1.0,0.0,0.0));
#777=ORIENTED_EDGE('',*,*,#1237,.F.);
#778=ORIENTED_EDGE('',*,*,#1247,.F.);
#779=ORIENTED_EDGE('',*,*,#1241,.F.);
#780=ORIENTED_EDGE('',*,*,#1245,.F.);
#781=CARTESIAN_POINT('',(46.1880215351701,0.0,0.0));
#782=DIRECTION('',(0.0,0.0,1.0));
#783=DIRECTION('',(1.0,0.0,0.0));
#784=FILL_AREA_STYLE_COLOUR('',#1248);
#785=ORIENTED_EDGE('',*,*,#1249,.F.);
#786=ORIENTED_EDGE('',*,*,#1250,.T.);
#787=ORIENTED_EDGE('',*,*,#1251,.F.);
#788=ORIENTED_EDGE('',*,*,#1252,.T.);
#789=CARTESIAN_POINT('',(46.1880215351701,0.0,0.0));
#790=DIRECTION('',(0.0,0.0,1.0));
#791=DIRECTION('',(1.0,0.0,0.0));
#792=ORIENTED_EDGE('',*,*,#1253,.F.);
#793=ORIENTED_EDGE('',*,*,#1254,.T.);
#794=ORIENTED_EDGE('',*,*,#1255,.F.);
#795=ORIENTED_EDGE('',*,*,#1256,.T.);
#796=CARTESIAN_POINT('',(46.1880215351701,0.0,0.0));
#797=DIRECTION('',(0.0,0.0,1.0));
#798=DIRECTION('',(1.0,0.0,0.0));
#799=ORIENTED_EDGE('',*,*,#1253,.T.);
#800=ORIENTED_EDGE('',*,*,#1257,.T.);
#801=ORIENTED_EDGE('',*,*,#1255,.T.);
#802=ORIENTED_EDGE('',*,*,#1258,.T.);
#803=CARTESIAN_POINT('',(46.1880215351701,0.0,0.0));
#804=DIRECTION('',(0.0,0.0,1.0));
#805=DIRECTION('',(1.0,0.0,0.0));
#806=ORIENTED_EDGE('',*,*,#1249,.T.);
#807=ORIENTED_EDGE('',*,*,#1259,.T.);
#808=ORIENTED_EDGE('',*,*,#1251,.T.);
#809=ORIENTED_EDGE('',*,*,#1260,.T.);
#810=CARTESIAN_POINT('',(46.1880215351701,0.0,0.0));
#811=DIRECTION('',(0.0,0.0,1.0));
#812=DIRECTION('',(1.0,0.0,0.0));
#813=ORIENTED_EDGE('',*,*,#1259,.F.);
#814=ORIENTED_EDGE('',*,*,#1252,.F.);
#815=ORIENTED_EDGE('',*,*,#1257,.F.);
#816=ORIENTED_EDGE('',*,*,#1256,.F.);
#817=CARTESIAN_POINT('',(46.1880215351701,0.0,2000.0));
#818=DIRECTION('',(0.0,0.0,1.0));
#819=DIRECTION('',(1.0,0.0,0.0));
#820=ORIENTED_EDGE('',*,*,#1250,.F.);
#821=ORIENTED_EDGE('',*,*,#1260,.F.);
#822=ORIENTED_EDGE('',*,*,#1254,.F.);
#823=ORIENTED_EDGE('',*,*,#1258,.F.);
#824=CARTESIAN_POINT('',(46.1880215351701,0.0,0.0));
#825=DIRECTION('',(0.0,0.0,1.0));
#826=DIRECTION('',(1.0,0.0,0.0));
#827=FILL_AREA_STYLE_COLOUR('',#1261);
#828=ORIENTED_EDGE('',*,*,#1262,.F.);
#829=ORIENTED_EDGE('',*,*,#1263,.T.);
#830=ORIENTED_EDGE('',*,*,#1264,.F.);
#831=ORIENTED_EDGE('',*,*,#1265,.T.);
#832=CARTESIAN_POINT('',(-23.094010767585,40.0,0.0));
#833=DIRECTION('',(0.0,0.0,1.0));
#834=DIRECTION('',(-0.5,0.866025403784439,0.0));
#835=ORIENTED_EDGE('',*,*,#1266,.F.);
#836=ORIENTED_EDGE('',*,*,#1267,.T.);
#837=ORIENTED_EDGE('',*,*,#1268,.F.);
#838=ORIENTED_EDGE('',*,*,#1269,.T.);
#839=CARTESIAN_POINT('',(-23.094010767585,40.0,0.0));
#840=DIRECTION('',(0.0,0.0,1.0));
#841=DIRECTION('',(-0.5,0.866025403784439,0.0));
#842=ORIENTED_EDGE('',*,*,#1266,.T.);
#843=ORIENTED_EDGE('',*,*,#1270,.T.);
#844=ORIENTED_EDGE('',*,*,#1268,.T.);
#845=ORIENTED_EDGE('',*,*,#1271,.T.);
#846=CARTESIAN_POINT('',(-23.094010767585,40.0,0.0));
#847=DIRECTION('',(0.0,0.0,1.0));
#848=DIRECTION('',(-0.5,0.866025403784439,0.0));
#849=ORIENTED_EDGE('',*,*,#1262,.T.);
#850=ORIENTED_EDGE('',*,*,#1272,.T.);
#851=ORIENTED_EDGE('',*,*,#1264,.T.);
#852=ORIENTED_EDGE('',*,*,#1273,.T.);
#853=CARTESIAN_POINT('',(-23.094010767585,40.0,0.0));
#854=DIRECTION('',(0.0,0.0,1.0));
#855=DIRECTION('',(-0.5,0.866025403784439,0.0));
#856=ORIENTED_EDGE('',*,*,#1272,.F.);
#857=ORIENTED_EDGE('',*,*,#1265,.F.);
#858=ORIENTED_EDGE('',*,*,#1270,.F.);
#859=ORIENTED_EDGE('',*,*,#1269,.F.);
#860=CARTESIAN_POINT('',(-23.094010767585,40.0,2000.0));
#861=DIRECTION('',(0.0,0.0,1.0));
#862=DIRECTION('',(-0.5,0.866025403784439,0.0));
#863=ORIENTED_EDGE('',*,*,#1263,.F.);
#864=ORIENTED_EDGE('',*,*,#1273,.F.);
#865=ORIENTED_EDGE('',*,*,#1267,.F.);
#866=ORIENTED_EDGE('',*,*,#1271,.F.);
#867=CARTESIAN_POINT('',(-23.094010767585,40.0,0.0));
#868=DIRECTION('',(0.0,0.0,1.0));
#869=DIRECTION('',(-0.5,0.866025403784439,0.0));
#870=FILL_AREA_STYLE_COLOUR('',#1274);
#871=ORIENTED_EDGE('',*,*,#1275,.F.);
#872=ORIENTED_EDGE('',*,*,#1276,.T.);
#873=ORIENTED_EDGE('',*,*,#1277,.F.);
#874=ORIENTED_EDGE('',*,*,#1278,.T.);
#875=CARTESIAN_POINT('',(-23.094010767585,40.0,0.0));
#876=DIRECTION('',(0.0,0.0,1.0));
#877=DIRECTION('',(-0.5,0.866025403784439,0.0));
#878=ORIENTED_EDGE('',*,*,#1279,.F.);
#879=ORIENTED_EDGE('',*,*,#1280,.T.);
#880=ORIENTED_EDGE('',*,*,#1281,.F.);
#881=ORIENTED_EDGE('',*,*,#1282,.T.);
#882=CARTESIAN_POINT('',(-23.094010767585,40.0,0.0));
#883=DIRECTION('',(0.0,0.0,1.0));
#884=DIRECTION('',(-0.5,0.866025403784439,0.0));
#885=ORIENTED_EDGE('',*,*,#1279,.T.);
#886=ORIENTED_EDGE('',*,*,#1283,.T.);
#887=ORIENTED_EDGE('',*,*,#1281,.T.);
#888=ORIENTED_EDGE('',*,*,#1284,.T.);
#889=CARTESIAN_POINT('',(-23.094010767585,40.0,0.0));
#890=DIRECTION('',(0.0,0.0,1.0));
#891=DIRECTION('',(-0.5,0.866025403784439,0.0));
#892=ORIENTED_EDGE('',*,*,#1275,.T.);
#893=ORIENTED_EDGE('',*,*,#1285,.T.);
#894=ORIENTED_EDGE('',*,*,#1277,.T.);
#895=ORIENTED_EDGE('',*,*,#1286,.T.);
#896=CARTESIAN_POINT('',(-23.094010767585,40.0,0.0));
#897=DIRECTION('',(0.0,0.0,1.0));
#898=DIRECTION('',(-0.5,0.866025403784439,0.0));
#899=ORIENTED_EDGE('',*,*,#1285,.F.);
#900=ORIENTED_EDGE('',*,*,#1278,.F.);
#901=ORIENTED_EDGE('',*,*,#1283,.F.);
#902=ORIENTED_EDGE('',*,*,#1282,.F.);
#903=CARTESIAN_POINT('',(-23.094010767585,40.0,2000.0));
#904=DIRECTION('',(0.0,0.0,1.0));
#905=DIRECTION('',(-0.5,0.866025403784439,0.0));
#906=ORIENTED_EDGE('',*,*,#1276,.F.);
#907=ORIENTED_EDGE('',*,*,#1286,.F.);
#908=ORIENTED_EDGE('',*,*,#1280,.F.);
#909=ORIENTED_EDGE('',*,*,#1284,.F.);
#910=CARTESIAN_POINT('',(-23.094010767585,40.0,0.0));
#911=DIRECTION('',(0.0,0.0,1.0));
#912=DIRECTION('',(-0.5,0.866025403784439,0.0));
#913=FILL_AREA_STYLE_COLOUR('',#1287);
#914=ORIENTED_EDGE('',*,*,#1288,.F.);
#915=ORIENTED_EDGE('',*,*,#1289,.T.);
#916=ORIENTED_EDGE('',*,*,#1290,.F.);
#917=ORIENTED_EDGE('',*,*,#1291,.T.);
#918=CARTESIAN_POINT('',(-23.0940107675851,-40.0,0.0));
#919=DIRECTION('',(0.0,0.0,1.0));
#920=DIRECTION('',(-0.5,-0.866025403784438,0.0));
#921=ORIENTED_EDGE('',*,*,#1292,.F.);
#922=ORIENTED_EDGE('',*,*,#1293,.T.);
#923=ORIENTED_EDGE('',*,*,#1294,.F.);
#924=ORIENTED_EDGE('',*,*,#1295,.T.);
#925=CARTESIAN_POINT('',(-23.0940107675851,-40.0,0.0));
#926=DIRECTION('',(0.0,0.0,1.0));
#927=DIRECTION('',(-0.5,-0.866025403784438,0.0));
#928=ORIENTED_EDGE('',*,*,#1292,.T.);
#929=ORIENTED_EDGE('',*,*,#1296,.T.);
#930=ORIENTED_EDGE('',*,*,#1294,.T.);
#931=ORIENTED_EDGE('',*,*,#1297,.T.);
#932=CARTESIAN_POINT('',(-23.0940107675851,-40.0,0.0));
#933=DIRECTION('',(0.0,0.0,1.0));
#934=DIRECTION('',(-0.5,-0.866025403784438,0.0));
#935=ORIENTED_EDGE('',*,*,#1288,.T.);
#936=ORIENTED_EDGE('',*,*,#1298,.T.);
#937=ORIENTED_EDGE('',*,*,#1290,.T.);
#938=ORIENTED_EDGE('',*,*,#1299,.T.);
#939=CARTESIAN_POINT('',(-23.0940107675851,-40.0,0.0));
#940=DIRECTION('',(0.0,0.0,1.0));
#941=DIRECTION('',(-0.5,-0.866025403784438,0.0));
#942=ORIENTED_EDGE('',*,*,#1298,.F.);
#943=ORIENTED_EDGE('',*,*,#1291,.F.);
#944=ORIENTED_EDGE('',*,*,#1296,.F.);
#945=ORIENTED_EDGE('',*,*,#1295,.F.);
#946=CARTESIAN_POINT('',(-23.0940107675851,-40.0,2000.0));
#947=DIRECTION('',(0.0,0.0,1.0));
#948=DIRECTION('',(-0.5,-0.866025403784438,0.0));
#949=ORIENTED_EDGE('',*,*,#1289,.F.);
#950=ORIENTED_EDGE('',*,*,#1299,.F.);
#951=ORIENTED_EDGE('',*,*,#1293,.F.);
#952=ORIENTED_EDGE('',*,*,#1297,.F.);
#953=CARTESIAN_POINT('',(-23.0940107675851,-40.0,0.0));
#954=DIRECTION('',(0.0,0.0,1.0));
#955=DIRECTION('',(-0.5,-0.866025403784438,0.0));
#956=FILL_AREA_STYLE_COLOUR('',#1300);
#957=ORIENTED_EDGE('',*,*,#1301,.F.);
#958=ORIENTED_EDGE('',*,*,#1302,.T.);
#959=ORIENTED_EDGE('',*,*,#1303,.F.);
#960=ORIENTED_EDGE('',*,*,#1304,.T.);
#961=CARTESIAN_POINT('',(-23.0940107675851,-40.0,0.0));
#962=DIRECTION('',(0.0,0.0,1.0));
#963=DIRECTION('',(-0.5,-0.866025403784438,0.0));
#964=ORIENTED_EDGE('',*,*,#1305,.F.);
#965=ORIENTED_EDGE('',*,*,#1306,.T.);
#966=ORIENTED_EDGE('',*,*,#1307,.F.);
#967=ORIENTED_EDGE('',*,*,#1308,.T.);
#968=CARTESIAN_POINT('',(-23.0940107675851,-40.0,0.0));
#969=DIRECTION('',(0.0,0.0,1.0));
#970=DIRECTION('',(-0.5,-0.866025403784438,0.0));
#971=ORIENTED_EDGE('',*,*,#1305,.T.);
#972=ORIENTED_EDGE('',*,*,#1309,.T.);
#973=ORIENTED_EDGE('',*,*,#1307,.T.);
#974=ORIENTED_EDGE('',*,*,#1310,.T.);
#975=CARTESIAN_POINT('',(-23.0940107675851,-40.0,0.0));
#976=DIRECTION('',(0.0,0.0,1.0));
#977=DIRECTION('',(-0.5,-0.866025403784438,0.0));
#978=ORIENTED_EDGE('',*,*,#1301,.T.);
#979=ORIENTED_EDGE('',*,*,#1311,.T.);
#980=ORIENTED_EDGE('',*,*,#1303,.T.);
#981=ORIENTED_EDGE('',*,*,#1312,.T.);
#982=CARTESIAN_POINT('',(-23.0940107675851,-40.0,0.0));
#983=DIRECTION('',(0.0,0.0,1.0));
#984=DIRECTION('',(-0.5,-0.866025403784438,0.0));
#985=ORIENTED_EDGE('',*,*,#1311,.F.);
#986=ORIENTED_EDGE('',*,*,#1304,.F.);
#987=ORIENTED_EDGE('',*,*,#1309,.F.);
#988=ORIENTED_EDGE('',*,*,#1308,.F.);
#989=CARTESIAN_POINT('',(-23.0940107675851,-40.0,2000.0));
#990=DIRECTION('',(0.0,0.0,1.0));
#991=DIRECTION('',(-0.5,-0.866025403784438,0.0));
#992=ORIENTED_EDGE('',*,*,#1302,.F.);
#993=ORIENTED_EDGE('',*,*,#1312,.F.);
#994=ORIENTED_EDGE('',*,*,#1306,.F.);
#995=ORIENTED_EDGE('',*,*,#1310,.F.);
#996=CARTESIAN_POINT('',(-23.0940107675851,-40.0,0.0));
#997=DIRECTION('',(0.0,0.0,1.0));
#998=DIRECTION('',(-0.5,-0.866025403784438,0.0));
#999=FILL_AREA_STYLE_COLOUR('',#1313);
#1000=ORIENTED_EDGE('',*,*,#1314,.F.);
#1001=ORIENTED_EDGE('',*,*,#1315,.T.);
#1002=ORIENTED_EDGE('',*,*,#1316,.F.);
#1003=ORIENTED_EDGE('',*,*,#1317,.T.);
#1004=CARTESIAN_POINT('',(0.0,0.0,0.0));
#1005=DIRECTION('',(0.0,0.0,1.0));
#1006=DIRECTION('',(1.0,0.0,0.0));
#1007=ORIENTED_EDGE('',*,*,#1318,.F.);
#1008=ORIENTED_EDGE('',*,*,#1319,.T.);
#1009=ORIENTED_EDGE('',*,*,#1320,.F.);
#1010=ORIENTED_EDGE('',*,*,#1321,.T.);
#1011=CARTESIAN_POINT('',(0.0,0.0,0.0));
#1012=DIRECTION('',(0.0,0.0,1.0));
#1013=DIRECTION('',(1.0,0.0,0.0));
#1014=ORIENTED_EDGE('',*,*,#1318,.T.);
#1015=ORIENTED_EDGE('',*,*,#1322,.T.);
#1016=ORIENTED_EDGE('',*,*,#1320,.T.);
#1017=ORIENTED_EDGE('',*,*,#1323,.T.);
#1018=CARTESIAN_POINT('',(0.0,0.0,0.0));
#1019=DIRECTION('',(0.0,0.0,1.0));
#1020=DIRECTION('',(1.0,0.0,0.0));
#1021=ORIENTED_EDGE('',*,*,#1314,.T.);
#1022=ORIENTED_EDGE('',*,*,#1324,.T.);
#1023=ORIENTED_EDGE('',*,*,#1316,.T.);
#1024=ORIENTED_EDGE('',*,*,#1325,.T.);
#1025=CARTESIAN_POINT('',(0.0,0.0,0.0));
#1026=DIRECTION('',(0.0,0.0,1.0));
#1027=DIRECTION('',(1.0,0.0,0.0));
#1028=ORIENTED_EDGE('',*,*,#1324,.F.);
#1029=ORIENTED_EDGE('',*,*,#1317,.F.);
#1030=ORIENTED_EDGE('',*,*,#1322,.F.);
#1031=ORIENTED_EDGE('',*,*,#1321,.F.);
#1032=CARTESIAN_POINT('',(0.0,0.0,2000.0));
#1033=DIRECTION('',(0.0,0.0,1.0));
#1034=DIRECTION('',(1.0,0.0,0.0));
#1035=ORIENTED_EDGE('',*,*,#1315,.F.);
#1036=ORIENTED_EDGE('',*,*,#1325,.F.);
#1037=ORIENTED_EDGE('',*,*,#1319,.F.);
#1038=ORIENTED_EDGE('',*,*,#1323,.F.);
#1039=CARTESIAN_POINT('',(0.0,0.0,0.0));
#1040=DIRECTION('',(0.0,0.0,1.0));
#1041=DIRECTION('',(1.0,0.0,0.0));
#1042=FILL_AREA_STYLE_COLOUR('',#1326);
#1043=ORIENTED_EDGE('',*,*,#1327,.F.);
#1044=ORIENTED_EDGE('',*,*,#1328,.T.);
#1045=ORIENTED_EDGE('',*,*,#1329,.F.);
#1046=ORIENTED_EDGE('',*,*,#1330,.T.);
#1047=CARTESIAN_POINT('',(0.0,0.0,0.0));
#1048=DIRECTION('',(0.0,0.0,1.0));
#1049=DIRECTION('',(1.0,0.0,0.0));
#1050=ORIENTED_EDGE('',*,*,#1331,.F.);
#1051=ORIENTED_EDGE('',*,*,#1332,.T.);
#1052=ORIENTED_EDGE('',*,*,#1333,.F.);
#1053=ORIENTED_EDGE('',*,*,#1334,.T.);
#1054=CARTESIAN_POINT('',(0.0,0.0,0.0));
#1055=DIRECTION('',(0.0,0.0,1.0));
#1056=DIRECTION('',(1.0,0.0,0.0));
#1057=ORIENTED_EDGE('',*,*,#1331,.T.);
#1058=ORIENTED_EDGE('',*,*,#1335,.T.);
#1059=ORIENTED_EDGE('',*,*,#1333,.T.);
#1060=ORIENTED_EDGE('',*,*,#1336,.T.);
#1061=CARTESIAN_POINT('',(0.0,0.0,0.0));
#1062=DIRECTION('',(0.0,0.0,1.0));
#1063=DIRECTION('',(1.0,0.0,0.0));
#1064=ORIENTED_EDGE('',*,*,#1327,.T.);
#1065=ORIENTED_EDGE('',*,*,#1337,.T.);
#1066=ORIENTED_EDGE('',*,*,#1329,.T.);
#1067=ORIENTED_EDGE('',*,*,#1338,.T.);
#1068=CARTESIAN_POINT('',(0.0,0.0,0.0));
#1069=DIRECTION('',(0.0,0.0,1.0));
#1070=DIRECTION('',(1.0,0.0,0.0));
#1071=ORIENTED_EDGE('',*,*,#1337,.F.);
#1072=ORIENTED_EDGE('',*,*,#1330,.F.);
#1073=ORIENTED_EDGE('',*,*,#1335,.F.);
#1074=ORIENTED_EDGE('',*,*,#1334,.F.);
#1075=CARTESIAN_POINT('',(0.0,0.0,2000.0));
#1076=DIRECTION('',(0.0,0.0,1.0));
#1077=DIRECTION('',(1.0,0.0,0.0));
#1078=ORIENTED_EDGE('',*,*,#1328,.F.);
#1079=ORIENTED_EDGE('',*,*,#1338,.F.);
#1080=ORIENTED_EDGE('',*,*,#1332,.F.);
#1081=ORIENTED_EDGE('',*,*,#1336,.F.);
#1082=CARTESIAN_POINT('',(0.0,0.0,0.0));
#1083=DIRECTION('',(0.0,0.0,1.0));
#1084=DIRECTION('',(1.0,0.0,0.0));
#1085=FILL_AREA_STYLE_COLOUR('',#1339);
#1086=ORIENTED_EDGE('',*,*,#1340,.F.);
#1087=ORIENTED_EDGE('',*,*,#1341,.T.);
#1088=ORIENTED_EDGE('',*,*,#1342,.F.);
#1089=ORIENTED_EDGE('',*,*,#1343,.T.);
#1090=CARTESIAN_POINT('',(0.0,0.0,0.0));
#1091=DIRECTION('',(0.0,0.0,1.0));
#1092=DIRECTION('',(1.0,0.0,0.0));
#1093=ORIENTED_EDGE('',*,*,#1344,.F.);
#1094=ORIENTED_EDGE('',*,*,#1345,.T.);
#1095=ORIENTED_EDGE('',*,*,#1346,.F.);
#1096=ORIENTED_EDGE('',*,*,#1347,.T.);
#1097=CARTESIAN_POINT('',(0.0,0.0,0.0));
#1098=DIRECTION('',(0.0,0.0,1.0));
#1099=DIRECTION('',(1.0,0.0,0.0));
#1100=ORIENTED_EDGE('',*,*,#1344,.T.);
#1101=ORIENTED_EDGE('',*,*,#1348,.T.);
#1102=ORIENTED_EDGE('',*,*,#1346,.T.);
#1103=ORIENTED_EDGE('',*,*,#1349,.T.);
#1104=CARTESIAN_POINT('',(0.0,0.0,0.0));
#1105=DIRECTION('',(0.0,0.0,1.0));
#1106=DIRECTION('',(1.0,0.0,0.0));
#1107=ORIENTED_EDGE('',*,*,#1340,.T.);
#1108=ORIENTED_EDGE('',*,*,#1350,.T.);
#1109=ORIENTED_EDGE('',*,*,#1342,.T.);
#1110=ORIENTED_EDGE('',*,*,#1351,.T.);
#1111=CARTESIAN_POINT('',(0.0,0.0,0.0));
#1112=DIRECTION('',(0.0,0.0,1.0));
#1113=DIRECTION('',(1.0,0.0,0.0));
#1114=ORIENTED_EDGE('',*,*,#1350,.F.);
#1115=ORIENTED_EDGE('',*,*,#1343,.F.);
#1116=ORIENTED_EDGE('',*,*,#1348,.F.);
#1117=ORIENTED_EDGE('',*,*,#1347,.F.);
#1118=CARTESIAN_POINT('',(0.0,0.0,2000.0));
#1119=DIRECTION('',(0.0,0.0,1.0));
#1120=DIRECTION('',(1.0,0.0,0.0));
#1121=ORIENTED_EDGE('',*,*,#1341,.F.);
#1122=ORIENTED_EDGE('',*,*,#1351,.F.);
#1123=ORIENTED_EDGE('',*,*,#1345,.F.);
#1124=ORIENTED_EDGE('',*,*,#1349,.F.);
#1125=CARTESIAN_POINT('',(0.0,0.0,0.0));
#1126=DIRECTION('',(0.0,0.0,1.0));
#1127=DIRECTION('',(1.0,0.0,0.0));
#1128=FILL_AREA_STYLE_COLOUR('',#1352);
#1129=ORIENTED_EDGE('',*,*,#1353,.F.);
#1130=ORIENTED_EDGE('',*,*,#1354,.T.);
#1131=ORIENTED_EDGE('',*,*,#1355,.F.);
#1132=ORIENTED_EDGE('',*,*,#1356,.T.);
#1133=CARTESIAN_POINT('',(0.0,0.0,0.0));
#1134=DIRECTION('',(0.0,0.0,1.0));
#1135=DIRECTION('',(1.0,0.0,0.0));
#1136=ORIENTED_EDGE('',*,*,#1357,.F.);
#1137=ORIENTED_EDGE('',*,*,#1358,.T.);
#1138=ORIENTED_EDGE('',*,*,#1359,.F.);
#1139=ORIENTED_EDGE('',*,*,#1360,.T.);
#1140=CARTESIAN_POINT('',(0.0,0.0,0.0));
#1141=DIRECTION('',(0.0,0.0,1.0));
#1142=DIRECTION('',(1.0,0.0,0.0));
#1143=ORIENTED_EDGE('',*,*,#1357,.T.);
#1144=ORIENTED_EDGE('',*,*,#1361,.T.);
#1145=ORIENTED_EDGE('',*,*,#1359,.T.);
#1146=ORIENTED_EDGE('',*,*,#1362,.T.);
#1147=CARTESIAN_POINT('',(0.0,0.0,0.0));
#1148=DIRECTION('',(0.0,0.0,1.0));
#1149=DIRECTION('',(1.0,0.0,0.0));
#1150=ORIENTED_EDGE('',*,*,#1353,.T.);
#1151=ORIENTED_EDGE('',*,*,#1363,.T.);
#1152=ORIENTED_EDGE('',*,*,#1355,.T.);
#1153=ORIENTED_EDGE('',*,*,#1364,.T.);
#1154=CARTESIAN_POINT('',(0.0,0.0,0.0));
#1155=DIRECTION('',(0.0,0.0,1.0));
#1156=DIRECTION('',(1.0,0.0,0.0));
#1157=ORIENTED_EDGE('',*,*,#1363,.F.);
#1158=ORIENTED_EDGE('',*,*,#1356,.F.);
#1159=ORIENTED_EDGE('',*,*,#1361,.F.);
#1160=ORIENTED_EDGE('',*,*,#1360,.F.);
#1161=CARTESIAN_POINT('',(0.0,0.0,2000.0));
#1162=DIRECTION('',(0.0,0.0,1.0));
#1163=DIRECTION('',(1.0,0.0,0.0));
#1164=ORIENTED_EDGE('',*,*,#1354,.F.);
#1165=ORIENTED_EDGE('',*,*,#1364,.F.);
#1166=ORIENTED_EDGE('',*,*,#1358,.F.);
#1167=ORIENTED_EDGE('',*,*,#1362,.F.);
#1168=CARTESIAN_POINT('',(0.0,0.0,0.0));
#1169=DIRECTION('',(0.0,0.0,1.0));
#1170=DIRECTION('',(1.0,0.0,0.0));
#1171=FILL_AREA_STYLE_COLOUR('',#1365);
#1172=ORIENTED_EDGE('',*,*,#1366,.T.);
#1173=ORIENTED_EDGE('',*,*,#1367,.F.);
#1174=ORIENTED_EDGE('',*,*,#1368,.F.);
#1175=ORIENTED_EDGE('',*,*,#1369,.T.);
#1176=CARTESIAN_POINT('',(140.0,-10.0,0.0));
#1177=DIRECTION('',(1.0,0.0,-0.0));
#1178=DIRECTION('',(-0.0,1.0,0.0));
#1179=ORIENTED_EDGE('',*,*,#1370,.T.);
#1180=ORIENTED_EDGE('',*,*,#1371,.F.);
#1181=ORIENTED_EDGE('',*,*,#1372,.F.);
#1182=ORIENTED_EDGE('',*,*,#1367,.T.);
#1183=CARTESIAN_POINT('',(0.0,-140.0,0.0));
#1184=DIRECTION('',(0.0,-1.0,0.0));
#1185=DIRECTION('',(1.0,0.0,-0.0));
#1186=ORIENTED_EDGE('',*,*,#1373,.T.);
#1187=ORIENTED_EDGE('',*,*,#1374,.F.);
#1188=ORIENTED_EDGE('',*,*,#1375,.F.);
#1189=ORIENTED_EDGE('',*,*,#1371,.T.);
#1190=CARTESIAN_POINT('',(-140.0,-10.0,0.0));
#1191=DIRECTION('',(-1.0,-0.0,0.0));
#1192=DIRECTION('',(0.0,-1.0,-0.0));
#1193=ORIENTED_EDGE('',*,*,#1376,.T.);
#1194=ORIENTED_EDGE('',*,*,#1369,.F.);
#1195=ORIENTED_EDGE('',*,*,#1377,.F.);
#1196=ORIENTED_EDGE('',*,*,#1374,.T.);
#1197=CARTESIAN_POINT('',(0.0,120.0,0.0));
#1198=DIRECTION('',(0.0,1.0,0.0));
#1199=DIRECTION('',(-1.0,0.0,0.0));
#1200=ORIENTED_EDGE('',*,*,#1366,.F.);
#1201=ORIENTED_EDGE('',*,*,#1376,.F.);
#1202=ORIENTED_EDGE('',*,*,#1373,.F.);
#1203=ORIENTED_EDGE('',*,*,#1370,.F.);
#1204=CARTESIAN_POINT('',(0.0,-10.0,2000.0));
#1205=DIRECTION('',(0.0,0.0,1.0));
#1206=DIRECTION('',(1.0,0.0,0.0));
#1207=ORIENTED_EDGE('',*,*,#1377,.T.);
#1208=ORIENTED_EDGE('',*,*,#1368,.T.);
#1209=ORIENTED_EDGE('',*,*,#1372,.T.);
#1210=ORIENTED_EDGE('',*,*,#1375,.T.);
#1211=CARTESIAN_POINT('',(0.0,-10.0,0.0));
#1212=DIRECTION('',(0.0,0.0,1.0));
#1213=DIRECTION('',(1.0,0.0,0.0));
#1214=COLOUR_RGB('',1.0,0.501960813999176,0.250980406999588);
#1215=EDGE_CURVE('',#1378,#1379,#1380,.T.);
#1216=EDGE_CURVE('',#1378,#1381,#1382,.T.);
#1217=EDGE_CURVE('',#1383,#1381,#1384,.T.);
#1218=EDGE_CURVE('',#1383,#1379,#1385,.T.);
#1219=EDGE_CURVE('',#1379,#1383,#1386,.T.);
#1220=EDGE_CURVE('',#1381,#1378,#1387,.T.);
#1221=COLOUR_RGB('',1.0,0.501960813999176,0.250980406999588);
#1222=EDGE_CURVE('',#1388,#1389,#1390,.T.);
#1223=EDGE_CURVE('',#1388,#1391,#1392,.T.);
#1224=EDGE_CURVE('',#1393,#1391,#1394,.T.);
#1225=EDGE_CURVE('',#1393,#1389,#1395,.T.);
#1226=EDGE_CURVE('',#1389,#1393,#1396,.T.);
#1227=EDGE_CURVE('',#1391,#1388,#1397,.T.);
#1228=COLOUR_RGB('',1.0,0.501960813999176,0.250980406999588);
#1229=EDGE_CURVE('',#1398,#1399,#1400,.T.);
#1230=EDGE_CURVE('',#1398,#1401,#1402,.T.);
#1231=EDGE_CURVE('',#1403,#1401,#1404,.T.);
#1232=EDGE_CURVE('',#1403,#1399,#1405,.T.);
#1233=EDGE_CURVE('',#1399,#1403,#1406,.T.);
#1234=EDGE_CURVE('',#1401,#1398,#1407,.T.);
#1235=COLOUR_RGB('',1.0,1.0,0.0);
#1236=EDGE_CURVE('',#1408,#1409,#1410,.T.);
#1237=EDGE_CURVE('',#1408,#1411,#1412,.T.);
#1238=EDGE_CURVE('',#1413,#1411,#1414,.T.);
#1239=EDGE_CURVE('',#1413,#1409,#1415,.T.);
#1240=EDGE_CURVE('',#1416,#1417,#1418,.T.);
#1241=EDGE_CURVE('',#1416,#1419,#1420,.T.);
#1242=EDGE_CURVE('',#1421,#1419,#1422,.T.);
#1243=EDGE_CURVE('',#1421,#1417,#1423,.T.);
#1244=EDGE_CURVE('',#1417,#1421,#1424,.T.);
#1245=EDGE_CURVE('',#1419,#1416,#1425,.T.);
#1246=EDGE_CURVE('',#1409,#1413,#1426,.T.);
#1247=EDGE_CURVE('',#1411,#1408,#1427,.T.);
#1248=COLOUR_RGB('',0.501960813999176,1.0,1.0);
#1249=EDGE_CURVE('',#1428,#1429,#1430,.T.);
#1250=EDGE_CURVE('',#1428,#1431,#1432,.T.);
#1251=EDGE_CURVE('',#1433,#1431,#1434,.T.);
#1252=EDGE_CURVE('',#1433,#1429,#1435,.T.);
#1253=EDGE_CURVE('',#1436,#1437,#1438,.T.);
#1254=EDGE_CURVE('',#1436,#1439,#1440,.T.);
#1255=EDGE_CURVE('',#1441,#1439,#1442,.T.);
#1256=EDGE_CURVE('',#1441,#1437,#1443,.T.);
#1257=EDGE_CURVE('',#1437,#1441,#1444,.T.);
#1258=EDGE_CURVE('',#1439,#1436,#1445,.T.);
#1259=EDGE_CURVE('',#1429,#1433,#1446,.T.);
#1260=EDGE_CURVE('',#1431,#1428,#1447,.T.);
#1261=COLOUR_RGB('',1.0,1.0,0.0);
#1262=EDGE_CURVE('',#1448,#1449,#1450,.T.);
#1263=EDGE_CURVE('',#1448,#1451,#1452,.T.);
#1264=EDGE_CURVE('',#1453,#1451,#1454,.T.);
#1265=EDGE_CURVE('',#1453,#1449,#1455,.T.);
#1266=EDGE_CURVE('',#1456,#1457,#1458,.T.);
#1267=EDGE_CURVE('',#1456,#1459,#1460,.T.);
#1268=EDGE_CURVE('',#1461,#1459,#1462,.T.);
#1269=EDGE_CURVE('',#1461,#1457,#1463,.T.);
#1270=EDGE_CURVE('',#1457,#1461,#1464,.T.);
#1271=EDGE_CURVE('',#1459,#1456,#1465,.T.);
#1272=EDGE_CURVE('',#1449,#1453,#1466,.T.);
#1273=EDGE_CURVE('',#1451,#1448,#1467,.T.);
#1274=COLOUR_RGB('',0.501960813999176,1.0,1.0);
#1275=EDGE_CURVE('',#1468,#1469,#1470,.T.);
#1276=EDGE_CURVE('',#1468,#1471,#1472,.T.);
#1277=EDGE_CURVE('',#1473,#1471,#1474,.T.);
#1278=EDGE_CURVE('',#1473,#1469,#1475,.T.);
#1279=EDGE_CURVE('',#1476,#1477,#1478,.T.);
#1280=EDGE_CURVE('',#1476,#1479,#1480,.T.);
#1281=EDGE_CURVE('',#1481,#1479,#1482,.T.);
#1282=EDGE_CURVE('',#1481,#1477,#1483,.T.);
#1283=EDGE_CURVE('',#1477,#1481,#1484,.T.);
#1284=EDGE_CURVE('',#1479,#1476,#1485,.T.);
#1285=EDGE_CURVE('',#1469,#1473,#1486,.T.);
#1286=EDGE_CURVE('',#1471,#1468,#1487,.T.);
#1287=COLOUR_RGB('',1.0,1.0,0.0);
#1288=EDGE_CURVE('',#1488,#1489,#1490,.T.);
#1289=EDGE_CURVE('',#1488,#1491,#1492,.T.);
#1290=EDGE_CURVE('',#1493,#1491,#1494,.T.);
#1291=EDGE_CURVE('',#1493,#1489,#1495,.T.);
#1292=EDGE_CURVE('',#1496,#1497,#1498,.T.);
#1293=EDGE_CURVE('',#1496,#1499,#1500,.T.);
#1294=EDGE_CURVE('',#1501,#1499,#1502,.T.);
#1295=EDGE_CURVE('',#1501,#1497,#1503,.T.);
#1296=EDGE_CURVE('',#1497,#1501,#1504,.T.);
#1297=EDGE_CURVE('',#1499,#1496,#1505,.T.);
#1298=EDGE_CURVE('',#1489,#1493,#1506,.T.);
#1299=EDGE_CURVE('',#1491,#1488,#1507,.T.);
#1300=COLOUR_RGB('',0.501960813999176,1.0,1.0);
#1301=EDGE_CURVE('',#1508,#1509,#1510,.T.);
#1302=EDGE_CURVE('',#1508,#1511,#1512,.T.);
#1303=EDGE_CURVE('',#1513,#1511,#1514,.T.);
#1304=EDGE_CURVE('',#1513,#1509,#1515,.T.);
#1305=EDGE_CURVE('',#1516,#1517,#1518,.T.);
#1306=EDGE_CURVE('',#1516,#1519,#1520,.T.);
#1307=EDGE_CURVE('',#1521,#1519,#1522,.T.);
#1308=EDGE_CURVE('',#1521,#1517,#1523,.T.);
#1309=EDGE_CURVE('',#1517,#1521,#1524,.T.);
#1310=EDGE_CURVE('',#1519,#1516,#1525,.T.);
#1311=EDGE_CURVE('',#1509,#1513,#1526,.T.);
#1312=EDGE_CURVE('',#1511,#1508,#1527,.T.);
#1313=COLOUR_RGB('',0.752941191196442,0.752941191196442,0.752941191196442);
#1314=EDGE_CURVE('',#1528,#1529,#1530,.T.);
#1315=EDGE_CURVE('',#1528,#1531,#1532,.T.);
#1316=EDGE_CURVE('',#1533,#1531,#1534,.T.);
#1317=EDGE_CURVE('',#1533,#1529,#1535,.T.);
#1318=EDGE_CURVE('',#1536,#1537,#1538,.T.);
#1319=EDGE_CURVE('',#1536,#1539,#1540,.T.);
#1320=EDGE_CURVE('',#1541,#1539,#1542,.T.);
#1321=EDGE_CURVE('',#1541,#1537,#1543,.T.);
#1322=EDGE_CURVE('',#1537,#1541,#1544,.T.);
#1323=EDGE_CURVE('',#1539,#1536,#1545,.T.);
#1324=EDGE_CURVE('',#1529,#1533,#1546,.T.);
#1325=EDGE_CURVE('',#1531,#1528,#1547,.T.);
#1326=COLOUR_RGB('',0.560784339904785,0.686274528503418,0.560784339904785);
#1327=EDGE_CURVE('',#1548,#1549,#1550,.T.);
#1328=EDGE_CURVE('',#1548,#1551,#1552,.T.);
#1329=EDGE_CURVE('',#1553,#1551,#1554,.T.);
#1330=EDGE_CURVE('',#1553,#1549,#1555,.T.);
#1331=EDGE_CURVE('',#1556,#1557,#1558,.T.);
#1332=EDGE_CURVE('',#1556,#1559,#1560,.T.);
#1333=EDGE_CURVE('',#1561,#1559,#1562,.T.);
#1334=EDGE_CURVE('',#1561,#1557,#1563,.T.);
#1335=EDGE_CURVE('',#1557,#1561,#1564,.T.);
#1336=EDGE_CURVE('',#1559,#1556,#1565,.T.);
#1337=EDGE_CURVE('',#1549,#1553,#1566,.T.);
#1338=EDGE_CURVE('',#1551,#1548,#1567,.T.);
#1339=COLOUR_RGB('',1.0,0.501960813999176,0.250980406999588);
#1340=EDGE_CURVE('',#1568,#1569,#1570,.T.);
#1341=EDGE_CURVE('',#1568,#1571,#1572,.T.);
#1342=EDGE_CURVE('',#1573,#1571,#1574,.T.);
#1343=EDGE_CURVE('',#1573,#1569,#1575,.T.);
#1344=EDGE_CURVE('',#1576,#1577,#1578,.T.);
#1345=EDGE_CURVE('',#1576,#1579,#1580,.T.);
#1346=EDGE_CURVE('',#1581,#1579,#1582,.T.);
#1347=EDGE_CURVE('',#1581,#1577,#1583,.T.);
#1348=EDGE_CURVE('',#1577,#1581,#1584,.T.);
#1349=EDGE_CURVE('',#1579,#1576,#1585,.T.);
#1350=EDGE_CURVE('',#1569,#1573,#1586,.T.);
#1351=EDGE_CURVE('',#1571,#1568,#1587,.T.);
#1352=COLOUR_RGB('',0.0,0.501960813999176,1.0);
#1353=EDGE_CURVE('',#1588,#1589,#1590,.T.);
#1354=EDGE_CURVE('',#1588,#1591,#1592,.T.);
#1355=EDGE_CURVE('',#1593,#1591,#1594,.T.);
#1356=EDGE_CURVE('',#1593,#1589,#1595,.T.);
#1357=EDGE_CURVE('',#1596,#1597,#1598,.T.);
#1358=EDGE_CURVE('',#1596,#1599,#1600,.T.);
#1359=EDGE_CURVE('',#1601,#1599,#1602,.T.);
#1360=EDGE_CURVE('',#1601,#1597,#1603,.T.);
#1361=EDGE_CURVE('',#1597,#1601,#1604,.T.);
#1362=EDGE_CURVE('',#1599,#1596,#1605,.T.);
#1363=EDGE_CURVE('',#1589,#1593,#1606,.T.);
#1364=EDGE_CURVE('',#1591,#1588,#1607,.T.);
#1365=COLOUR_RGB('',0.501960813999176,1.0,1.0);
#1366=EDGE_CURVE('',#1608,#1609,#1610,.T.);
#1367=EDGE_CURVE('',#1611,#1609,#1612,.T.);
#1368=EDGE_CURVE('',#1613,#1611,#1614,.T.);
#1369=EDGE_CURVE('',#1613,#1608,#1615,.T.);
#1370=EDGE_CURVE('',#1609,#1616,#1617,.T.);
#1371=EDGE_CURVE('',#1618,#1616,#1619,.T.);
#1372=EDGE_CURVE('',#1611,#1618,#1620,.T.);
#1373=EDGE_CURVE('',#1616,#1621,#1622,.T.);
#1374=EDGE_CURVE('',#1623,#1621,#1624,.T.);
#1375=EDGE_CURVE('',#1618,#1623,#1625,.T.);
#1376=EDGE_CURVE('',#1621,#1608,#1626,.T.);
#1377=EDGE_CURVE('',#1623,#1613,#1627,.T.);
#1378=VERTEX_POINT('',#1628);
#1379=VERTEX_POINT('',#1629);
#1380=LINE('',#1630,#1631);
#1381=VERTEX_POINT('',#1632);
#1382=CIRCLE('',#1633,13.1);
#1383=VERTEX_POINT('',#1634);
#1384=LINE('',#1635,#1636);
#1385=CIRCLE('',#1637,13.1);
#1386=CIRCLE('',#1638,13.1);
#1387=CIRCLE('',#1639,13.1);
#1388=VERTEX_POINT('',#1640);
#1389=VERTEX_POINT('',#1641);
#1390=LINE('',#1642,#1643);
#1391=VERTEX_POINT('',#1644);
#1392=CIRCLE('',#1645,13.1);
#1393=VERTEX_POINT('',#1646);
#1394=LINE('',#1647,#1648);
#1395=CIRCLE('',#1649,13.1);
#1396=CIRCLE('',#1650,13.1);
#1397=CIRCLE('',#1651,13.1);
#1398=VERTEX_POINT('',#1652);
#1399=VERTEX_POINT('',#1653);
#1400=LINE('',#1654,#1655);
#1401=VERTEX_POINT('',#1656);
#1402=CIRCLE('',#1657,13.1);
#1403=VERTEX_POINT('',#1658);
#1404=LINE('',#1659,#1660);
#1405=CIRCLE('',#1661,13.1);
#1406=CIRCLE('',#1662,13.1);
#1407=CIRCLE('',#1663,13.1);
#1408=VERTEX_POINT('',#1664);
#1409=VERTEX_POINT('',#1665);
#1410=LINE('',#1666,#1667);
#1411=VERTEX_POINT('',#1668);
#1412=CIRCLE('',#1669,13.1);
#1413=VERTEX_POINT('',#1670);
#1414=LINE('',#1671,#1672);
#1415=CIRCLE('',#1673,13.1);
#1416=VERTEX_POINT('',#1674);
#1417=VERTEX_POINT('',#1675);
#1418=LINE('',#1676,#1677);
#1419=VERTEX_POINT('',#1678);
#1420=CIRCLE('',#1679,16.1);
#1421=VERTEX_POINT('',#1680);
#1422=LINE('',#1681,#1682);
#1423=CIRCLE('',#1683,16.1);
#1424=CIRCLE('',#1684,16.1);
#1425=CIRCLE('',#1685,16.1);
#1426=CIRCLE('',#1686,13.1);
#1427=CIRCLE('',#1687,13.1);
#1428=VERTEX_POINT('',#1688);
#1429=VERTEX_POINT('',#1689);
#1430=LINE('',#1690,#1691);
#1431=VERTEX_POINT('',#1692);
#1432=CIRCLE('',#1693,16.1);
#1433=VERTEX_POINT('',#1694);
#1434=LINE('',#1695,#1696);
#1435=CIRCLE('',#1697,16.1);
#1436=VERTEX_POINT('',#1698);
#1437=VERTEX_POINT('',#1699);
#1438=LINE('',#1700,#1701);
#1439=VERTEX_POINT('',#1702);
#1440=CIRCLE('',#1703,40.0);
#1441=VERTEX_POINT('',#1704);
#1442=LINE('',#1705,#1706);
#1443=CIRCLE('',#1707,40.0);
#1444=CIRCLE('',#1708,40.0);
#1445=CIRCLE('',#1709,40.0);
#1446=CIRCLE('',#1710,16.1);
#1447=CIRCLE('',#1711,16.1);
#1448=VERTEX_POINT('',#1712);
#1449=VERTEX_POINT('',#1713);
#1450=LINE('',#1714,#1715);
#1451=VERTEX_POINT('',#1716);
#1452=CIRCLE('',#1717,13.1);
#1453=VERTEX_POINT('',#1718);
#1454=LINE('',#1719,#1720);
#1455=CIRCLE('',#1721,13.1);
#1456=VERTEX_POINT('',#1722);
#1457=VERTEX_POINT('',#1723);
#1458=LINE('',#1724,#1725);
#1459=VERTEX_POINT('',#1726);
#1460=CIRCLE('',#1727,16.1);
#1461=VERTEX_POINT('',#1728);
#1462=LINE('',#1729,#1730);
#1463=CIRCLE('',#1731,16.1);
#1464=CIRCLE('',#1732,16.1);
#1465=CIRCLE('',#1733,16.1);
#1466=CIRCLE('',#1734,13.1);
#1467=CIRCLE('',#1735,13.1);
#1468=VERTEX_POINT('',#1736);
#1469=VERTEX_POINT('',#1737);
#1470=LINE('',#1738,#1739);
#1471=VERTEX_POINT('',#1740);
#1472=CIRCLE('',#1741,16.1);
#1473=VERTEX_POINT('',#1742);
#1474=LINE('',#1743,#1744);
#1475=CIRCLE('',#1745,16.1);
#1476=VERTEX_POINT('',#1746);
#1477=VERTEX_POINT('',#1747);
#1478=LINE('',#1748,#1749);
#1479=VERTEX_POINT('',#1750);
#1480=CIRCLE('',#1751,40.0);
#1481=VERTEX_POINT('',#1752);
#1482=LINE('',#1753,#1754);
#1483=CIRCLE('',#1755,40.0);
#1484=CIRCLE('',#1756,40.0);
#1485=CIRCLE('',#1757,40.0);
#1486=CIRCLE('',#1758,16.1);
#1487=CIRCLE('',#1759,16.1);
#1488=VERTEX_POINT('',#1760);
#1489=VERTEX_POINT('',#1761);
#1490=LINE('',#1762,#1763);
#1491=VERTEX_POINT('',#1764);
#1492=CIRCLE('',#1765,13.1);
#1493=VERTEX_POINT('',#1766);
#1494=LINE('',#1767,#1768);
#1495=CIRCLE('',#1769,13.1);
#1496=VERTEX_POINT('',#1770);
#1497=VERTEX_POINT('',#1771);
#1498=LINE('',#1772,#1773);
#1499=VERTEX_POINT('',#1774);
#1500=CIRCLE('',#1775,16.1);
#1501=VERTEX_POINT('',#1776);
#1502=LINE('',#1777,#1778);
#1503=CIRCLE('',#1779,16.1);
#1504=CIRCLE('',#1780,16.1);
#1505=CIRCLE('',#1781,16.1);
#1506=CIRCLE('',#1782,13.1);
#1507=CIRCLE('',#1783,13.1);
#1508=VERTEX_POINT('',#1784);
#1509=VERTEX_POINT('',#1785);
#1510=LINE('',#1786,#1787);
#1511=VERTEX_POINT('',#1788);
#1512=CIRCLE('',#1789,16.1);
#1513=VERTEX_POINT('',#1790);
#1514=LINE('',#1791,#1792);
#1515=CIRCLE('',#1793,16.1);
#1516=VERTEX_POINT('',#1794);
#1517=VERTEX_POINT('',#1795);
#1518=LINE('',#1796,#1797);
#1519=VERTEX_POINT('',#1798);
#1520=CIRCLE('',#1799,40.0);
#1521=VERTEX_POINT('',#1800);
#1522=LINE('',#1801,#1802);
#1523=CIRCLE('',#1803,40.0);
#1524=CIRCLE('',#1804,40.0);
#1525=CIRCLE('',#1805,40.0);
#1526=CIRCLE('',#1806,16.1);
#1527=CIRCLE('',#1807,16.1);
#1528=VERTEX_POINT('',#1808);
#1529=VERTEX_POINT('',#1809);
#1530=LINE('',#1810,#1811);
#1531=VERTEX_POINT('',#1812);
#1532=CIRCLE('',#1813,86.1880215351701);
#1533=VERTEX_POINT('',#1814);
#1534=LINE('',#1815,#1816);
#1535=CIRCLE('',#1817,86.1880215351701);
#1536=VERTEX_POINT('',#1818);
#1537=VERTEX_POINT('',#1819);
#1538=LINE('',#1820,#1821);
#1539=VERTEX_POINT('',#1822);
#1540=CIRCLE('',#1823,88.1880215351701);
#1541=VERTEX_POINT('',#1824);
#1542=LINE('',#1825,#1826);
#1543=CIRCLE('',#1827,88.1880215351701);
#1544=CIRCLE('',#1828,88.1880215351701);
#1545=CIRCLE('',#1829,88.1880215351701);
#1546=CIRCLE('',#1830,86.1880215351701);
#1547=CIRCLE('',#1831,86.1880215351701);
#1548=VERTEX_POINT('',#1832);
#1549=VERTEX_POINT('',#1833);
#1550=LINE('',#1834,#1835);
#1551=VERTEX_POINT('',#1836);
#1552=CIRCLE('',#1837,88.1880215351701);
#1553=VERTEX_POINT('',#1838);
#1554=LINE('',#1839,#1840);
#1555=CIRCLE('',#1841,88.1880215351701);
#1556=VERTEX_POINT('',#1842);
#1557=VERTEX_POINT('',#1843);
#1558=LINE('',#1844,#1845);
#1559=VERTEX_POINT('',#1846);
#1560=CIRCLE('',#1847,98.1880215351701);
#1561=VERTEX_POINT('',#1848);
#1562=LINE('',#1849,#1850);
#1563=CIRCLE('',#1851,98.1880215351701);
#1564=CIRCLE('',#1852,98.1880215351701);
#1565=CIRCLE('',#1853,98.1880215351701);
#1566=CIRCLE('',#1854,88.1880215351701);
#1567=CIRCLE('',#1855,88.1880215351701);
#1568=VERTEX_POINT('',#1856);
#1569=VERTEX_POINT('',#1857);
#1570=LINE('',#1858,#1859);
#1571=VERTEX_POINT('',#1860);
#1572=CIRCLE('',#1861,98.1880215351701);
#1573=VERTEX_POINT('',#1862);
#1574=LINE('',#1863,#1864);
#1575=CIRCLE('',#1865,98.1880215351701);
#1576=VERTEX_POINT('',#1866);
#1577=VERTEX_POINT('',#1867);
#1578=LINE('',#1868,#1869);
#1579=VERTEX_POINT('',#1870);
#1580=CIRCLE('',#1871,103.18802153517);
#1581=VERTEX_POINT('',#1872);
#1582=LINE('',#1873,#1874);
#1583=CIRCLE('',#1875,103.18802153517);
#1584=CIRCLE('',#1876,103.18802153517);
#1585=CIRCLE('',#1877,103.18802153517);
#1586=CIRCLE('',#1878,98.1880215351701);
#1587=CIRCLE('',#1879,98.1880215351701);
#1588=VERTEX_POINT('',#1880);
#1589=VERTEX_POINT('',#1881);
#1590=LINE('',#1882,#1883);
#1591=VERTEX_POINT('',#1884);
#1592=CIRCLE('',#1885,103.18802153517);
#1593=VERTEX_POINT('',#1886);
#1594=LINE('',#1887,#1888);
#1595=CIRCLE('',#1889,103.18802153517);
#1596=VERTEX_POINT('',#1890);
#1597=VERTEX_POINT('',#1891);
#1598=LINE('',#1892,#1893);
#1599=VERTEX_POINT('',#1894);
#1600=CIRCLE('',#1895,111.18802153517);
#1601=VERTEX_POINT('',#1896);
#1602=LINE('',#1897,#1898);
#1603=CIRCLE('',#1899,111.18802153517);
#1604=CIRCLE('',#1900,111.18802153517);
#1605=CIRCLE('',#1901,111.18802153517);
#1606=CIRCLE('',#1902,103.18802153517);
#1607=CIRCLE('',#1903,103.18802153517);
#1608=VERTEX_POINT('',#1904);
#1609=VERTEX_POINT('',#1905);
#1610=LINE('',#1906,#1907);
#1611=VERTEX_POINT('',#1908);
#1612=LINE('',#1909,#1910);
#1613=VERTEX_POINT('',#1911);
#1614=LINE('',#1912,#1913);
#1615=LINE('',#1914,#1915);
#1616=VERTEX_POINT('',#1916);
#1617=LINE('',#1917,#1918);
#1618=VERTEX_POINT('',#1919);
#1619=LINE('',#1920,#1921);
#1620=LINE('',#1922,#1923);
#1621=VERTEX_POINT('',#1924);
#1622=LINE('',#1925,#1926);
#1623=VERTEX_POINT('',#1927);
#1624=LINE('',#1928,#1929);
#1625=LINE('',#1930,#1931);
#1626=LINE('',#1932,#1933);
#1627=LINE('',#1934,#1935);
#1628=CARTESIAN_POINT('',(-29.644010767585,-28.6550672104239,0.0));
#1629=CARTESIAN_POINT('',(-29.644010767585,-28.6550672104239,2000.0));
#1630=CARTESIAN_POINT('',(-29.644010767585,-28.6550672104239,0.0));
#1631=VECTOR('',#1936,1.0);
#1632=CARTESIAN_POINT('',(-16.544010767585,-51.3449327895761,0.0));
#1633=AXIS2_PLACEMENT_3D('',#1937,#1938,#1939);
#1634=CARTESIAN_POINT('',(-16.544010767585,-51.3449327895761,2000.0));
#1635=CARTESIAN_POINT('',(-16.544010767585,-51.3449327895761,0.0));
#1636=VECTOR('',#1940,1.0);
#1637=AXIS2_PLACEMENT_3D('',#1941,#1942,#1943);
#1638=AXIS2_PLACEMENT_3D('',#1944,#1945,#1946);
#1639=AXIS2_PLACEMENT_3D('',#1947,#1948,#1949);
#1640=CARTESIAN_POINT('',(59.2880215351701,0.0,0.0));
#1641=CARTESIAN_POINT('',(59.2880215351701,0.0,2000.0));
#1642=CARTESIAN_POINT('',(59.2880215351701,-1.60428730688303E-15,0.0));
#1643=VECTOR('',#1950,1.0);
#1644=CARTESIAN_POINT('',(33.0880215351701,1.60428730688303E-15,0.0));
#1645=AXIS2_PLACEMENT_3D('',#1951,#1952,#1953);
#1646=CARTESIAN_POINT('',(33.0880215351701,1.60428730688303E-15,2000.0));
#1647=CARTESIAN_POINT('',(33.0880215351701,1.60428730688303E-15,0.0));
#1648=VECTOR('',#1954,1.0);
#1649=AXIS2_PLACEMENT_3D('',#1955,#1956,#1957);
#1650=AXIS2_PLACEMENT_3D('',#1958,#1959,#1960);
#1651=AXIS2_PLACEMENT_3D('',#1961,#1962,#1963);
#1652=CARTESIAN_POINT('',(-29.644010767585,28.6550672104239,0.0));
#1653=CARTESIAN_POINT('',(-29.644010767585,28.6550672104239,2000.0));
#1654=CARTESIAN_POINT('',(-29.644010767585,28.6550672104239,0.0));
#1655=VECTOR('',#1964,1.0);
#1656=CARTESIAN_POINT('',(-16.544010767585,51.3449327895761,0.0));
#1657=AXIS2_PLACEMENT_3D('',#1965,#1966,#1967);
#1658=CARTESIAN_POINT('',(-16.544010767585,51.3449327895761,2000.0));
#1659=CARTESIAN_POINT('',(-16.544010767585,51.3449327895761,0.0));
#1660=VECTOR('',#1968,1.0);
#1661=AXIS2_PLACEMENT_3D('',#1969,#1970,#1971);
#1662=AXIS2_PLACEMENT_3D('',#1972,#1973,#1974);
#1663=AXIS2_PLACEMENT_3D('',#1975,#1976,#1977);
#1664=CARTESIAN_POINT('',(59.2880215351701,0.0,0.0));
#1665=CARTESIAN_POINT('',(59.2880215351701,0.0,2000.0));
#1666=CARTESIAN_POINT('',(59.2880215351701,-1.60428730688303E-15,0.0));
#1667=VECTOR('',#1978,1.0);
#1668=CARTESIAN_POINT('',(33.0880215351701,1.60428730688303E-15,0.0));
#1669=AXIS2_PLACEMENT_3D('',#1979,#1980,#1981);
#1670=CARTESIAN_POINT('',(33.0880215351701,1.60428730688303E-15,2000.0));
#1671=CARTESIAN_POINT('',(33.0880215351701,1.60428730688303E-15,0.0));
#1672=VECTOR('',#1982,1.0);
#1673=AXIS2_PLACEMENT_3D('',#1983,#1984,#1985);
#1674=CARTESIAN_POINT('',(62.2880215351701,0.0,0.0));
#1675=CARTESIAN_POINT('',(62.2880215351701,0.0,2000.0));
#1676=CARTESIAN_POINT('',(62.2880215351701,-1.97168134662724E-15,0.0));
#1677=VECTOR('',#1986,1.0);
#1678=CARTESIAN_POINT('',(30.0880215351701,1.97168134662724E-15,0.0));
#1679=AXIS2_PLACEMENT_3D('',#1987,#1988,#1989);
#1680=CARTESIAN_POINT('',(30.0880215351701,1.97168134662724E-15,2000.0));
#1681=CARTESIAN_POINT('',(30.0880215351701,1.97168134662724E-15,0.0));
#1682=VECTOR('',#1990,1.0);
#1683=AXIS2_PLACEMENT_3D('',#1991,#1992,#1993);
#1684=AXIS2_PLACEMENT_3D('',#1994,#1995,#1996);
#1685=AXIS2_PLACEMENT_3D('',#1997,#1998,#1999);
#1686=AXIS2_PLACEMENT_3D('',#2000,#2001,#2002);
#1687=AXIS2_PLACEMENT_3D('',#2003,#2004,#2005);
#1688=CARTESIAN_POINT('',(62.2880215351701,0.0,0.0));
#1689=CARTESIAN_POINT('',(62.2880215351701,0.0,2000.0));
#1690=CARTESIAN_POINT('',(62.2880215351701,-1.97168134662724E-15,0.0));
#1691=VECTOR('',#2006,1.0);
#1692=CARTESIAN_POINT('',(30.0880215351701,1.97168134662724E-15,0.0));
#1693=AXIS2_PLACEMENT_3D('',#2007,#2008,#2009);
#1694=CARTESIAN_POINT('',(30.0880215351701,1.97168134662724E-15,2000.0));
#1695=CARTESIAN_POINT('',(30.0880215351701,1.97168134662724E-15,0.0));
#1696=VECTOR('',#2010,1.0);
#1697=AXIS2_PLACEMENT_3D('',#2011,#2012,#2013);
#1698=CARTESIAN_POINT('',(86.1880215351701,0.0,0.0));
#1699=CARTESIAN_POINT('',(86.1880215351701,0.0,2000.0));
#1700=CARTESIAN_POINT('',(86.1880215351701,-4.89858719658941E-15,0.0));
#1701=VECTOR('',#2014,1.0);
#1702=CARTESIAN_POINT('',(6.18802153517007,4.89858719658941E-15,0.0));
#1703=AXIS2_PLACEMENT_3D('',#2015,#2016,#2017);
#1704=CARTESIAN_POINT('',(6.18802153517007,4.89858719658941E-15,2000.0));
#1705=CARTESIAN_POINT('',(6.18802153517007,4.89858719658941E-15,0.0));
#1706=VECTOR('',#2018,1.0);
#1707=AXIS2_PLACEMENT_3D('',#2019,#2020,#2021);
#1708=AXIS2_PLACEMENT_3D('',#2022,#2023,#2024);
#1709=AXIS2_PLACEMENT_3D('',#2025,#2026,#2027);
#1710=AXIS2_PLACEMENT_3D('',#2028,#2029,#2030);
#1711=AXIS2_PLACEMENT_3D('',#2031,#2032,#2033);
#1712=CARTESIAN_POINT('',(-29.644010767585,51.3449327895762,0.0));
#1713=CARTESIAN_POINT('',(-29.644010767585,51.3449327895762,2000.0));
#1714=CARTESIAN_POINT('',(-29.644010767585,51.3449327895762,0.0));
#1715=VECTOR('',#2034,1.0);
#1716=CARTESIAN_POINT('',(-16.544010767585,28.6550672104239,0.0));
#1717=AXIS2_PLACEMENT_3D('',#2035,#2036,#2037);
#1718=CARTESIAN_POINT('',(-16.544010767585,28.6550672104239,2000.0));
#1719=CARTESIAN_POINT('',(-16.544010767585,28.6550672104239,0.0));
#1720=VECTOR('',#2038,1.0);
#1721=AXIS2_PLACEMENT_3D('',#2039,#2040,#2041);
#1722=CARTESIAN_POINT('',(-31.144010767585,53.9430090009295,0.0));
#1723=CARTESIAN_POINT('',(-31.144010767585,53.9430090009295,2000.0));
#1724=CARTESIAN_POINT('',(-31.144010767585,53.9430090009295,0.0));
#1725=VECTOR('',#2042,1.0);
#1726=CARTESIAN_POINT('',(-15.044010767585,26.0569909990705,0.0));
#1727=AXIS2_PLACEMENT_3D('',#2043,#2044,#2045);
#1728=CARTESIAN_POINT('',(-15.044010767585,26.0569909990705,2000.0));
#1729=CARTESIAN_POINT('',(-15.044010767585,26.0569909990705,0.0));
#1730=VECTOR('',#2046,1.0);
#1731=AXIS2_PLACEMENT_3D('',#2047,#2048,#2049);
#1732=AXIS2_PLACEMENT_3D('',#2050,#2051,#2052);
#1733=AXIS2_PLACEMENT_3D('',#2053,#2054,#2055);
#1734=AXIS2_PLACEMENT_3D('',#2056,#2057,#2058);
#1735=AXIS2_PLACEMENT_3D('',#2059,#2060,#2061);
#1736=CARTESIAN_POINT('',(-31.144010767585,53.9430090009295,0.0));
#1737=CARTESIAN_POINT('',(-31.144010767585,53.9430090009295,2000.0));
#1738=CARTESIAN_POINT('',(-31.144010767585,53.9430090009295,0.0));
#1739=VECTOR('',#2062,1.0);
#1740=CARTESIAN_POINT('',(-15.044010767585,26.0569909990705,0.0));
#1741=AXIS2_PLACEMENT_3D('',#2063,#2064,#2065);
#1742=CARTESIAN_POINT('',(-15.044010767585,26.0569909990705,2000.0));
#1743=CARTESIAN_POINT('',(-15.044010767585,26.0569909990705,0.0));
#1744=VECTOR('',#2066,1.0);
#1745=AXIS2_PLACEMENT_3D('',#2067,#2068,#2069);
#1746=CARTESIAN_POINT('',(-43.094010767585,74.6410161513776,0.0));
#1747=CARTESIAN_POINT('',(-43.094010767585,74.6410161513776,2000.0));
#1748=CARTESIAN_POINT('',(-43.094010767585,74.6410161513776,0.0));
#1749=VECTOR('',#2070,1.0);
#1750=CARTESIAN_POINT('',(-3.09401076758503,5.35898384862246,0.0));
#1751=AXIS2_PLACEMENT_3D('',#2071,#2072,#2073);
#1752=CARTESIAN_POINT('',(-3.09401076758503,5.35898384862246,2000.0));
#1753=CARTESIAN_POINT('',(-3.09401076758503,5.35898384862246,0.0));
#1754=VECTOR('',#2074,1.0);
#1755=AXIS2_PLACEMENT_3D('',#2075,#2076,#2077);
#1756=AXIS2_PLACEMENT_3D('',#2078,#2079,#2080);
#1757=AXIS2_PLACEMENT_3D('',#2081,#2082,#2083);
#1758=AXIS2_PLACEMENT_3D('',#2084,#2085,#2086);
#1759=AXIS2_PLACEMENT_3D('',#2087,#2088,#2089);
#1760=CARTESIAN_POINT('',(-29.6440107675851,-51.3449327895761,0.0));
#1761=CARTESIAN_POINT('',(-29.6440107675851,-51.3449327895761,2000.0));
#1762=CARTESIAN_POINT('',(-29.6440107675851,-51.3449327895761,0.0));
#1763=VECTOR('',#2090,1.0);
#1764=CARTESIAN_POINT('',(-16.544010767585,-28.6550672104239,0.0));
#1765=AXIS2_PLACEMENT_3D('',#2091,#2092,#2093);
#1766=CARTESIAN_POINT('',(-16.544010767585,-28.6550672104239,2000.0));
#1767=CARTESIAN_POINT('',(-16.544010767585,-28.6550672104239,0.0));
#1768=VECTOR('',#2094,1.0);
#1769=AXIS2_PLACEMENT_3D('',#2095,#2096,#2097);
#1770=CARTESIAN_POINT('',(-31.1440107675851,-53.9430090009295,0.0));
#1771=CARTESIAN_POINT('',(-31.1440107675851,-53.9430090009295,2000.0));
#1772=CARTESIAN_POINT('',(-31.1440107675851,-53.9430090009295,0.0));
#1773=VECTOR('',#2098,1.0);
#1774=CARTESIAN_POINT('',(-15.044010767585,-26.0569909990705,0.0));
#1775=AXIS2_PLACEMENT_3D('',#2099,#2100,#2101);
#1776=CARTESIAN_POINT('',(-15.044010767585,-26.0569909990705,2000.0));
#1777=CARTESIAN_POINT('',(-15.044010767585,-26.0569909990705,0.0));
#1778=VECTOR('',#2102,1.0);
#1779=AXIS2_PLACEMENT_3D('',#2103,#2104,#2105);
#1780=AXIS2_PLACEMENT_3D('',#2106,#2107,#2108);
#1781=AXIS2_PLACEMENT_3D('',#2109,#2110,#2111);
#1782=AXIS2_PLACEMENT_3D('',#2112,#2113,#2114);
#1783=AXIS2_PLACEMENT_3D('',#2115,#2116,#2117);
#1784=CARTESIAN_POINT('',(-31.1440107675851,-53.9430090009295,0.0));
#1785=CARTESIAN_POINT('',(-31.1440107675851,-53.9430090009295,2000.0));
#1786=CARTESIAN_POINT('',(-31.1440107675851,-53.9430090009295,0.0));
#1787=VECTOR('',#2118,1.0);
#1788=CARTESIAN_POINT('',(-15.044010767585,-26.0569909990705,0.0));
#1789=AXIS2_PLACEMENT_3D('',#2119,#2120,#2121);
#1790=CARTESIAN_POINT('',(-15.044010767585,-26.0569909990705,2000.0));
#1791=CARTESIAN_POINT('',(-15.044010767585,-26.0569909990705,0.0));
#1792=VECTOR('',#2122,1.0);
#1793=AXIS2_PLACEMENT_3D('',#2123,#2124,#2125);
#1794=CARTESIAN_POINT('',(-43.0940107675851,-74.6410161513775,0.0));
#1795=CARTESIAN_POINT('',(-43.0940107675851,-74.6410161513775,2000.0));
#1796=CARTESIAN_POINT('',(-43.0940107675851,-74.6410161513775,0.0));
#1797=VECTOR('',#2126,1.0);
#1798=CARTESIAN_POINT('',(-3.09401076758503,-5.35898384862245,0.0));
#1799=AXIS2_PLACEMENT_3D('',#2127,#2128,#2129);
#1800=CARTESIAN_POINT('',(-3.09401076758503,-5.35898384862245,2000.0));
#1801=CARTESIAN_POINT('',(-3.09401076758503,-5.35898384862245,0.0));
#1802=VECTOR('',#2130,1.0);
#1803=AXIS2_PLACEMENT_3D('',#2131,#2132,#2133);
#1804=AXIS2_PLACEMENT_3D('',#2134,#2135,#2136);
#1805=AXIS2_PLACEMENT_3D('',#2137,#2138,#2139);
#1806=AXIS2_PLACEMENT_3D('',#2140,#2141,#2142);
#1807=AXIS2_PLACEMENT_3D('',#2143,#2144,#2145);
#1808=CARTESIAN_POINT('',(86.1880215351701,0.0,0.0));
#1809=CARTESIAN_POINT('',(86.1880215351701,0.0,2000.0));
#1810=CARTESIAN_POINT('',(86.1880215351701,-1.05549884697889E-14,0.0));
#1811=VECTOR('',#2146,1.0);
#1812=CARTESIAN_POINT('',(-86.1880215351701,1.05549884697889E-14,0.0));
#1813=AXIS2_PLACEMENT_3D('',#2147,#2148,#2149);
#1814=CARTESIAN_POINT('',(-86.1880215351701,1.05549884697889E-14,2000.0));
#1815=CARTESIAN_POINT('',(-86.1880215351701,1.05549884697889E-14,0.0));
#1816=VECTOR('',#2150,1.0);
#1817=AXIS2_PLACEMENT_3D('',#2151,#2152,#2153);
#1818=CARTESIAN_POINT('',(88.1880215351701,0.0,0.0));
#1819=CARTESIAN_POINT('',(88.1880215351701,0.0,2000.0));
#1820=CARTESIAN_POINT('',(88.1880215351701,-1.07999178296184E-14,0.0));
#1821=VECTOR('',#2154,1.0);
#1822=CARTESIAN_POINT('',(-88.1880215351701,1.07999178296184E-14,0.0));
#1823=AXIS2_PLACEMENT_3D('',#2155,#2156,#2157);
#1824=CARTESIAN_POINT('',(-88.1880215351701,1.07999178296184E-14,2000.0));
#1825=CARTESIAN_POINT('',(-88.1880215351701,1.07999178296184E-14,0.0));
#1826=VECTOR('',#2158,1.0);
#1827=AXIS2_PLACEMENT_3D('',#2159,#2160,#2161);
#1828=AXIS2_PLACEMENT_3D('',#2162,#2163,#2164);
#1829=AXIS2_PLACEMENT_3D('',#2165,#2166,#2167);
#1830=AXIS2_PLACEMENT_3D('',#2168,#2169,#2170);
#1831=AXIS2_PLACEMENT_3D('',#2171,#2172,#2173);
#1832=CARTESIAN_POINT('',(88.1880215351701,0.0,0.0));
#1833=CARTESIAN_POINT('',(88.1880215351701,0.0,2000.0));
#1834=CARTESIAN_POINT('',(88.1880215351701,-1.07999178296184E-14,0.0));
#1835=VECTOR('',#2174,1.0);
#1836=CARTESIAN_POINT('',(-88.1880215351701,1.07999178296184E-14,0.0));
#1837=AXIS2_PLACEMENT_3D('',#2175,#2176,#2177);
#1838=CARTESIAN_POINT('',(-88.1880215351701,1.07999178296184E-14,2000.0));
#1839=CARTESIAN_POINT('',(-88.1880215351701,1.07999178296184E-14,0.0));
#1840=VECTOR('',#2178,1.0);
#1841=AXIS2_PLACEMENT_3D('',#2179,#2180,#2181);
#1842=CARTESIAN_POINT('',(98.1880215351701,0.0,0.0));
#1843=CARTESIAN_POINT('',(98.1880215351701,0.0,2000.0));
#1844=CARTESIAN_POINT('',(98.1880215351701,-1.20245646287657E-14,0.0));
#1845=VECTOR('',#2182,1.0);
#1846=CARTESIAN_POINT('',(-98.1880215351701,1.20245646287657E-14,0.0));
#1847=AXIS2_PLACEMENT_3D('',#2183,#2184,#2185);
#1848=CARTESIAN_POINT('',(-98.1880215351701,1.20245646287657E-14,2000.0));
#1849=CARTESIAN_POINT('',(-98.1880215351701,1.20245646287657E-14,0.0));
#1850=VECTOR('',#2186,1.0);
#1851=AXIS2_PLACEMENT_3D('',#2187,#2188,#2189);
#1852=AXIS2_PLACEMENT_3D('',#2190,#2191,#2192);
#1853=AXIS2_PLACEMENT_3D('',#2193,#2194,#2195);
#1854=AXIS2_PLACEMENT_3D('',#2196,#2197,#2198);
#1855=AXIS2_PLACEMENT_3D('',#2199,#2200,#2201);
#1856=CARTESIAN_POINT('',(98.1880215351701,0.0,0.0));
#1857=CARTESIAN_POINT('',(98.1880215351701,0.0,2000.0));
#1858=CARTESIAN_POINT('',(98.1880215351701,-1.20245646287657E-14,0.0));
#1859=VECTOR('',#2202,1.0);
#1860=CARTESIAN_POINT('',(-98.1880215351701,1.20245646287657E-14,0.0));
#1861=AXIS2_PLACEMENT_3D('',#2203,#2204,#2205);
#1862=CARTESIAN_POINT('',(-98.1880215351701,1.20245646287657E-14,2000.0));
#1863=CARTESIAN_POINT('',(-98.1880215351701,1.20245646287657E-14,0.0));
#1864=VECTOR('',#2206,1.0);
#1865=AXIS2_PLACEMENT_3D('',#2207,#2208,#2209);
#1866=CARTESIAN_POINT('',(103.18802153517,0.0,0.0));
#1867=CARTESIAN_POINT('',(103.18802153517,0.0,2000.0));
#1868=CARTESIAN_POINT('',(103.18802153517,-1.26368880283394E-14,0.0));
#1869=VECTOR('',#2210,1.0);
#1870=CARTESIAN_POINT('',(-103.18802153517,1.26368880283394E-14,0.0));
#1871=AXIS2_PLACEMENT_3D('',#2211,#2212,#2213);
#1872=CARTESIAN_POINT('',(-103.18802153517,1.26368880283394E-14,2000.0));
#1873=CARTESIAN_POINT('',(-103.18802153517,1.26368880283394E-14,0.0));
#1874=VECTOR('',#2214,1.0);
#1875=AXIS2_PLACEMENT_3D('',#2215,#2216,#2217);
#1876=AXIS2_PLACEMENT_3D('',#2218,#2219,#2220);
#1877=AXIS2_PLACEMENT_3D('',#2221,#2222,#2223);
#1878=AXIS2_PLACEMENT_3D('',#2224,#2225,#2226);
#1879=AXIS2_PLACEMENT_3D('',#2227,#2228,#2229);
#1880=CARTESIAN_POINT('',(103.18802153517,0.0,0.0));
#1881=CARTESIAN_POINT('',(103.18802153517,0.0,2000.0));
#1882=CARTESIAN_POINT('',(103.18802153517,-1.26368880283394E-14,0.0));
#1883=VECTOR('',#2230,1.0);
#1884=CARTESIAN_POINT('',(-103.18802153517,1.26368880283394E-14,0.0));
#1885=AXIS2_PLACEMENT_3D('',#2231,#2232,#2233);
#1886=CARTESIAN_POINT('',(-103.18802153517,1.26368880283394E-14,2000.0));
#1887=CARTESIAN_POINT('',(-103.18802153517,1.26368880283394E-14,0.0));
#1888=VECTOR('',#2234,1.0);
#1889=AXIS2_PLACEMENT_3D('',#2235,#2236,#2237);
#1890=CARTESIAN_POINT('',(111.18802153517,0.0,0.0));
#1891=CARTESIAN_POINT('',(111.18802153517,0.0,2000.0));
#1892=CARTESIAN_POINT('',(111.18802153517,-1.36166054676573E-14,0.0));
#1893=VECTOR('',#2238,1.0);
#1894=CARTESIAN_POINT('',(-111.18802153517,1.36166054676573E-14,0.0));
#1895=AXIS2_PLACEMENT_3D('',#2239,#2240,#2241);
#1896=CARTESIAN_POINT('',(-111.18802153517,1.36166054676573E-14,2000.0));
#1897=CARTESIAN_POINT('',(-111.18802153517,1.36166054676573E-14,0.0));
#1898=VECTOR('',#2242,1.0);
#1899=AXIS2_PLACEMENT_3D('',#2243,#2244,#2245);
#1900=AXIS2_PLACEMENT_3D('',#2246,#2247,#2248);
#1901=AXIS2_PLACEMENT_3D('',#2249,#2250,#2251);
#1902=AXIS2_PLACEMENT_3D('',#2252,#2253,#2254);
#1903=AXIS2_PLACEMENT_3D('',#2255,#2256,#2257);
#1904=CARTESIAN_POINT('',(140.0,120.0,2000.0));
#1905=CARTESIAN_POINT('',(140.0,-140.0,2000.0));
#1906=CARTESIAN_POINT('',(140.0,120.0,2000.0));
#1907=VECTOR('',#2258,1.0);
#1908=CARTESIAN_POINT('',(140.0,-140.0,0.0));
#1909=CARTESIAN_POINT('',(140.0,-140.0,0.0));
#1910=VECTOR('',#2259,1.0);
#1911=CARTESIAN_POINT('',(140.0,120.0,0.0));
#1912=CARTESIAN_POINT('',(140.0,120.0,0.0));
#1913=VECTOR('',#2260,1.0);
#1914=CARTESIAN_POINT('',(140.0,120.0,0.0));
#1915=VECTOR('',#2261,1.0);
#1916=CARTESIAN_POINT('',(-140.0,-140.0,2000.0));
#1917=CARTESIAN_POINT('',(140.0,-140.0,2000.0));
#1918=VECTOR('',#2262,1.0);
#1919=CARTESIAN_POINT('',(-140.0,-140.0,0.0));
#1920=CARTESIAN_POINT('',(-140.0,-140.0,0.0));
#1921=VECTOR('',#2263,1.0);
#1922=CARTESIAN_POINT('',(140.0,-140.0,0.0));
#1923=VECTOR('',#2264,1.0);
#1924=CARTESIAN_POINT('',(-140.0,120.0,2000.0));
#1925=CARTESIAN_POINT('',(-140.0,-140.0,2000.0));
#1926=VECTOR('',#2265,1.0);
#1927=CARTESIAN_POINT('',(-140.0,120.0,0.0));
#1928=CARTESIAN_POINT('',(-140.0,120.0,0.0));
#1929=VECTOR('',#2266,1.0);
#1930=CARTESIAN_POINT('',(-140.0,-140.0,0.0));
#1931=VECTOR('',#2267,1.0);
#1932=CARTESIAN_POINT('',(-140.0,120.0,2000.0));
#1933=VECTOR('',#2268,1.0);
#1934=CARTESIAN_POINT('',(-140.0,120.0,0.0));
#1935=VECTOR('',#2269,1.0);
#1936=DIRECTION('',(0.0,0.0,1.0));
#1937=CARTESIAN_POINT('',(-23.094010767585,-40.0,0.0));
#1938=DIRECTION('',(0.0,0.0,1.0));
#1939=DIRECTION('',(-0.5,0.866025403784439,0.0));
#1940=DIRECTION('',(-0.0,-0.0,-1.0));
#1941=CARTESIAN_POINT('',(-23.094010767585,-40.0,2000.0));
#1942=DIRECTION('',(-0.0,0.0,-1.0));
#1943=DIRECTION('',(-0.5,0.866025403784439,0.0));
#1944=CARTESIAN_POINT('',(-23.094010767585,-40.0,2000.0));
#1945=DIRECTION('',(-0.0,0.0,-1.0));
#1946=DIRECTION('',(-0.5,0.866025403784439,0.0));
#1947=CARTESIAN_POINT('',(-23.094010767585,-40.0,0.0));
#1948=DIRECTION('',(0.0,0.0,1.0));
#1949=DIRECTION('',(-0.5,0.866025403784439,0.0));
#1950=DIRECTION('',(0.0,0.0,1.0));
#1951=CARTESIAN_POINT('',(46.1880215351701,0.0,0.0));
#1952=DIRECTION('',(0.0,0.0,1.0));
#1953=DIRECTION('',(1.0,0.0,0.0));
#1954=DIRECTION('',(-0.0,-0.0,-1.0));
#1955=CARTESIAN_POINT('',(46.1880215351701,0.0,2000.0));
#1956=DIRECTION('',(0.0,0.0,-1.0));
#1957=DIRECTION('',(1.0,0.0,0.0));
#1958=CARTESIAN_POINT('',(46.1880215351701,0.0,2000.0));
#1959=DIRECTION('',(0.0,0.0,-1.0));
#1960=DIRECTION('',(1.0,0.0,0.0));
#1961=CARTESIAN_POINT('',(46.1880215351701,0.0,0.0));
#1962=DIRECTION('',(0.0,0.0,1.0));
#1963=DIRECTION('',(1.0,0.0,0.0));
#1964=DIRECTION('',(0.0,0.0,1.0));
#1965=CARTESIAN_POINT('',(-23.094010767585,40.0,0.0));
#1966=DIRECTION('',(0.0,0.0,1.0));
#1967=DIRECTION('',(-0.5,-0.866025403784439,0.0));
#1968=DIRECTION('',(-0.0,-0.0,-1.0));
#1969=CARTESIAN_POINT('',(-23.094010767585,40.0,2000.0));
#1970=DIRECTION('',(-0.0,0.0,-1.0));
#1971=DIRECTION('',(-0.5,-0.866025403784439,0.0));
#1972=CARTESIAN_POINT('',(-23.094010767585,40.0,2000.0));
#1973=DIRECTION('',(-0.0,0.0,-1.0));
#1974=DIRECTION('',(-0.5,-0.866025403784439,0.0));
#1975=CARTESIAN_POINT('',(-23.094010767585,40.0,0.0));
#1976=DIRECTION('',(0.0,0.0,1.0));
#1977=DIRECTION('',(-0.5,-0.866025403784439,0.0));
#1978=DIRECTION('',(-0.0,0.0,1.0));
#1979=CARTESIAN_POINT('',(46.1880215351701,0.0,0.0));
#1980=DIRECTION('',(0.0,0.0,-1.0));
#1981=DIRECTION('',(1.0,0.0,0.0));
#1982=DIRECTION('',(-0.0,0.0,-1.0));
#1983=CARTESIAN_POINT('',(46.1880215351701,0.0,2000.0));
#1984=DIRECTION('',(0.0,0.0,1.0));
#1985=DIRECTION('',(1.0,0.0,0.0));
#1986=DIRECTION('',(0.0,0.0,1.0));
#1987=CARTESIAN_POINT('',(46.1880215351701,0.0,0.0));
#1988=DIRECTION('',(0.0,0.0,1.0));
#1989=DIRECTION('',(1.0,0.0,0.0));
#1990=DIRECTION('',(-0.0,-0.0,-1.0));
#1991=CARTESIAN_POINT('',(46.1880215351701,0.0,2000.0));
#1992=DIRECTION('',(0.0,0.0,-1.0));
#1993=DIRECTION('',(1.0,0.0,0.0));
#1994=CARTESIAN_POINT('',(46.1880215351701,0.0,2000.0));
#1995=DIRECTION('',(0.0,0.0,-1.0));
#1996=DIRECTION('',(1.0,0.0,0.0));
#1997=CARTESIAN_POINT('',(46.1880215351701,0.0,0.0));
#1998=DIRECTION('',(0.0,0.0,1.0));
#1999=DIRECTION('',(1.0,0.0,0.0));
#2000=CARTESIAN_POINT('',(46.1880215351701,0.0,2000.0));
#2001=DIRECTION('',(0.0,0.0,1.0));
#2002=DIRECTION('',(1.0,0.0,0.0));
#2003=CARTESIAN_POINT('',(46.1880215351701,0.0,0.0));
#2004=DIRECTION('',(0.0,0.0,-1.0));
#2005=DIRECTION('',(1.0,0.0,0.0));
#2006=DIRECTION('',(-0.0,0.0,1.0));
#2007=CARTESIAN_POINT('',(46.1880215351701,0.0,0.0));
#2008=DIRECTION('',(0.0,0.0,-1.0));
#2009=DIRECTION('',(1.0,0.0,0.0));
#2010=DIRECTION('',(-0.0,0.0,-1.0));
#2011=CARTESIAN_POINT('',(46.1880215351701,0.0,2000.0));
#2012=DIRECTION('',(0.0,0.0,1.0));
#2013=DIRECTION('',(1.0,0.0,0.0));
#2014=DIRECTION('',(0.0,0.0,1.0));
#2015=CARTESIAN_POINT('',(46.1880215351701,0.0,0.0));
#2016=DIRECTION('',(0.0,0.0,1.0));
#2017=DIRECTION('',(1.0,0.0,0.0));
#2018=DIRECTION('',(-0.0,-0.0,-1.0));
#2019=CARTESIAN_POINT('',(46.1880215351701,0.0,2000.0));
#2020=DIRECTION('',(0.0,0.0,-1.0));
#2021=DIRECTION('',(1.0,0.0,0.0));
#2022=CARTESIAN_POINT('',(46.1880215351701,0.0,2000.0));
#2023=DIRECTION('',(0.0,0.0,-1.0));
#2024=DIRECTION('',(1.0,0.0,0.0));
#2025=CARTESIAN_POINT('',(46.1880215351701,0.0,0.0));
#2026=DIRECTION('',(0.0,0.0,1.0));
#2027=DIRECTION('',(1.0,0.0,0.0));
#2028=CARTESIAN_POINT('',(46.1880215351701,0.0,2000.0));
#2029=DIRECTION('',(0.0,0.0,1.0));
#2030=DIRECTION('',(1.0,0.0,0.0));
#2031=CARTESIAN_POINT('',(46.1880215351701,0.0,0.0));
#2032=DIRECTION('',(0.0,0.0,-1.0));
#2033=DIRECTION('',(1.0,0.0,0.0));
#2034=DIRECTION('',(0.0,-0.0,1.0));
#2035=CARTESIAN_POINT('',(-23.094010767585,40.0,0.0));
#2036=DIRECTION('',(0.0,0.0,-1.0));
#2037=DIRECTION('',(-0.5,0.866025403784439,0.0));
#2038=DIRECTION('',(0.0,-0.0,-1.0));
#2039=CARTESIAN_POINT('',(-23.094010767585,40.0,2000.0));
#2040=DIRECTION('',(0.0,0.0,1.0));
#2041=DIRECTION('',(-0.5,0.866025403784439,0.0));
#2042=DIRECTION('',(0.0,0.0,1.0));
#2043=CARTESIAN_POINT('',(-23.094010767585,40.0,0.0));
#2044=DIRECTION('',(0.0,0.0,1.0));
#2045=DIRECTION('',(-0.5,0.866025403784439,0.0));
#2046=DIRECTION('',(-0.0,-0.0,-1.0));
#2047=CARTESIAN_POINT('',(-23.094010767585,40.0,2000.0));
#2048=DIRECTION('',(-0.0,0.0,-1.0));
#2049=DIRECTION('',(-0.5,0.866025403784439,0.0));
#2050=CARTESIAN_POINT('',(-23.094010767585,40.0,2000.0));
#2051=DIRECTION('',(-0.0,0.0,-1.0));
#2052=DIRECTION('',(-0.5,0.866025403784439,0.0));
#2053=CARTESIAN_POINT('',(-23.094010767585,40.0,0.0));
#2054=DIRECTION('',(0.0,0.0,1.0));
#2055=DIRECTION('',(-0.5,0.866025403784439,0.0));
#2056=CARTESIAN_POINT('',(-23.094010767585,40.0,2000.0));
#2057=DIRECTION('',(0.0,0.0,1.0));
#2058=DIRECTION('',(-0.5,0.866025403784439,0.0));
#2059=CARTESIAN_POINT('',(-23.094010767585,40.0,0.0));
#2060=DIRECTION('',(0.0,0.0,-1.0));
#2061=DIRECTION('',(-0.5,0.866025403784439,0.0));
#2062=DIRECTION('',(0.0,-0.0,1.0));
#2063=CARTESIAN_POINT('',(-23.094010767585,40.0,0.0));
#2064=DIRECTION('',(0.0,0.0,-1.0));
#2065=DIRECTION('',(-0.5,0.866025403784439,0.0));
#2066=DIRECTION('',(0.0,-0.0,-1.0));
#2067=CARTESIAN_POINT('',(-23.094010767585,40.0,2000.0));
#2068=DIRECTION('',(0.0,0.0,1.0));
#2069=DIRECTION('',(-0.5,0.866025403784439,0.0));
#2070=DIRECTION('',(0.0,0.0,1.0));
#2071=CARTESIAN_POINT('',(-23.094010767585,40.0,0.0));
#2072=DIRECTION('',(0.0,0.0,1.0));
#2073=DIRECTION('',(-0.5,0.866025403784439,0.0));
#2074=DIRECTION('',(-0.0,-0.0,-1.0));
#2075=CARTESIAN_POINT('',(-23.094010767585,40.0,2000.0));
#2076=DIRECTION('',(-0.0,0.0,-1.0));
#2077=DIRECTION('',(-0.5,0.866025403784439,0.0));
#2078=CARTESIAN_POINT('',(-23.094010767585,40.0,2000.0));
#2079=DIRECTION('',(-0.0,0.0,-1.0));
#2080=DIRECTION('',(-0.5,0.866025403784439,0.0));
#2081=CARTESIAN_POINT('',(-23.094010767585,40.0,0.0));
#2082=DIRECTION('',(0.0,0.0,1.0));
#2083=DIRECTION('',(-0.5,0.866025403784439,0.0));
#2084=CARTESIAN_POINT('',(-23.094010767585,40.0,2000.0));
#2085=DIRECTION('',(0.0,0.0,1.0));
#2086=DIRECTION('',(-0.5,0.866025403784439,0.0));
#2087=CARTESIAN_POINT('',(-23.094010767585,40.0,0.0));
#2088=DIRECTION('',(0.0,0.0,-1.0));
#2089=DIRECTION('',(-0.5,0.866025403784439,0.0));
#2090=DIRECTION('',(0.0,0.0,1.0));
#2091=CARTESIAN_POINT('',(-23.0940107675851,-40.0,0.0));
#2092=DIRECTION('',(-0.0,0.0,-1.0));
#2093=DIRECTION('',(-0.5,-0.866025403784438,0.0));
#2094=DIRECTION('',(0.0,0.0,-1.0));
#2095=CARTESIAN_POINT('',(-23.0940107675851,-40.0,2000.0));
#2096=DIRECTION('',(0.0,0.0,1.0));
#2097=DIRECTION('',(-0.5,-0.866025403784438,0.0));
#2098=DIRECTION('',(0.0,0.0,1.0));
#2099=CARTESIAN_POINT('',(-23.0940107675851,-40.0,0.0));
#2100=DIRECTION('',(0.0,0.0,1.0));
#2101=DIRECTION('',(-0.5,-0.866025403784438,0.0));
#2102=DIRECTION('',(-0.0,-0.0,-1.0));
#2103=CARTESIAN_POINT('',(-23.0940107675851,-40.0,2000.0));
#2104=DIRECTION('',(-0.0,0.0,-1.0));
#2105=DIRECTION('',(-0.5,-0.866025403784438,0.0));
#2106=CARTESIAN_POINT('',(-23.0940107675851,-40.0,2000.0));
#2107=DIRECTION('',(-0.0,0.0,-1.0));
#2108=DIRECTION('',(-0.5,-0.866025403784438,0.0));
#2109=CARTESIAN_POINT('',(-23.0940107675851,-40.0,0.0));
#2110=DIRECTION('',(0.0,0.0,1.0));
#2111=DIRECTION('',(-0.5,-0.866025403784438,0.0));
#2112=CARTESIAN_POINT('',(-23.0940107675851,-40.0,2000.0));
#2113=DIRECTION('',(0.0,0.0,1.0));
#2114=DIRECTION('',(-0.5,-0.866025403784438,0.0));
#2115=CARTESIAN_POINT('',(-23.0940107675851,-40.0,0.0));
#2116=DIRECTION('',(-0.0,0.0,-1.0));
#2117=DIRECTION('',(-0.5,-0.866025403784438,0.0));
#2118=DIRECTION('',(0.0,0.0,1.0));
#2119=CARTESIAN_POINT('',(-23.0940107675851,-40.0,0.0));
#2120=DIRECTION('',(-0.0,0.0,-1.0));
#2121=DIRECTION('',(-0.5,-0.866025403784438,0.0));
#2122=DIRECTION('',(0.0,0.0,-1.0));
#2123=CARTESIAN_POINT('',(-23.0940107675851,-40.0,2000.0));
#2124=DIRECTION('',(0.0,0.0,1.0));
#2125=DIRECTION('',(-0.5,-0.866025403784438,0.0));
#2126=DIRECTION('',(0.0,0.0,1.0));
#2127=CARTESIAN_POINT('',(-23.0940107675851,-40.0,0.0));
#2128=DIRECTION('',(0.0,0.0,1.0));
#2129=DIRECTION('',(-0.5,-0.866025403784438,0.0));
#2130=DIRECTION('',(-0.0,-0.0,-1.0));
#2131=CARTESIAN_POINT('',(-23.0940107675851,-40.0,2000.0));
#2132=DIRECTION('',(-0.0,0.0,-1.0));
#2133=DIRECTION('',(-0.5,-0.866025403784438,0.0));
#2134=CARTESIAN_POINT('',(-23.0940107675851,-40.0,2000.0));
#2135=DIRECTION('',(-0.0,0.0,-1.0));
#2136=DIRECTION('',(-0.5,-0.866025403784438,0.0));
#2137=CARTESIAN_POINT('',(-23.0940107675851,-40.0,0.0));
#2138=DIRECTION('',(0.0,0.0,1.0));
#2139=DIRECTION('',(-0.5,-0.866025403784438,0.0));
#2140=CARTESIAN_POINT('',(-23.0940107675851,-40.0,2000.0));
#2141=DIRECTION('',(0.0,0.0,1.0));
#2142=DIRECTION('',(-0.5,-0.866025403784438,0.0));
#2143=CARTESIAN_POINT('',(-23.0940107675851,-40.0,0.0));
#2144=DIRECTION('',(-0.0,0.0,-1.0));
#2145=DIRECTION('',(-0.5,-0.866025403784438,0.0));
#2146=DIRECTION('',(-0.0,0.0,1.0));
#2147=CARTESIAN_POINT('',(0.0,0.0,0.0));
#2148=DIRECTION('',(0.0,0.0,-1.0));
#2149=DIRECTION('',(1.0,0.0,0.0));
#2150=DIRECTION('',(-0.0,0.0,-1.0));
#2151=CARTESIAN_POINT('',(0.0,0.0,2000.0));
#2152=DIRECTION('',(0.0,0.0,1.0));
#2153=DIRECTION('',(1.0,0.0,0.0));
#2154=DIRECTION('',(0.0,0.0,1.0));
#2155=CARTESIAN_POINT('',(0.0,0.0,0.0));
#2156=DIRECTION('',(0.0,0.0,1.0));
#2157=DIRECTION('',(1.0,0.0,0.0));
#2158=DIRECTION('',(-0.0,-0.0,-1.0));
#2159=CARTESIAN_POINT('',(0.0,0.0,2000.0));
#2160=DIRECTION('',(0.0,0.0,-1.0));
#2161=DIRECTION('',(1.0,0.0,0.0));
#2162=CARTESIAN_POINT('',(0.0,0.0,2000.0));
#2163=DIRECTION('',(0.0,0.0,-1.0));
#2164=DIRECTION('',(1.0,0.0,0.0));
#2165=CARTESIAN_POINT('',(0.0,0.0,0.0));
#2166=DIRECTION('',(0.0,0.0,1.0));
#2167=DIRECTION('',(1.0,0.0,0.0));
#2168=CARTESIAN_POINT('',(0.0,0.0,2000.0));
#2169=DIRECTION('',(0.0,0.0,1.0));
#2170=DIRECTION('',(1.0,0.0,0.0));
#2171=CARTESIAN_POINT('',(0.0,0.0,0.0));
#2172=DIRECTION('',(0.0,0.0,-1.0));
#2173=DIRECTION('',(1.0,0.0,0.0));
#2174=DIRECTION('',(-0.0,0.0,1.0));
#2175=CARTESIAN_POINT('',(0.0,0.0,0.0));
#2176=DIRECTION('',(0.0,0.0,-1.0));
#2177=DIRECTION('',(1.0,0.0,0.0));
#2178=DIRECTION('',(-0.0,0.0,-1.0));
#2179=CARTESIAN_POINT('',(0.0,0.0,2000.0));
#2180=DIRECTION('',(0.0,0.0,1.0));
#2181=DIRECTION('',(1.0,0.0,0.0));
#2182=DIRECTION('',(0.0,0.0,1.0));
#2183=CARTESIAN_POINT('',(0.0,0.0,0.0));
#2184=DIRECTION('',(0.0,0.0,1.0));
#2185=DIRECTION('',(1.0,0.0,0.0));
#2186=DIRECTION('',(-0.0,-0.0,-1.0));
#2187=CARTESIAN_POINT('',(0.0,0.0,2000.0));
#2188=DIRECTION('',(0.0,0.0,-1.0));
#2189=DIRECTION('',(1.0,0.0,0.0));
#2190=CARTESIAN_POINT('',(0.0,0.0,2000.0));
#2191=DIRECTION('',(0.0,0.0,-1.0));
#2192=DIRECTION('',(1.0,0.0,0.0));
#2193=CARTESIAN_POINT('',(0.0,0.0,0.0));
#2194=DIRECTION('',(0.0,0.0,1.0));
#2195=DIRECTION('',(1.0,0.0,0.0));
#2196=CARTESIAN_POINT('',(0.0,0.0,2000.0));
#2197=DIRECTION('',(0.0,0.0,1.0));
#2198=DIRECTION('',(1.0,0.0,0.0));
#2199=CARTESIAN_POINT('',(0.0,0.0,0.0));
#2200=DIRECTION('',(0.0,0.0,-1.0));
#2201=DIRECTION('',(1.0,0.0,0.0));
#2202=DIRECTION('',(-0.0,0.0,1.0));
#2203=CARTESIAN_POINT('',(0.0,0.0,0.0));
#2204=DIRECTION('',(0.0,0.0,-1.0));
#2205=DIRECTION('',(1.0,0.0,0.0));
#2206=DIRECTION('',(-0.0,0.0,-1.0));
#2207=CARTESIAN_POINT('',(0.0,0.0,2000.0));
#2208=DIRECTION('',(0.0,0.0,1.0));
#2209=DIRECTION('',(1.0,0.0,0.0));
#2210=DIRECTION('',(0.0,0.0,1.0));
#2211=CARTESIAN_POINT('',(0.0,0.0,0.0));
#2212=DIRECTION('',(0.0,0.0,1.0));
#2213=DIRECTION('',(1.0,0.0,0.0));
#2214=DIRECTION('',(-0.0,-0.0,-1.0));
#2215=CARTESIAN_POINT('',(0.0,0.0,2000.0));
#2216=DIRECTION('',(0.0,0.0,-1.0));
#2217=DIRECTION('',(1.0,0.0,0.0));
#2218=CARTESIAN_POINT('',(0.0,0.0,2000.0));
#2219=DIRECTION('',(0.0,0.0,-1.0));
#2220=DIRECTION('',(1.0,0.0,0.0));
#2221=CARTESIAN_POINT('',(0.0,0.0,0.0));
#2222=DIRECTION('',(0.0,0.0,1.0));
#2223=DIRECTION('',(1.0,0.0,0.0));
#2224=CARTESIAN_POINT('',(0.0,0.0,2000.0));
#2225=DIRECTION('',(0.0,0.0,1.0));
#2226=DIRECTION('',(1.0,0.0,0.0));
#2227=CARTESIAN_POINT('',(0.0,0.0,0.0));
#2228=DIRECTION('',(0.0,0.0,-1.0));
#2229=DIRECTION('',(1.0,0.0,0.0));
#2230=DIRECTION('',(-0.0,0.0,1.0));
#2231=CARTESIAN_POINT('',(0.0,0.0,0.0));
#2232=DIRECTION('',(0.0,0.0,-1.0));
#2233=DIRECTION('',(1.0,0.0,0.0));
#2234=DIRECTION('',(-0.0,0.0,-1.0));
#2235=CARTESIAN_POINT('',(0.0,0.0,2000.0));
#2236=DIRECTION('',(0.0,0.0,1.0));
#2237=DIRECTION('',(1.0,0.0,0.0));
#2238=DIRECTION('',(0.0,0.0,1.0));
#2239=CARTESIAN_POINT('',(0.0,0.0,0.0));
#2240=DIRECTION('',(0.0,0.0,1.0));
#2241=DIRECTION('',(1.0,0.0,0.0));
#2242=DIRECTION('',(-0.0,-0.0,-1.0));
#2243=CARTESIAN_POINT('',(0.0,0.0,2000.0));
#2244=DIRECTION('',(0.0,0.0,-1.0));
#2245=DIRECTION('',(1.0,0.0,0.0));
#2246=CARTESIAN_POINT('',(0.0,0.0,2000.0));
#2247=DIRECTION('',(0.0,0.0,-1.0));
#2248=DIRECTION('',(1.0,0.0,0.0));
#2249=CARTESIAN_POINT('',(0.0,0.0,0.0));
#2250=DIRECTION('',(0.0,0.0,1.0));
#2251=DIRECTION('',(1.0,0.0,0.0));
#2252=CARTESIAN_POINT('',(0.0,0.0,2000.0));
#2253=DIRECTION('',(0.0,0.0,1.0));
#2254=DIRECTION('',(1.0,0.0,0.0));
#2255=CARTESIAN_POINT('',(0.0,0.0,0.0));
#2256=DIRECTION('',(0.0,0.0,-1.0));
#2257=DIRECTION('',(1.0,0.0,0.0));
#2258=DIRECTION('',(0.0,-1.0,0.0));
#2259=DIRECTION('',(0.0,0.0,1.0));
#2260=DIRECTION('',(0.0,-1.0,0.0));
#2261=DIRECTION('',(0.0,0.0,1.0));
#2262=DIRECTION('',(-1.0,0.0,0.0));
#2263=DIRECTION('',(0.0,0.0,1.0));
#2264=DIRECTION('',(-1.0,0.0,0.0));
#2265=DIRECTION('',(0.0,1.0,0.0));
#2266=DIRECTION('',(0.0,0.0,1.0));
#2267=DIRECTION('',(0.0,1.0,0.0));
#2268=DIRECTION('',(1.0,0.0,0.0));
#2269=DIRECTION('',(1.0,0.0,0.0));
ENDSEC;
END-ISO-10303-21;
