ISO-10303-21;
HEADER;
FILE_DESCRIPTION(('STEP AP214'),'1');
FILE_NAME('star_quad_cable_short.stp','2025-03-27T02:22:12',(' '),(' '),'Spatial InterOp 3D',' ',' ');
FILE_SCHEMA(('AUTOMOTIVE_DESIGN { 1 0 10303 214 1 1 1 1 }'));
ENDSEC;
DATA;
#1=PRODUCT_DEFINITION_CONTEXT('',#9,'design');
#2=APPLICATION_PROTOCOL_DEFINITION('INTERNATIONAL STANDARD','automotive_design',1994,#9);
#3=PRODUCT_CATEGORY_RELATIONSHIP('NONE','NONE',#10,#11);
#4=SHAPE_DEFINITION_REPRESENTATION(#12,#13);
#5= (GEOMETRIC_REPRESENTATION_CONTEXT(3)GLOBAL_UNCERTAINTY_ASSIGNED_CONTEXT((#16))GLOBAL_UNIT_ASSIGNED_CONTEXT((#18,#19,#20))REPRESENTATION_CONTEXT('NONE','WORKSPACE'));
#9=APPLICATION_CONTEXT(' ');
#10=PRODUCT_CATEGORY('part','NONE');
#11=PRODUCT_RELATED_PRODUCT_CATEGORY('detail',' ',(#22));
#12=PRODUCT_DEFINITION_SHAPE('NONE','NONE',#23);
#13=GEOMETRICALLY_BOUNDED_SURFACE_SHAPE_REPRESENTATION('1',(#24,#25),#5);
#16=UNCERTAINTY_MEASURE_WITH_UNIT(LENGTH_MEASURE(1.0E-06),#18,'','');
#18= (CONVERSION_BASED_UNIT('MILLIMETRE',#28)LENGTH_UNIT()NAMED_UNIT(#31));
#19= (NAMED_UNIT(#33)PLANE_ANGLE_UNIT()SI_UNIT($,.RADIAN.));
#20= (NAMED_UNIT(#33)SOLID_ANGLE_UNIT()SI_UNIT($,.STERADIAN.));
#22=PRODUCT('1','','PART--DESC',(#39));
#23=PRODUCT_DEFINITION('','NONE',#40,#1);
#24=GEOMETRIC_SET('1',(#41,#42,#43,#44,#45,#46,#47,#48,#49,#50,#51,#52,#53,#54,#55,#56));
#25=AXIS2_PLACEMENT_3D('',#57,#58,#59);
#28=LENGTH_MEASURE_WITH_UNIT(LENGTH_MEASURE(1.0),#60);
#31=DIMENSIONAL_EXPONENTS(1.0,0.0,0.0,0.0,0.0,0.0,0.0);
#33=DIMENSIONAL_EXPONENTS(0.0,0.0,0.0,0.0,0.0,0.0,0.0);
#39=PRODUCT_CONTEXT('',#9,'mechanical');
#40=PRODUCT_DEFINITION_FORMATION_WITH_SPECIFIED_SOURCE(' ','NONE',#22,.NOT_KNOWN.);
#41=COMPOSITE_CURVE('',(#61),.U.);
#42=COMPOSITE_CURVE('',(#62),.U.);
#43=COMPOSITE_CURVE('',(#63),.U.);
#44=COMPOSITE_CURVE('',(#64),.U.);
#45=COMPOSITE_CURVE('',(#65),.U.);
#46=COMPOSITE_CURVE('',(#66),.U.);
#47=COMPOSITE_CURVE('',(#67),.U.);
#48=COMPOSITE_CURVE('',(#68),.U.);
#49=COMPOSITE_CURVE('',(#69),.U.);
#50=COMPOSITE_CURVE('',(#70),.U.);
#51=COMPOSITE_CURVE('',(#71),.U.);
#52=COMPOSITE_CURVE('',(#72),.U.);
#53=COMPOSITE_CURVE('',(#73),.U.);
#54=COMPOSITE_CURVE('',(#74),.U.);
#55=COMPOSITE_CURVE('',(#75),.U.);
#56=COMPOSITE_CURVE('',(#76),.U.);
#57=CARTESIAN_POINT('',(0.0,0.0,0.0));
#58=DIRECTION('',(0.0,0.0,1.0));
#59=DIRECTION('',(1.0,0.0,0.0));
#60= (NAMED_UNIT(#31)LENGTH_UNIT()SI_UNIT(.MILLI.,.METRE.));
#61=COMPOSITE_CURVE_SEGMENT(.CONTINUOUS.,.T.,#78);
#62=COMPOSITE_CURVE_SEGMENT(.CONTINUOUS.,.T.,#79);
#63=COMPOSITE_CURVE_SEGMENT(.CONTINUOUS.,.T.,#80);
#64=COMPOSITE_CURVE_SEGMENT(.CONTINUOUS.,.T.,#81);
#65=COMPOSITE_CURVE_SEGMENT(.CONTINUOUS.,.T.,#82);
#66=COMPOSITE_CURVE_SEGMENT(.CONTINUOUS.,.T.,#83);
#67=COMPOSITE_CURVE_SEGMENT(.CONTINUOUS.,.T.,#84);
#68=COMPOSITE_CURVE_SEGMENT(.CONTINUOUS.,.T.,#85);
#69=COMPOSITE_CURVE_SEGMENT(.CONTINUOUS.,.T.,#86);
#70=COMPOSITE_CURVE_SEGMENT(.CONTINUOUS.,.T.,#87);
#71=COMPOSITE_CURVE_SEGMENT(.CONTINUOUS.,.T.,#88);
#72=COMPOSITE_CURVE_SEGMENT(.CONTINUOUS.,.T.,#89);
#73=COMPOSITE_CURVE_SEGMENT(.CONTINUOUS.,.T.,#90);
#74=COMPOSITE_CURVE_SEGMENT(.CONTINUOUS.,.T.,#91);
#75=COMPOSITE_CURVE_SEGMENT(.CONTINUOUS.,.T.,#92);
#76=COMPOSITE_CURVE_SEGMENT(.CONTINUOUS.,.T.,#93);
#78=TRIMMED_CURVE('',#94,(PARAMETER_VALUE(0.0)),(PARAMETER_VALUE(0.10122618292728)),.T.,.UNSPECIFIED.);
#79=TRIMMED_CURVE('',#95,(PARAMETER_VALUE(0.0)),(PARAMETER_VALUE(0.10122618292728)),.T.,.UNSPECIFIED.);
#80=TRIMMED_CURVE('',#96,(PARAMETER_VALUE(0.0)),(PARAMETER_VALUE(0.10122618292728)),.T.,.UNSPECIFIED.);
#81=TRIMMED_CURVE('',#97,(PARAMETER_VALUE(0.0)),(PARAMETER_VALUE(0.10122618292728)),.T.,.UNSPECIFIED.);
#82=TRIMMED_CURVE('',#98,(PARAMETER_VALUE(0.0)),(PARAMETER_VALUE(0.01)),.T.,.UNSPECIFIED.);
#83=TRIMMED_CURVE('',#99,(PARAMETER_VALUE(0.0)),(PARAMETER_VALUE(0.00125)),.T.,.UNSPECIFIED.);
#84=TRIMMED_CURVE('',#100,(PARAMETER_VALUE(0.0)),(PARAMETER_VALUE(0.005)),.T.,.UNSPECIFIED.);
#85=TRIMMED_CURVE('',#101,(PARAMETER_VALUE(0.0)),(PARAMETER_VALUE(0.00125)),.T.,.UNSPECIFIED.);
#86=TRIMMED_CURVE('',#102,(PARAMETER_VALUE(0.0)),(PARAMETER_VALUE(0.00125)),.T.,.UNSPECIFIED.);
#87=TRIMMED_CURVE('',#103,(PARAMETER_VALUE(0.0)),(PARAMETER_VALUE(0.00125)),.T.,.UNSPECIFIED.);
#88=TRIMMED_CURVE('',#104,(PARAMETER_VALUE(0.0)),(PARAMETER_VALUE(0.00125)),.T.,.UNSPECIFIED.);
#89=TRIMMED_CURVE('',#105,(PARAMETER_VALUE(0.0)),(PARAMETER_VALUE(0.00125)),.T.,.UNSPECIFIED.);
#90=TRIMMED_CURVE('',#106,(PARAMETER_VALUE(0.0)),(PARAMETER_VALUE(0.00125)),.T.,.UNSPECIFIED.);
#91=TRIMMED_CURVE('',#107,(PARAMETER_VALUE(0.0)),(PARAMETER_VALUE(0.00500000000000003)),.T.,.UNSPECIFIED.);
#92=TRIMMED_CURVE('',#108,(PARAMETER_VALUE(0.0)),(PARAMETER_VALUE(0.00125)),.T.,.UNSPECIFIED.);
#93=TRIMMED_CURVE('',#109,(PARAMETER_VALUE(0.0)),(PARAMETER_VALUE(0.01)),.T.,.UNSPECIFIED.);
#94=B_SPLINE_CURVE_WITH_KNOTS('',3,(#110,#111,#112,#113,#114,#115,#116,#117,#118,#119,#120,#121,#122,#123,#124,#125,#126,#127,#128,#129,#130,#131,#132,#133,#134,#135,#136,#137,#138,#139,#140,#141,#142,#143),.UNSPECIFIED.,.F.,.F.,(4,2,2,2,2,2,2,2,2,2,2,2,2,2,2,2,4),(0.0,0.00632663643295502,0.01265327286591,0.0189799092988651,0.0253065457318201,0.0316331821647751,0.0379598185977301,0.0442864550306852,0.0506130914636402,0.0569397278965952,0.0632663643295502,0.0695930007625053,0.0759196371954603,0.0822462736284153,0.0885729100613703,0.0948995464943254,0.10122618292728),.UNSPECIFIED.);
#95=B_SPLINE_CURVE_WITH_KNOTS('',3,(#144,#145,#146,#147,#148,#149,#150,#151,#152,#153,#154,#155,#156,#157,#158,#159,#160,#161,#162,#163,#164,#165,#166,#167,#168,#169,#170,#171,#172,#173,#174,#175,#176,#177),.UNSPECIFIED.,.F.,.F.,(4,2,2,2,2,2,2,2,2,2,2,2,2,2,2,2,4),(0.0,0.00632663643295502,0.01265327286591,0.0189799092988651,0.0253065457318201,0.0316331821647751,0.0379598185977301,0.0442864550306852,0.0506130914636402,0.0569397278965952,0.0632663643295502,0.0695930007625053,0.0759196371954603,0.0822462736284153,0.0885729100613703,0.0948995464943254,0.10122618292728),.UNSPECIFIED.);
#96=B_SPLINE_CURVE_WITH_KNOTS('',3,(#178,#179,#180,#181,#182,#183,#184,#185,#186,#187,#188,#189,#190,#191,#192,#193,#194,#195,#196,#197,#198,#199,#200,#201,#202,#203,#204,#205,#206,#207,#208,#209,#210,#211),.UNSPECIFIED.,.F.,.F.,(4,2,2,2,2,2,2,2,2,2,2,2,2,2,2,2,4),(0.0,0.00632663643295502,0.01265327286591,0.0189799092988651,0.0253065457318201,0.0316331821647751,0.0379598185977301,0.0442864550306852,0.0506130914636402,0.0569397278965952,0.0632663643295502,0.0695930007625053,0.0759196371954603,0.0822462736284153,0.0885729100613703,0.0948995464943254,0.10122618292728),.UNSPECIFIED.);
#97=B_SPLINE_CURVE_WITH_KNOTS('',3,(#212,#213,#214,#215,#216,#217,#218,#219,#220,#221,#222,#223,#224,#225,#226,#227,#228,#229,#230,#231,#232,#233,#234,#235,#236,#237,#238,#239,#240,#241,#242,#243,#244,#245),.UNSPECIFIED.,.F.,.F.,(4,2,2,2,2,2,2,2,2,2,2,2,2,2,2,2,4),(0.0,0.00632663643295502,0.01265327286591,0.0189799092988651,0.0253065457318201,0.0316331821647751,0.0379598185977301,0.0442864550306852,0.0506130914636402,0.0569397278965952,0.0632663643295502,0.0695930007625053,0.0759196371954603,0.0822462736284153,0.0885729100613703,0.0948995464943254,0.10122618292728),.UNSPECIFIED.);
#98=LINE('',#246,#247);
#99=LINE('',#248,#249);
#100=LINE('',#250,#251);
#101=LINE('',#252,#253);
#102=LINE('',#254,#255);
#103=LINE('',#256,#257);
#104=LINE('',#258,#259);
#105=LINE('',#260,#261);
#106=LINE('',#262,#263);
#107=LINE('',#264,#265);
#108=LINE('',#266,#267);
#109=LINE('',#268,#269);
#110=CARTESIAN_POINT('',(0.0,0.0,11.25));
#111=CARTESIAN_POINT('',(0.327271103949105,2.0834725623371,11.2499796860387));
#112=CARTESIAN_POINT('',(0.652497687229897,4.1666666666665,11.1152979921006));
#113=CARTESIAN_POINT('',(1.11526926573647,8.33333333333349,10.6524689608658));
#114=CARTESIAN_POINT('',(1.25002031260605,10.416666666672,10.3272492339091));
#115=CARTESIAN_POINT('',(1.24997968739395,14.583333333328,9.6727507660909));
#116=CARTESIAN_POINT('',(1.11529799209941,16.6666666666647,9.34750231277125));
#117=CARTESIAN_POINT('',(0.65246896086696,20.8333333333353,8.88473073426239));
#118=CARTESIAN_POINT('',(0.327249233908364,22.916666666672,8.74997968739624));
#119=CARTESIAN_POINT('',(-0.32724923390836,27.083333333328,8.75002031260377));
#120=CARTESIAN_POINT('',(-0.652497687230126,29.1666666666647,8.88470200789945));
#121=CARTESIAN_POINT('',(-1.11526926573624,33.3333333333353,9.34753103913418));
#122=CARTESIAN_POINT('',(-1.25002031260605,35.4166666666647,9.6727507660909));
#123=CARTESIAN_POINT('',(-1.24997968739395,39.5833333333353,10.3272492339091));
#124=CARTESIAN_POINT('',(-1.11529799210124,41.6666666666793,10.6524976872251));
#125=CARTESIAN_POINT('',(-0.652468960865134,45.8333333333207,11.1152692657413));
#126=CARTESIAN_POINT('',(-0.327249233908368,47.9166666666646,11.2500203126038));
#127=CARTESIAN_POINT('',(0.327249233908356,52.0833333333353,11.2499796873962));
#128=CARTESIAN_POINT('',(0.652497687230121,54.1666666666646,11.1152979921006));
#129=CARTESIAN_POINT('',(1.11526926573624,58.3333333333353,10.6524689608658));
#130=CARTESIAN_POINT('',(1.25002031260605,60.41666666665,10.3272492339091));
#131=CARTESIAN_POINT('',(1.24997968739395,64.58333333335,9.6727507660909));
#132=CARTESIAN_POINT('',(1.11529799209781,66.66666666665,9.34750231276759));
#133=CARTESIAN_POINT('',(0.652468960868562,70.8333333333499,8.88473073426604));
#134=CARTESIAN_POINT('',(0.32724923390602,72.91666666665,8.74997968739624));
#135=CARTESIAN_POINT('',(-0.327249233906023,77.08333333335,8.75002031260377));
#136=CARTESIAN_POINT('',(-0.6524976872283,79.1666666666501,8.88470200789945));
#137=CARTESIAN_POINT('',(-1.11526926573808,83.33333333335,9.34753103913419));
#138=CARTESIAN_POINT('',(-1.25002031260605,85.4166666667085,9.67275076608723));
#139=CARTESIAN_POINT('',(-1.24997968739395,89.5833333332914,10.3272492339128));
#140=CARTESIAN_POINT('',(-1.11529799210124,91.6666666666501,10.6524976872288));
#141=CARTESIAN_POINT('',(-0.652468960865129,95.83333333335,11.1152692657376));
#142=CARTESIAN_POINT('',(-0.327271630275588,97.9165240869625,11.2500203139939));
#143=CARTESIAN_POINT('',(-2.83276944882399E-15,100.0,11.25));
#144=CARTESIAN_POINT('',(1.25,0.0,10.0));
#145=CARTESIAN_POINT('',(1.24997968603646,2.08347256233712,9.67272889605018));
#146=CARTESIAN_POINT('',(1.11529799209918,4.1666666666665,9.34750231277125));
#147=CARTESIAN_POINT('',(0.65246896086719,8.33333333333349,8.88473073426239));
#148=CARTESIAN_POINT('',(0.327249233908363,10.416666666672,8.74997968739624));
#149=CARTESIAN_POINT('',(-0.327249233908361,14.583333333328,8.75002031260377));
#150=CARTESIAN_POINT('',(-0.652497687229898,16.6666666666647,8.88470200790311));
#151=CARTESIAN_POINT('',(-1.11526926573647,20.8333333333353,9.34753103913053));
#152=CARTESIAN_POINT('',(-1.25002031260605,22.916666666672,9.67275076609089));
#153=CARTESIAN_POINT('',(-1.24997968739395,27.083333333328,10.3272492339091));
#154=CARTESIAN_POINT('',(-1.11529799209941,29.1666666666647,10.6524976872324));
#155=CARTESIAN_POINT('',(-0.652468960866961,33.3333333333353,11.115269265734));
#156=CARTESIAN_POINT('',(-0.327249233908363,35.4166666666647,11.2500203126038));
#157=CARTESIAN_POINT('',(0.327249233908362,39.5833333333353,11.2499796873962));
#158=CARTESIAN_POINT('',(0.652497687228294,41.6666666666793,11.1152979921006));
#159=CARTESIAN_POINT('',(1.11526926573807,45.8333333333207,10.6524689608658));
#160=CARTESIAN_POINT('',(1.25002031260605,47.9166666666646,10.3272492339055));
#161=CARTESIAN_POINT('',(1.24997968739395,52.0833333333353,9.67275076609456));
#162=CARTESIAN_POINT('',(1.11529799209758,54.1666666666646,9.34750231277125));
#163=CARTESIAN_POINT('',(0.652468960868794,58.3333333333353,8.88473073426239));
#164=CARTESIAN_POINT('',(0.327249233906021,60.41666666665,8.74997968739624));
#165=CARTESIAN_POINT('',(-0.327249233906021,64.58333333335,8.75002031260377));
#166=CARTESIAN_POINT('',(-0.652497687231725,66.66666666665,8.88470200789945));
#167=CARTESIAN_POINT('',(-1.11526926573464,70.8333333333499,9.34753103913418));
#168=CARTESIAN_POINT('',(-1.25002031260605,72.91666666665,9.67275076609456));
#169=CARTESIAN_POINT('',(-1.24997968739395,77.08333333335,10.3272492339054));
#170=CARTESIAN_POINT('',(-1.11529799210101,79.1666666666501,10.6524976872288));
#171=CARTESIAN_POINT('',(-0.652468960865357,83.33333333335,11.1152692657376));
#172=CARTESIAN_POINT('',(-0.327249233910715,85.4166666667085,11.2500203126038));
#173=CARTESIAN_POINT('',(0.327249233910691,89.5833333332914,11.2499796873962));
#174=CARTESIAN_POINT('',(0.65249768722807,91.6666666666501,11.1152979921006));
#175=CARTESIAN_POINT('',(1.1152692657383,95.83333333335,10.6524689608658));
#176=CARTESIAN_POINT('',(1.25002031399621,97.9165240869628,10.3272716302776));
#177=CARTESIAN_POINT('',(1.25,100.0,10.0));
#178=CARTESIAN_POINT('',(1.53080849893419E-16,0.0,8.75));
#179=CARTESIAN_POINT('',(-0.327271103949078,2.08347256233711,8.75002031396125));
#180=CARTESIAN_POINT('',(-0.652497687229897,4.1666666666665,8.88470200789945));
#181=CARTESIAN_POINT('',(-1.11526926573647,8.33333333333349,9.34753103913418));
#182=CARTESIAN_POINT('',(-1.25002031260605,10.416666666672,9.67275076609089));
#183=CARTESIAN_POINT('',(-1.24997968739395,14.583333333328,10.3272492339091));
#184=CARTESIAN_POINT('',(-1.11529799209941,16.6666666666647,10.6524976872288));
#185=CARTESIAN_POINT('',(-0.65246896086696,20.8333333333353,11.1152692657376));
#186=CARTESIAN_POINT('',(-0.327249233910706,22.916666666672,11.2500203126038));
#187=CARTESIAN_POINT('',(0.327249233910701,27.083333333328,11.2499796873962));
#188=CARTESIAN_POINT('',(0.652497687229897,29.1666666666647,11.1152979921006));
#189=CARTESIAN_POINT('',(1.11526926573647,33.3333333333353,10.6524689608658));
#190=CARTESIAN_POINT('',(1.25002031260605,35.4166666666647,10.3272492339091));
#191=CARTESIAN_POINT('',(1.24997968739395,39.5833333333353,9.6727507660909));
#192=CARTESIAN_POINT('',(1.11529799210124,41.6666666666793,9.34750231277125));
#193=CARTESIAN_POINT('',(0.652468960865134,45.8333333333207,8.88473073426239));
#194=CARTESIAN_POINT('',(0.327249233906026,47.9166666666646,8.74997968739624));
#195=CARTESIAN_POINT('',(-0.327249233906016,52.0833333333353,8.75002031260377));
#196=CARTESIAN_POINT('',(-0.652497687228291,54.1666666666646,8.88470200789944));
#197=CARTESIAN_POINT('',(-1.11526926573807,58.3333333333353,9.34753103913418));
#198=CARTESIAN_POINT('',(-1.25002031260605,60.41666666665,9.6727507660909));
#199=CARTESIAN_POINT('',(-1.24997968739395,64.58333333335,10.3272492339091));
#200=CARTESIAN_POINT('',(-1.11529799209758,66.66666666665,10.6524976872324));
#201=CARTESIAN_POINT('',(-0.652468960868791,70.83333333335,11.115269265734));
#202=CARTESIAN_POINT('',(-0.32724923390602,72.91666666665,11.2500203126038));
#203=CARTESIAN_POINT('',(0.327249233906023,77.08333333335,11.2499796873962));
#204=CARTESIAN_POINT('',(0.652497687228528,79.1666666666501,11.1152979921005));
#205=CARTESIAN_POINT('',(1.11526926573785,83.33333333335,10.6524689608658));
#206=CARTESIAN_POINT('',(1.25002031260605,85.4166666667085,10.3272492339128));
#207=CARTESIAN_POINT('',(1.24997968739395,89.5833333332914,9.67275076608725));
#208=CARTESIAN_POINT('',(1.11529799210101,91.6666666666501,9.34750231277124));
#209=CARTESIAN_POINT('',(0.652468960865358,95.83333333335,8.88473073426238));
#210=CARTESIAN_POINT('',(0.327271630275598,97.9165240869625,8.74997968600608));
#211=CARTESIAN_POINT('',(2.98585029871741E-15,100.0,8.75));
#212=CARTESIAN_POINT('',(-1.25,0.0,10.0));
#213=CARTESIAN_POINT('',(-1.24997968603646,2.08347256233712,10.3272711039498));
#214=CARTESIAN_POINT('',(-1.11529799209987,4.1666666666665,10.6524976872288));
#215=CARTESIAN_POINT('',(-0.652468960866504,8.33333333333349,11.1152692657376));
#216=CARTESIAN_POINT('',(-0.327249233908364,10.416666666672,11.2500203126038));
#217=CARTESIAN_POINT('',(0.327249233908361,14.583333333328,11.2499796873962));
#218=CARTESIAN_POINT('',(0.652497687229898,16.6666666666647,11.1152979920969));
#219=CARTESIAN_POINT('',(1.11526926573647,20.8333333333353,10.6524689608695));
#220=CARTESIAN_POINT('',(1.25002031260605,22.916666666672,10.3272492339128));
#221=CARTESIAN_POINT('',(1.24997968739395,27.083333333328,9.67275076608724));
#222=CARTESIAN_POINT('',(1.11529799210101,29.1666666666647,9.34750231277125));
#223=CARTESIAN_POINT('',(0.652468960865361,33.3333333333353,8.88473073426239));
#224=CARTESIAN_POINT('',(0.327249233906022,35.4166666666647,8.74997968739624));
#225=CARTESIAN_POINT('',(-0.327249233906021,39.5833333333353,8.75002031260377));
#226=CARTESIAN_POINT('',(-0.652497687228523,41.6666666666793,8.88470200789945));
#227=CARTESIAN_POINT('',(-1.11526926573784,45.8333333333207,9.34753103913418));
#228=CARTESIAN_POINT('',(-1.25002031260605,47.9166666666646,9.67275076609089));
#229=CARTESIAN_POINT('',(-1.24997968739395,52.0833333333353,10.3272492339091));
#230=CARTESIAN_POINT('',(-1.11529799209781,54.1666666666646,10.6524976872288));
#231=CARTESIAN_POINT('',(-0.652468960868566,58.3333333333353,11.1152692657376));
#232=CARTESIAN_POINT('',(-0.327249233906022,60.41666666665,11.2500203126038));
#233=CARTESIAN_POINT('',(0.327249233906021,64.58333333335,11.2499796873962));
#234=CARTESIAN_POINT('',(0.652497687231725,66.66666666665,11.1152979921006));
#235=CARTESIAN_POINT('',(1.11526926573464,70.8333333333499,10.6524689608658));
#236=CARTESIAN_POINT('',(1.25002031260605,72.91666666665,10.3272492339054));
#237=CARTESIAN_POINT('',(1.24997968739395,77.08333333335,9.67275076609455));
#238=CARTESIAN_POINT('',(1.11529799210123,79.1666666666501,9.34750231277124));
#239=CARTESIAN_POINT('',(0.652468960865128,83.33333333335,8.88473073426238));
#240=CARTESIAN_POINT('',(0.327249233910715,85.4166666667085,8.74997968739624));
#241=CARTESIAN_POINT('',(-0.327249233910691,89.5833333332914,8.75002031260377));
#242=CARTESIAN_POINT('',(-0.652497687224867,91.6666666666501,8.88470200789579));
#243=CARTESIAN_POINT('',(-1.1152692657415,95.83333333335,9.34753103913784));
#244=CARTESIAN_POINT('',(-1.25002031399621,97.9165240869629,9.67272836971876));
#245=CARTESIAN_POINT('',(-1.25,100.0,10.0));
#246=CARTESIAN_POINT('',(0.0,-5.0,10.0));
#247=VECTOR('',#270,1000.0);
#248=CARTESIAN_POINT('',(0.0,0.0,10.0));
#249=VECTOR('',#271,1000.0);
#250=CARTESIAN_POINT('',(0.0,-5.0,10.0));
#251=VECTOR('',#272,1000.0);
#252=CARTESIAN_POINT('',(0.0,0.0,11.25));
#253=VECTOR('',#273,1000.0);
#254=CARTESIAN_POINT('',(0.0,0.0,10.0));
#255=VECTOR('',#274,1000.0);
#256=CARTESIAN_POINT('',(1.25,0.0,10.0));
#257=VECTOR('',#275,1000.0);
#258=CARTESIAN_POINT('',(1.25,100.0,10.0));
#259=VECTOR('',#276,1000.0);
#260=CARTESIAN_POINT('',(0.0,100.0,10.0));
#261=VECTOR('',#277,1000.0);
#262=CARTESIAN_POINT('',(0.0,100.0,10.0));
#263=VECTOR('',#278,1000.0);
#264=CARTESIAN_POINT('',(0.0,105.0,10.0));
#265=VECTOR('',#279,1000.0);
#266=CARTESIAN_POINT('',(-2.83276944882399E-15,100.0,11.25));
#267=VECTOR('',#280,1000.0);
#268=CARTESIAN_POINT('',(0.0,105.0,10.0));
#269=VECTOR('',#281,1000.0);
#270=DIRECTION('',(0.0,0.0,-1.0));
#271=DIRECTION('',(1.22464679914735E-16,0.0,-1.0));
#272=DIRECTION('',(0.0,1.0,0.0));
#273=DIRECTION('',(0.0,0.0,-1.0));
#274=DIRECTION('',(-1.0,0.0,0.0));
#275=DIRECTION('',(-1.0,0.0,0.0));
#276=DIRECTION('',(-1.0,0.0,-2.77555756156289E-15));
#277=DIRECTION('',(2.38868023897393E-15,0.0,-1.0));
#278=DIRECTION('',(-1.0,0.0,-2.77555756156289E-15));
#279=DIRECTION('',(0.0,-1.0,0.0));
#280=DIRECTION('',(2.26621555905919E-15,0.0,-1.0));
#281=DIRECTION('',(0.0,0.0,-1.0));
ENDSEC;
END-ISO-10303-21;
