ISO-10303-21;
HEADER;
FILE_DESCRIPTION(('STEP AP214'),'1');
FILE_NAME('Twinax.step','2025-03-27T02:38:42',(' '),('ANSOFT Corporation'),'Spatial InterOp 3D',' ',' ');
FILE_SCHEMA(('AUTOMOTIVE_DESIGN { 1 0 10303 214 1 1 1 1 }'));
ENDSEC;
DATA;
#1=MECHANICAL_DESIGN_GEOMETRIC_PRESENTATION_REPRESENTATION(' ',(#14,#15,#16,#17,#18),#10);
#2=PRODUCT_DEFINITION_CONTEXT('',#19,'design');
#3=APPLICATION_PROTOCOL_DEFINITION('INTERNATIONAL STANDARD','automotive_design',1994,#19);
#4=PRODUCT_CATEGORY_RELATIONSHIP('NONE','NONE',#20,#21);
#5=SHAPE_DEFINITION_REPRESENTATION(#22,#23);
#6=SHAPE_DEFINITION_REPRESENTATION(#22,#24);
#7=SHAPE_DEFINITION_REPRESENTATION(#22,#25);
#8=SHAPE_DEFINITION_REPRESENTATION(#22,#26);
#9=SHAPE_DEFINITION_REPRESENTATION(#22,#27);
#10= (GEOMETRIC_REPRESENTATION_CONTEXT(3)GLOBAL_UNCERTAINTY_ASSIGNED_CONTEXT((#30))GLOBAL_UNIT_ASSIGNED_CONTEXT((#32,#33,#34))REPRESENTATION_CONTEXT('NONE','WORKSPACE'));
#14=STYLED_ITEM('',(#36),#37);
#15=STYLED_ITEM('',(#38),#39);
#16=STYLED_ITEM('',(#40),#41);
#17=STYLED_ITEM('',(#42),#43);
#18=STYLED_ITEM('',(#44),#45);
#19=APPLICATION_CONTEXT(' ');
#20=PRODUCT_CATEGORY('part','NONE');
#21=PRODUCT_RELATED_PRODUCT_CATEGORY('detail',' ',(#46));
#22=PRODUCT_DEFINITION_SHAPE('NONE','NONE',#47);
#23=ADVANCED_BREP_SHAPE_REPRESENTATION('conductor1',(#37,#48),#10);
#24=ADVANCED_BREP_SHAPE_REPRESENTATION('conductor2',(#39,#49),#10);
#25=ADVANCED_BREP_SHAPE_REPRESENTATION('shield',(#41,#50),#10);
#26=ADVANCED_BREP_SHAPE_REPRESENTATION('FEP1',(#43,#51),#10);
#27=ADVANCED_BREP_SHAPE_REPRESENTATION('FEP2',(#45,#52),#10);
#30=UNCERTAINTY_MEASURE_WITH_UNIT(LENGTH_MEASURE(1.0E-06),#32,'','');
#32= (CONVERSION_BASED_UNIT('MILLIMETRE',#55)LENGTH_UNIT()NAMED_UNIT(#58));
#33= (NAMED_UNIT(#60)PLANE_ANGLE_UNIT()SI_UNIT($,.RADIAN.));
#34= (NAMED_UNIT(#60)SOLID_ANGLE_UNIT()SI_UNIT($,.STERADIAN.));
#36=PRESENTATION_STYLE_ASSIGNMENT((#66));
#37=MANIFOLD_SOLID_BREP('conductor1',#67);
#38=PRESENTATION_STYLE_ASSIGNMENT((#68));
#39=MANIFOLD_SOLID_BREP('conductor2',#69);
#40=PRESENTATION_STYLE_ASSIGNMENT((#70));
#41=MANIFOLD_SOLID_BREP('shield',#71);
#42=PRESENTATION_STYLE_ASSIGNMENT((#72));
#43=MANIFOLD_SOLID_BREP('FEP1',#73);
#44=PRESENTATION_STYLE_ASSIGNMENT((#74));
#45=MANIFOLD_SOLID_BREP('FEP2',#75);
#46=PRODUCT('conductor1','','PART--DESC',(#76));
#47=PRODUCT_DEFINITION('','NONE',#77,#2);
#48=AXIS2_PLACEMENT_3D('',#78,#79,#80);
#49=AXIS2_PLACEMENT_3D('',#81,#82,#83);
#50=AXIS2_PLACEMENT_3D('',#84,#85,#86);
#51=AXIS2_PLACEMENT_3D('',#87,#88,#89);
#52=AXIS2_PLACEMENT_3D('',#90,#91,#92);
#55=LENGTH_MEASURE_WITH_UNIT(LENGTH_MEASURE(1.0),#93);
#58=DIMENSIONAL_EXPONENTS(1.0,0.0,0.0,0.0,0.0,0.0,0.0);
#60=DIMENSIONAL_EXPONENTS(0.0,0.0,0.0,0.0,0.0,0.0,0.0);
#66=SURFACE_STYLE_USAGE(.BOTH.,#94);
#67=CLOSED_SHELL('',(#95,#96,#97));
#68=SURFACE_STYLE_USAGE(.BOTH.,#98);
#69=CLOSED_SHELL('',(#99,#100,#101));
#70=SURFACE_STYLE_USAGE(.BOTH.,#102);
#71=CLOSED_SHELL('',(#103,#104,#105,#106));
#72=SURFACE_STYLE_USAGE(.BOTH.,#107);
#73=CLOSED_SHELL('',(#108,#109,#110,#111));
#74=SURFACE_STYLE_USAGE(.BOTH.,#112);
#75=CLOSED_SHELL('',(#113,#114,#115,#116));
#76=PRODUCT_CONTEXT('',#19,'mechanical');
#77=PRODUCT_DEFINITION_FORMATION_WITH_SPECIFIED_SOURCE(' ','NONE',#46,.NOT_KNOWN.);
#78=CARTESIAN_POINT('',(0.0,0.0,0.0));
#79=DIRECTION('',(0.0,0.0,1.0));
#80=DIRECTION('',(1.0,0.0,0.0));
#81=CARTESIAN_POINT('',(0.0,0.0,0.0));
#82=DIRECTION('',(0.0,0.0,1.0));
#83=DIRECTION('',(1.0,0.0,0.0));
#84=CARTESIAN_POINT('',(0.0,0.0,0.0));
#85=DIRECTION('',(0.0,0.0,1.0));
#86=DIRECTION('',(1.0,0.0,0.0));
#87=CARTESIAN_POINT('',(0.0,0.0,0.0));
#88=DIRECTION('',(0.0,0.0,1.0));
#89=DIRECTION('',(1.0,0.0,0.0));
#90=CARTESIAN_POINT('',(0.0,0.0,0.0));
#91=DIRECTION('',(0.0,0.0,1.0));
#92=DIRECTION('',(1.0,0.0,0.0));
#93= (NAMED_UNIT(#58)LENGTH_UNIT()SI_UNIT(.MILLI.,.METRE.));
#94=SURFACE_SIDE_STYLE('',(#118));
#95=ADVANCED_FACE('',(#119),#120,.F.);
#96=ADVANCED_FACE('',(#121),#122,.T.);
#97=ADVANCED_FACE('',(#123,#124),#125,.T.);
#98=SURFACE_SIDE_STYLE('',(#126));
#99=ADVANCED_FACE('',(#127),#128,.F.);
#100=ADVANCED_FACE('',(#129),#130,.T.);
#101=ADVANCED_FACE('',(#131,#132),#133,.T.);
#102=SURFACE_SIDE_STYLE('',(#134));
#103=ADVANCED_FACE('',(#135,#136),#137,.F.);
#104=ADVANCED_FACE('',(#138,#139),#140,.T.);
#105=ADVANCED_FACE('',(#141,#142),#143,.T.);
#106=ADVANCED_FACE('',(#144,#145),#146,.F.);
#107=SURFACE_SIDE_STYLE('',(#147));
#108=ADVANCED_FACE('',(#148,#149),#150,.F.);
#109=ADVANCED_FACE('',(#151,#152),#153,.T.);
#110=ADVANCED_FACE('',(#154,#155),#156,.F.);
#111=ADVANCED_FACE('',(#157,#158),#159,.T.);
#112=SURFACE_SIDE_STYLE('',(#160));
#113=ADVANCED_FACE('',(#161,#162),#163,.F.);
#114=ADVANCED_FACE('',(#164,#165),#166,.T.);
#115=ADVANCED_FACE('',(#167,#168),#169,.F.);
#116=ADVANCED_FACE('',(#170,#171),#172,.T.);
#118=SURFACE_STYLE_FILL_AREA(#173);
#119=FACE_OUTER_BOUND('',#174,.T.);
#120=PLANE('',#175);
#121=FACE_OUTER_BOUND('',#176,.T.);
#122=PLANE('',#177);
#123=FACE_OUTER_BOUND('',#178,.T.);
#124=FACE_OUTER_BOUND('',#179,.T.);
#125=CYLINDRICAL_SURFACE('',#180,0.2675);
#126=SURFACE_STYLE_FILL_AREA(#181);
#127=FACE_OUTER_BOUND('',#182,.T.);
#128=PLANE('',#183);
#129=FACE_OUTER_BOUND('',#184,.T.);
#130=PLANE('',#185);
#131=FACE_OUTER_BOUND('',#186,.T.);
#132=FACE_OUTER_BOUND('',#187,.T.);
#133=CYLINDRICAL_SURFACE('',#188,0.2675);
#134=SURFACE_STYLE_FILL_AREA(#189);
#135=FACE_BOUND('',#190,.T.);
#136=FACE_OUTER_BOUND('',#191,.T.);
#137=PLANE('',#192);
#138=FACE_BOUND('',#193,.T.);
#139=FACE_OUTER_BOUND('',#194,.T.);
#140=PLANE('',#195);
#141=FACE_OUTER_BOUND('',#196,.T.);
#142=FACE_OUTER_BOUND('',#197,.T.);
#143=CYLINDRICAL_SURFACE('',#198,1.569);
#144=FACE_OUTER_BOUND('',#199,.T.);
#145=FACE_OUTER_BOUND('',#200,.T.);
#146=CYLINDRICAL_SURFACE('',#201,1.56);
#147=SURFACE_STYLE_FILL_AREA(#202);
#148=FACE_OUTER_BOUND('',#203,.T.);
#149=FACE_OUTER_BOUND('',#204,.T.);
#150=CYLINDRICAL_SURFACE('',#205,0.2675);
#151=FACE_OUTER_BOUND('',#206,.T.);
#152=FACE_OUTER_BOUND('',#207,.T.);
#153=CYLINDRICAL_SURFACE('',#208,0.78);
#154=FACE_BOUND('',#209,.T.);
#155=FACE_OUTER_BOUND('',#210,.T.);
#156=PLANE('',#211);
#157=FACE_BOUND('',#212,.T.);
#158=FACE_OUTER_BOUND('',#213,.T.);
#159=PLANE('',#214);
#160=SURFACE_STYLE_FILL_AREA(#215);
#161=FACE_OUTER_BOUND('',#216,.T.);
#162=FACE_OUTER_BOUND('',#217,.T.);
#163=CYLINDRICAL_SURFACE('',#218,0.2675);
#164=FACE_OUTER_BOUND('',#219,.T.);
#165=FACE_OUTER_BOUND('',#220,.T.);
#166=CYLINDRICAL_SURFACE('',#221,0.78);
#167=FACE_BOUND('',#222,.T.);
#168=FACE_OUTER_BOUND('',#223,.T.);
#169=PLANE('',#224);
#170=FACE_BOUND('',#225,.T.);
#171=FACE_OUTER_BOUND('',#226,.T.);
#172=PLANE('',#227);
#173=FILL_AREA_STYLE('',(#228));
#174=EDGE_LOOP('',(#229));
#175=AXIS2_PLACEMENT_3D('',#230,#231,#232);
#176=EDGE_LOOP('',(#233));
#177=AXIS2_PLACEMENT_3D('',#234,#235,#236);
#178=EDGE_LOOP('',(#237));
#179=EDGE_LOOP('',(#238));
#180=AXIS2_PLACEMENT_3D('',#239,#240,#241);
#181=FILL_AREA_STYLE('',(#242));
#182=EDGE_LOOP('',(#243));
#183=AXIS2_PLACEMENT_3D('',#244,#245,#246);
#184=EDGE_LOOP('',(#247));
#185=AXIS2_PLACEMENT_3D('',#248,#249,#250);
#186=EDGE_LOOP('',(#251));
#187=EDGE_LOOP('',(#252));
#188=AXIS2_PLACEMENT_3D('',#253,#254,#255);
#189=FILL_AREA_STYLE('',(#256));
#190=EDGE_LOOP('',(#257));
#191=EDGE_LOOP('',(#258));
#192=AXIS2_PLACEMENT_3D('',#259,#260,#261);
#193=EDGE_LOOP('',(#262));
#194=EDGE_LOOP('',(#263));
#195=AXIS2_PLACEMENT_3D('',#264,#265,#266);
#196=EDGE_LOOP('',(#267));
#197=EDGE_LOOP('',(#268));
#198=AXIS2_PLACEMENT_3D('',#269,#270,#271);
#199=EDGE_LOOP('',(#272));
#200=EDGE_LOOP('',(#273));
#201=AXIS2_PLACEMENT_3D('',#274,#275,#276);
#202=FILL_AREA_STYLE('',(#277));
#203=EDGE_LOOP('',(#278));
#204=EDGE_LOOP('',(#279));
#205=AXIS2_PLACEMENT_3D('',#280,#281,#282);
#206=EDGE_LOOP('',(#283));
#207=EDGE_LOOP('',(#284));
#208=AXIS2_PLACEMENT_3D('',#285,#286,#287);
#209=EDGE_LOOP('',(#288));
#210=EDGE_LOOP('',(#289));
#211=AXIS2_PLACEMENT_3D('',#290,#291,#292);
#212=EDGE_LOOP('',(#293));
#213=EDGE_LOOP('',(#294));
#214=AXIS2_PLACEMENT_3D('',#295,#296,#297);
#215=FILL_AREA_STYLE('',(#298));
#216=EDGE_LOOP('',(#299));
#217=EDGE_LOOP('',(#300));
#218=AXIS2_PLACEMENT_3D('',#301,#302,#303);
#219=EDGE_LOOP('',(#304));
#220=EDGE_LOOP('',(#305));
#221=AXIS2_PLACEMENT_3D('',#306,#307,#308);
#222=EDGE_LOOP('',(#309));
#223=EDGE_LOOP('',(#310));
#224=AXIS2_PLACEMENT_3D('',#311,#312,#313);
#225=EDGE_LOOP('',(#314));
#226=EDGE_LOOP('',(#315));
#227=AXIS2_PLACEMENT_3D('',#316,#317,#318);
#228=FILL_AREA_STYLE_COLOUR('',#319);
#229=ORIENTED_EDGE('',*,*,#320,.F.);
#230=CARTESIAN_POINT('',(0.78,0.0,0.0));
#231=DIRECTION('',(0.0,0.0,1.0));
#232=DIRECTION('',(1.0,0.0,-0.0));
#233=ORIENTED_EDGE('',*,*,#321,.T.);
#234=CARTESIAN_POINT('',(0.78,0.0,200.0));
#235=DIRECTION('',(0.0,0.0,1.0));
#236=DIRECTION('',(1.0,0.0,0.0));
#237=ORIENTED_EDGE('',*,*,#321,.F.);
#238=ORIENTED_EDGE('',*,*,#320,.T.);
#239=CARTESIAN_POINT('',(0.78,0.0,0.0));
#240=DIRECTION('',(0.0,0.0,1.0));
#241=DIRECTION('',(1.0,0.0,-0.0));
#242=FILL_AREA_STYLE_COLOUR('',#322);
#243=ORIENTED_EDGE('',*,*,#323,.F.);
#244=CARTESIAN_POINT('',(-0.78,0.0,0.0));
#245=DIRECTION('',(0.0,0.0,1.0));
#246=DIRECTION('',(1.0,0.0,-0.0));
#247=ORIENTED_EDGE('',*,*,#324,.T.);
#248=CARTESIAN_POINT('',(-0.78,0.0,200.0));
#249=DIRECTION('',(0.0,0.0,1.0));
#250=DIRECTION('',(1.0,0.0,0.0));
#251=ORIENTED_EDGE('',*,*,#324,.F.);
#252=ORIENTED_EDGE('',*,*,#323,.T.);
#253=CARTESIAN_POINT('',(-0.78,0.0,0.0));
#254=DIRECTION('',(0.0,0.0,1.0));
#255=DIRECTION('',(1.0,0.0,-0.0));
#256=FILL_AREA_STYLE_COLOUR('',#325);
#257=ORIENTED_EDGE('',*,*,#326,.F.);
#258=ORIENTED_EDGE('',*,*,#327,.F.);
#259=CARTESIAN_POINT('',(0.0,0.0,0.0));
#260=DIRECTION('',(0.0,0.0,1.0));
#261=DIRECTION('',(1.0,0.0,-0.0));
#262=ORIENTED_EDGE('',*,*,#328,.T.);
#263=ORIENTED_EDGE('',*,*,#329,.T.);
#264=CARTESIAN_POINT('',(0.0,0.0,200.0));
#265=DIRECTION('',(0.0,0.0,1.0));
#266=DIRECTION('',(1.0,0.0,0.0));
#267=ORIENTED_EDGE('',*,*,#329,.F.);
#268=ORIENTED_EDGE('',*,*,#327,.T.);
#269=CARTESIAN_POINT('',(0.0,0.0,0.0));
#270=DIRECTION('',(0.0,0.0,1.0));
#271=DIRECTION('',(1.0,0.0,-0.0));
#272=ORIENTED_EDGE('',*,*,#328,.F.);
#273=ORIENTED_EDGE('',*,*,#326,.T.);
#274=CARTESIAN_POINT('',(0.0,0.0,0.0));
#275=DIRECTION('',(0.0,0.0,1.0));
#276=DIRECTION('',(1.0,0.0,-0.0));
#277=FILL_AREA_STYLE_COLOUR('',#330);
#278=ORIENTED_EDGE('',*,*,#331,.T.);
#279=ORIENTED_EDGE('',*,*,#332,.F.);
#280=CARTESIAN_POINT('',(0.78,0.0,0.0));
#281=DIRECTION('',(0.0,0.0,1.0));
#282=DIRECTION('',(1.0,0.0,-0.0));
#283=ORIENTED_EDGE('',*,*,#333,.F.);
#284=ORIENTED_EDGE('',*,*,#334,.T.);
#285=CARTESIAN_POINT('',(0.78,0.0,0.0));
#286=DIRECTION('',(0.0,0.0,1.0));
#287=DIRECTION('',(1.0,0.0,-0.0));
#288=ORIENTED_EDGE('',*,*,#332,.T.);
#289=ORIENTED_EDGE('',*,*,#334,.F.);
#290=CARTESIAN_POINT('',(0.78,0.0,0.0));
#291=DIRECTION('',(0.0,0.0,1.0));
#292=DIRECTION('',(1.0,0.0,-0.0));
#293=ORIENTED_EDGE('',*,*,#331,.F.);
#294=ORIENTED_EDGE('',*,*,#333,.T.);
#295=CARTESIAN_POINT('',(0.78,0.0,200.0));
#296=DIRECTION('',(0.0,0.0,1.0));
#297=DIRECTION('',(1.0,0.0,0.0));
#298=FILL_AREA_STYLE_COLOUR('',#335);
#299=ORIENTED_EDGE('',*,*,#336,.T.);
#300=ORIENTED_EDGE('',*,*,#337,.F.);
#301=CARTESIAN_POINT('',(-0.78,0.0,0.0));
#302=DIRECTION('',(0.0,0.0,1.0));
#303=DIRECTION('',(1.0,0.0,-0.0));
#304=ORIENTED_EDGE('',*,*,#338,.F.);
#305=ORIENTED_EDGE('',*,*,#339,.T.);
#306=CARTESIAN_POINT('',(-0.78,0.0,0.0));
#307=DIRECTION('',(0.0,0.0,1.0));
#308=DIRECTION('',(1.0,0.0,-0.0));
#309=ORIENTED_EDGE('',*,*,#337,.T.);
#310=ORIENTED_EDGE('',*,*,#339,.F.);
#311=CARTESIAN_POINT('',(-0.78,0.0,0.0));
#312=DIRECTION('',(0.0,0.0,1.0));
#313=DIRECTION('',(1.0,0.0,-0.0));
#314=ORIENTED_EDGE('',*,*,#336,.F.);
#315=ORIENTED_EDGE('',*,*,#338,.T.);
#316=CARTESIAN_POINT('',(-0.78,0.0,200.0));
#317=DIRECTION('',(0.0,0.0,1.0));
#318=DIRECTION('',(1.0,0.0,0.0));
#319=COLOUR_RGB('',1.0,0.501960813999176,0.250980406999588);
#320=EDGE_CURVE('',#340,#340,#341,.T.);
#321=EDGE_CURVE('',#342,#342,#343,.T.);
#322=COLOUR_RGB('',1.0,0.501960813999176,0.250980406999588);
#323=EDGE_CURVE('',#344,#344,#345,.T.);
#324=EDGE_CURVE('',#346,#346,#347,.T.);
#325=COLOUR_RGB('',0.909803926944733,0.921568632125854,0.921568632125854);
#326=EDGE_CURVE('',#348,#348,#349,.F.);
#327=EDGE_CURVE('',#350,#350,#351,.T.);
#328=EDGE_CURVE('',#352,#352,#353,.F.);
#329=EDGE_CURVE('',#354,#354,#355,.T.);
#330=COLOUR_RGB('',0.0,0.501960813999176,0.0);
#331=EDGE_CURVE('',#356,#356,#357,.T.);
#332=EDGE_CURVE('',#358,#358,#359,.T.);
#333=EDGE_CURVE('',#360,#360,#361,.T.);
#334=EDGE_CURVE('',#362,#362,#363,.T.);
#335=COLOUR_RGB('',0.0,0.501960813999176,0.0);
#336=EDGE_CURVE('',#364,#364,#365,.T.);
#337=EDGE_CURVE('',#366,#366,#367,.T.);
#338=EDGE_CURVE('',#368,#368,#369,.T.);
#339=EDGE_CURVE('',#370,#370,#371,.T.);
#340=VERTEX_POINT('',#372);
#341=CIRCLE('',#373,0.2675);
#342=VERTEX_POINT('',#374);
#343=CIRCLE('',#375,0.2675);
#344=VERTEX_POINT('',#376);
#345=CIRCLE('',#377,0.2675);
#346=VERTEX_POINT('',#378);
#347=CIRCLE('',#379,0.2675);
#348=VERTEX_POINT('',#380);
#349=CIRCLE('',#381,1.56);
#350=VERTEX_POINT('',#382);
#351=CIRCLE('',#383,1.569);
#352=VERTEX_POINT('',#384);
#353=CIRCLE('',#385,1.56);
#354=VERTEX_POINT('',#386);
#355=CIRCLE('',#387,1.569);
#356=VERTEX_POINT('',#388);
#357=CIRCLE('',#389,0.2675);
#358=VERTEX_POINT('',#390);
#359=CIRCLE('',#391,0.2675);
#360=VERTEX_POINT('',#392);
#361=CIRCLE('',#393,0.78);
#362=VERTEX_POINT('',#394);
#363=CIRCLE('',#395,0.78);
#364=VERTEX_POINT('',#396);
#365=CIRCLE('',#397,0.2675);
#366=VERTEX_POINT('',#398);
#367=CIRCLE('',#399,0.2675);
#368=VERTEX_POINT('',#400);
#369=CIRCLE('',#401,0.78);
#370=VERTEX_POINT('',#402);
#371=CIRCLE('',#403,0.78);
#372=CARTESIAN_POINT('',(1.0475,0.0,0.0));
#373=AXIS2_PLACEMENT_3D('',#404,#405,#406);
#374=CARTESIAN_POINT('',(1.0475,0.0,200.0));
#375=AXIS2_PLACEMENT_3D('',#407,#408,#409);
#376=CARTESIAN_POINT('',(-0.5125,0.0,0.0));
#377=AXIS2_PLACEMENT_3D('',#410,#411,#412);
#378=CARTESIAN_POINT('',(-0.5125,0.0,200.0));
#379=AXIS2_PLACEMENT_3D('',#413,#414,#415);
#380=CARTESIAN_POINT('',(1.56,-3.82089801333974E-16,0.0));
#381=AXIS2_PLACEMENT_3D('',#416,#417,#418);
#382=CARTESIAN_POINT('',(1.569,0.0,0.0));
#383=AXIS2_PLACEMENT_3D('',#419,#420,#421);
#384=CARTESIAN_POINT('',(1.56,-3.82089801333974E-16,200.0));
#385=AXIS2_PLACEMENT_3D('',#422,#423,#424);
#386=CARTESIAN_POINT('',(1.569,0.0,200.0));
#387=AXIS2_PLACEMENT_3D('',#425,#426,#427);
#388=CARTESIAN_POINT('',(1.0475,0.0,200.0));
#389=AXIS2_PLACEMENT_3D('',#428,#429,#430);
#390=CARTESIAN_POINT('',(1.0475,0.0,0.0));
#391=AXIS2_PLACEMENT_3D('',#431,#432,#433);
#392=CARTESIAN_POINT('',(1.56,0.0,200.0));
#393=AXIS2_PLACEMENT_3D('',#434,#435,#436);
#394=CARTESIAN_POINT('',(1.56,0.0,0.0));
#395=AXIS2_PLACEMENT_3D('',#437,#438,#439);
#396=CARTESIAN_POINT('',(-0.5125,0.0,200.0));
#397=AXIS2_PLACEMENT_3D('',#440,#441,#442);
#398=CARTESIAN_POINT('',(-0.5125,0.0,0.0));
#399=AXIS2_PLACEMENT_3D('',#443,#444,#445);
#400=CARTESIAN_POINT('',(0.0,0.0,200.0));
#401=AXIS2_PLACEMENT_3D('',#446,#447,#448);
#402=CARTESIAN_POINT('',(0.0,0.0,0.0));
#403=AXIS2_PLACEMENT_3D('',#449,#450,#451);
#404=CARTESIAN_POINT('',(0.78,0.0,0.0));
#405=DIRECTION('',(0.0,0.0,1.0));
#406=DIRECTION('',(1.0,0.0,0.0));
#407=CARTESIAN_POINT('',(0.78,0.0,200.0));
#408=DIRECTION('',(0.0,0.0,1.0));
#409=DIRECTION('',(1.0,0.0,0.0));
#410=CARTESIAN_POINT('',(-0.78,0.0,0.0));
#411=DIRECTION('',(0.0,0.0,1.0));
#412=DIRECTION('',(1.0,0.0,0.0));
#413=CARTESIAN_POINT('',(-0.78,0.0,200.0));
#414=DIRECTION('',(0.0,0.0,1.0));
#415=DIRECTION('',(1.0,0.0,0.0));
#416=CARTESIAN_POINT('',(0.0,0.0,0.0));
#417=DIRECTION('',(0.0,0.0,1.0));
#418=DIRECTION('',(1.0,0.0,0.0));
#419=CARTESIAN_POINT('',(0.0,0.0,0.0));
#420=DIRECTION('',(0.0,0.0,1.0));
#421=DIRECTION('',(1.0,0.0,0.0));
#422=CARTESIAN_POINT('',(0.0,0.0,200.0));
#423=DIRECTION('',(0.0,0.0,1.0));
#424=DIRECTION('',(1.0,0.0,0.0));
#425=CARTESIAN_POINT('',(0.0,0.0,200.0));
#426=DIRECTION('',(0.0,0.0,1.0));
#427=DIRECTION('',(1.0,0.0,0.0));
#428=CARTESIAN_POINT('',(0.78,0.0,200.0));
#429=DIRECTION('',(0.0,0.0,1.0));
#430=DIRECTION('',(1.0,0.0,0.0));
#431=CARTESIAN_POINT('',(0.78,0.0,0.0));
#432=DIRECTION('',(0.0,0.0,1.0));
#433=DIRECTION('',(1.0,0.0,0.0));
#434=CARTESIAN_POINT('',(0.78,0.0,200.0));
#435=DIRECTION('',(0.0,0.0,1.0));
#436=DIRECTION('',(1.0,0.0,0.0));
#437=CARTESIAN_POINT('',(0.78,0.0,0.0));
#438=DIRECTION('',(0.0,0.0,1.0));
#439=DIRECTION('',(1.0,0.0,0.0));
#440=CARTESIAN_POINT('',(-0.78,0.0,200.0));
#441=DIRECTION('',(0.0,0.0,1.0));
#442=DIRECTION('',(1.0,0.0,0.0));
#443=CARTESIAN_POINT('',(-0.78,0.0,0.0));
#444=DIRECTION('',(0.0,0.0,1.0));
#445=DIRECTION('',(1.0,0.0,0.0));
#446=CARTESIAN_POINT('',(-0.78,0.0,200.0));
#447=DIRECTION('',(0.0,0.0,1.0));
#448=DIRECTION('',(1.0,0.0,0.0));
#449=CARTESIAN_POINT('',(-0.78,0.0,0.0));
#450=DIRECTION('',(0.0,0.0,1.0));
#451=DIRECTION('',(1.0,0.0,0.0));
ENDSEC;
END-ISO-10303-21;
